<svg width="10" height="14" viewBox="0 0 10 14" fill="none" xmlns="http://www.w3.org/2000/svg">
<mask id="path-1-inside-1_498_269" fill="white">
<path fill-rule="evenodd" clip-rule="evenodd" d="M4.9999 14C5.13251 14 5.25968 13.9473 5.35345 13.8536C5.44722 13.7598 5.4999 13.6326 5.4999 13.5V1.707L8.6459 4.854C8.73979 4.94789 8.86712 5.00063 8.9999 5.00063C9.13267 5.00063 9.26001 4.94789 9.3539 4.854C9.44779 4.76011 9.50053 4.63277 9.50053 4.5C9.50053 4.36722 9.44779 4.23989 9.3539 4.146L5.3539 0.145999C5.30745 0.099436 5.25228 0.0624931 5.19153 0.0372867C5.13079 0.0120803 5.06567 -0.000894547 4.9999 -0.000894547C4.93413 -0.000894547 4.86901 0.0120803 4.80827 0.0372867C4.74752 0.0624931 4.69234 0.099436 4.6459 0.145999L0.645899 4.146C0.599411 4.19249 0.562535 4.24768 0.537376 4.30842C0.512217 4.36915 0.499268 4.43426 0.499268 4.5C0.499268 4.63277 0.552012 4.76011 0.645899 4.854C0.739786 4.94789 0.867123 5.00063 0.999899 5.00063C1.13267 5.00063 1.26001 4.94789 1.3539 4.854L4.4999 1.707V13.5C4.4999 13.6326 4.55258 13.7598 4.64635 13.8536C4.74011 13.9473 4.86729 14 4.9999 14Z"/>
</mask>
<path fill-rule="evenodd" clip-rule="evenodd" d="M4.9999 14C5.13251 14 5.25968 13.9473 5.35345 13.8536C5.44722 13.7598 5.4999 13.6326 5.4999 13.5V1.707L8.6459 4.854C8.73979 4.94789 8.86712 5.00063 8.9999 5.00063C9.13267 5.00063 9.26001 4.94789 9.3539 4.854C9.44779 4.76011 9.50053 4.63277 9.50053 4.5C9.50053 4.36722 9.44779 4.23989 9.3539 4.146L5.3539 0.145999C5.30745 0.099436 5.25228 0.0624931 5.19153 0.0372867C5.13079 0.0120803 5.06567 -0.000894547 4.9999 -0.000894547C4.93413 -0.000894547 4.86901 0.0120803 4.80827 0.0372867C4.74752 0.0624931 4.69234 0.099436 4.6459 0.145999L0.645899 4.146C0.599411 4.19249 0.562535 4.24768 0.537376 4.30842C0.512217 4.36915 0.499268 4.43426 0.499268 4.5C0.499268 4.63277 0.552012 4.76011 0.645899 4.854C0.739786 4.94789 0.867123 5.00063 0.999899 5.00063C1.13267 5.00063 1.26001 4.94789 1.3539 4.854L4.4999 1.707V13.5C4.4999 13.6326 4.55258 13.7598 4.64635 13.8536C4.74011 13.9473 4.86729 14 4.9999 14Z" fill="#D41E45"/>
<path d="M5.4999 1.707L23.8876 -16.6749L-20.5001 -61.0767L-20.5001 1.707H5.4999ZM8.6459 4.854L-9.7418 23.2359L-9.73888 23.2388L8.6459 4.854ZM9.50053 4.5L35.5005 4.5L9.50053 4.5ZM9.3539 4.146L27.7387 -14.2388L27.7387 -14.2388L9.3539 4.146ZM5.3539 0.145999L-13.0541 18.5075L-13.0425 18.5192L-13.0309 18.5308L5.3539 0.145999ZM4.9999 -0.000894547L4.9999 -26.0009L4.9999 -0.000894547ZM4.6459 0.145999L23.0307 18.5308L23.0423 18.5192L23.0539 18.5075L4.6459 0.145999ZM0.645899 4.146L-17.7389 -14.2388L0.645899 4.146ZM0.499268 4.5L26.4993 4.5L0.499268 4.5ZM1.3539 4.854L19.7387 23.2388L19.7416 23.2359L1.3539 4.854ZM4.4999 1.707H30.4999V-61.0767L-13.8878 -16.6749L4.4999 1.707ZM4.9999 40C12.0281 40 18.7685 37.2081 23.7382 32.2383L-13.0313 -4.53122C-8.2491 -9.31345 -1.76305 -12 4.9999 -12V40ZM23.7382 32.2383C28.708 27.2686 31.4999 20.5282 31.4999 13.5H-20.5001C-20.5001 6.73705 -17.8136 0.251005 -13.0313 -4.53122L23.7382 32.2383ZM31.4999 13.5V1.707H-20.5001V13.5H31.4999ZM-12.8878 20.0889L-9.7418 23.2359L27.0336 -13.5279L23.8876 -16.6749L-12.8878 20.0889ZM-9.73888 23.2388C-4.76905 28.2086 1.97148 31.0006 8.9999 31.0006V-20.9994C15.7628 -20.9994 22.2486 -18.3128 27.0307 -13.5308L-9.73888 23.2388ZM8.9999 31.0006C16.0283 31.0006 22.7689 28.2086 27.7387 23.2388L-9.03088 -13.5308C-4.24883 -18.3128 2.23704 -20.9994 8.9999 -20.9994V31.0006ZM27.7387 23.2388C32.7085 18.2689 35.5005 11.5284 35.5005 4.5L-16.4995 4.5C-16.4995 -2.2628 -13.813 -8.74868 -9.03088 -13.5308L27.7387 23.2388ZM35.5005 4.5C35.5005 -2.52835 32.7085 -9.26891 27.7387 -14.2388L-9.03088 22.5308C-13.813 17.7487 -16.4995 11.2628 -16.4995 4.5L35.5005 4.5ZM27.7387 -14.2388L23.7387 -18.2388L-13.0309 18.5308L-9.03088 22.5308L27.7387 -14.2388ZM23.7619 -18.2155C21.3002 -20.6834 18.3759 -22.6414 15.1565 -23.9773L-4.77342 24.0519C-7.87136 22.7664 -10.6853 20.8823 -13.0541 18.5075L23.7619 -18.2155ZM15.1565 -23.9773C11.937 -25.3132 8.48558 -26.0009 4.9999 -26.0009L4.9999 25.9991C1.64575 25.9991 -1.67543 25.3374 -4.77342 24.0519L15.1565 -23.9773ZM4.9999 -26.0009C1.51421 -26.0009 -1.93721 -25.3132 -5.15668 -23.9773L14.7732 24.0519C11.6752 25.3374 8.35405 25.9991 4.9999 25.9991L4.9999 -26.0009ZM-5.15668 -23.9773C-8.37611 -22.6414 -11.3004 -20.6834 -13.7621 -18.2155L23.0539 18.5075C20.6851 20.8823 17.8712 22.7664 14.7732 24.0519L-5.15668 -23.9773ZM-13.7389 -18.2388L-17.7389 -14.2388L19.0307 22.5308L23.0307 18.5308L-13.7389 -18.2388ZM-17.7389 -14.2388C-20.1997 -11.778 -22.1517 -8.85654 -23.4835 -5.64135L24.5582 14.2582C23.2768 17.3519 21.3985 20.1629 19.0307 22.5308L-17.7389 -14.2388ZM-23.4835 -5.64135C-24.8153 -2.42615 -25.5007 1.01989 -25.5007 4.5L26.4993 4.5C26.4993 7.84862 25.8397 11.1645 24.5582 14.2582L-23.4835 -5.64135ZM-25.5007 4.5C-25.5007 11.5284 -22.7087 18.2689 -17.7389 23.2388L19.0307 -13.5308C23.8127 -8.7487 26.4993 -2.26283 26.4993 4.5L-25.5007 4.5ZM-17.7389 23.2388C-12.7691 28.2086 -6.02852 31.0006 0.999899 31.0006V-20.9994C7.76276 -20.9994 14.2486 -18.3128 19.0307 -13.5308L-17.7389 23.2388ZM0.999899 31.0006C8.02831 31.0006 14.7689 28.2086 19.7387 23.2388L-17.0309 -13.5308C-12.2488 -18.3128 -5.76296 -20.9994 0.999899 -20.9994V31.0006ZM19.7416 23.2359L22.8876 20.0889L-13.8878 -16.6749L-17.0338 -13.5279L19.7416 23.2359ZM-21.5001 1.707V13.5H30.4999V1.707H-21.5001ZM-21.5001 13.5C-21.5001 20.5283 -18.7081 27.2687 -13.7384 32.2383L23.0311 -4.53122C27.8133 0.250915 30.4999 6.73692 30.4999 13.5H-21.5001ZM-13.7384 32.2383C-8.7687 37.2081 -2.02832 40 4.9999 40V-12C11.7629 -12 18.2489 -9.31341 23.0311 -4.53122L-13.7384 32.2383Z" fill="#D41E45" mask="url(#path-1-inside-1_498_269)"/>
</svg>
