<svg width="21" height="21" viewBox="0 0 21 21" fill="none" xmlns="http://www.w3.org/2000/svg">
<path d="M7.79296 14.4375H13.207C13.2973 14.4375 13.3711 14.3637 13.3711 14.2734V12.5508C13.3711 12.4605 13.2973 12.3867 13.207 12.3867H12.3867C12.2965 12.3867 12.2227 12.4605 12.2227 12.5508V13.2891H8.77734V12.5508C8.77734 12.4605 8.70351 12.3867 8.61328 12.3867H7.79296C7.70273 12.3867 7.6289 12.4605 7.6289 12.5508V14.2734C7.6289 14.3637 7.70273 14.4375 7.79296 14.4375ZM14.7656 11.915C14.7656 12.1326 14.852 12.3412 15.0059 12.4951C15.1597 12.6489 15.3684 12.7353 15.5859 12.7353C15.8035 12.7353 16.0121 12.6489 16.166 12.4951C16.3198 12.3412 16.4062 12.1326 16.4062 11.915C16.4062 11.6975 16.3198 11.4888 16.166 11.335C16.0121 11.1811 15.8035 11.0947 15.5859 11.0947C15.3684 11.0947 15.1597 11.1811 15.0059 11.335C14.852 11.4888 14.7656 11.6975 14.7656 11.915ZM19.667 8.47792L19.181 7.6289C19.1591 7.59147 19.1233 7.56421 19.0814 7.55307C19.0396 7.54192 18.995 7.54781 18.9574 7.56943L17.9177 8.17646L16.3119 3.74267C16.2271 3.47811 16.0605 3.24733 15.836 3.08367C15.6115 2.92 15.3408 2.83191 15.063 2.83212H6.17695C5.46533 2.83212 4.83369 3.2915 4.61425 3.97031L3.08437 8.17851L2.04257 7.57148C2.00501 7.54986 1.96042 7.54398 1.91854 7.55512C1.87666 7.56626 1.84089 7.59352 1.81904 7.63095L1.333 8.47792C1.28789 8.55585 1.31455 8.65429 1.39248 8.69941L2.63115 9.42128L2.33379 10.2416C2.30918 10.3072 2.29687 10.3769 2.29687 10.4467V17.5875C2.29687 17.9095 2.53886 18.1699 2.83623 18.1699H4.22255C4.4748 18.1699 4.69423 17.9792 4.74755 17.7126L4.90546 16.9394H16.0945L16.2524 17.7126C16.3078 17.9792 16.5252 18.1699 16.7774 18.1699H18.1638C18.4611 18.1699 18.7031 17.9095 18.7031 17.5875V10.4467C18.7031 10.3769 18.6908 10.3072 18.6662 10.2416L18.3688 9.42128L19.6055 8.69941C19.6427 8.67791 19.67 8.64266 19.6815 8.60124C19.693 8.55982 19.6878 8.51554 19.667 8.47792V8.47792ZM17.2266 10.6025V15.4629H3.77343V10.6025L4.09336 9.7207H16.9066L17.2266 10.6025ZM6.00263 4.47275L6.01289 4.44609L6.02109 4.41943C6.04365 4.35175 6.10517 4.30663 6.17695 4.30663H14.9461L16.4924 8.57226H4.51171L6.00263 4.47275ZM4.59375 11.915C4.59375 12.1326 4.68017 12.3412 4.83401 12.4951C4.98785 12.6489 5.1965 12.7353 5.41406 12.7353C5.63162 12.7353 5.84027 12.6489 5.99411 12.4951C6.14794 12.3412 6.23437 12.1326 6.23437 11.915C6.23437 11.6975 6.14794 11.4888 5.99411 11.335C5.84027 11.1811 5.63162 11.0947 5.41406 11.0947C5.1965 11.0947 4.98785 11.1811 4.83401 11.335C4.68017 11.4888 4.59375 11.6975 4.59375 11.915Z" fill="white"/>
</svg>
