<svg width="42" height="40" viewBox="0 0 42 40" fill="none" xmlns="http://www.w3.org/2000/svg">
<path d="M4.26779 13.8929C7.4912 13.8929 10.6963 13.8929 13.9197 13.8929C16.0259 13.8929 18.1138 13.8929 20.22 13.8929C21.3738 13.8929 22.7291 13.7603 23.828 14.0918C25.3848 14.5725 26.502 15.8321 26.7034 17.3072C26.7584 17.705 26.7401 18.0862 26.7401 18.484C26.7401 20.2409 26.7401 21.9977 26.7401 23.7546C26.7401 25.6606 26.7401 27.5501 26.7401 29.4561C26.7401 31.0804 26.6851 32.6384 25.11 33.7654C23.4434 34.9588 20.9526 34.6107 18.9563 34.6107C17.0698 34.6107 15.1651 34.6107 13.2787 34.6107C13.5351 34.5113 13.7915 34.4118 14.0479 34.3124C12.1248 36.0527 10.2018 37.793 8.27873 39.5333C7.60109 40.1465 6.41062 39.699 6.41062 38.8372C6.41062 37.0969 6.41062 35.3566 6.41062 33.6163C6.77692 33.9478 7.14322 34.2792 7.50951 34.6107C5.49488 34.6107 3.1689 34.9422 1.52057 33.6826C0.000444591 32.5389 0.000444067 30.9644 0.000444067 29.3567C0.000444067 25.7269 0.000444067 22.1137 0.000444067 18.484C0.000444067 17.8542 -0.0178707 17.2409 0.183592 16.6277C0.751351 14.9868 2.39968 13.9592 4.26779 13.8929C5.67803 13.8432 5.67803 15.8321 4.26779 15.8818C3.09565 15.915 2.25316 16.7105 2.19822 17.7713C2.17991 18.0696 2.19822 18.368 2.19822 18.6663C2.19822 20.2077 2.19822 21.7325 2.19822 23.2739C2.19822 25.0308 2.19822 26.7877 2.19822 28.5446C2.19822 29.4064 1.97844 30.6163 2.34474 31.445C3.09565 33.1522 5.91613 32.6384 7.50951 32.6384C8.09559 32.6384 8.6084 33.0859 8.6084 33.6328C8.6084 35.3731 8.6084 37.1134 8.6084 38.8537C7.9857 38.6217 7.36299 38.3897 6.74029 38.1576C8.13222 36.898 9.54245 35.6218 10.9344 34.3621C11.4472 33.898 11.9417 33.3677 12.4911 32.9533C13.0589 32.5389 13.7732 32.655 14.4508 32.655C16.7768 32.655 19.1028 32.655 21.4288 32.655C22.2163 32.655 23.0405 32.7378 23.7181 32.2903C24.4141 31.8097 24.5423 31.1136 24.5423 30.3843C24.5423 26.4893 24.5423 22.5944 24.5423 18.6995C24.5423 18.2188 24.6155 17.6553 24.4324 17.1912C24.1027 16.3293 23.2419 15.9316 22.2896 15.915C20.6412 15.8984 18.9929 15.915 17.3446 15.915C12.9856 15.915 8.62672 15.915 4.26779 15.915C2.85755 15.8818 2.85755 13.8929 4.26779 13.8929Z" fill="#334747"/>
<path d="M37.3839 0.0313041C33.8974 0.0313041 30.4307 0.0313041 26.9442 0.0313041C24.6661 0.0313041 22.4078 0.0313041 20.1297 0.0313041C18.8817 0.0313041 17.4158 -0.127173 16.2272 0.269019C14.5434 0.843498 13.335 2.34903 13.1171 4.11208C13.0577 4.58751 13.0775 5.04314 13.0775 5.51857C13.0775 7.61839 13.0775 9.7182 13.0775 11.818C13.0775 14.0961 13.0775 16.3544 13.0775 18.6325C13.0775 20.5739 13.1369 22.436 14.8405 23.783C16.6432 25.2093 19.3373 24.7933 21.4966 24.7933C23.537 24.7933 25.5972 24.7933 27.6375 24.7933C27.3602 24.6745 27.0829 24.5556 26.8055 24.4367C28.8855 26.5168 30.9656 28.5968 33.0456 30.6768C33.7785 31.4097 35.0661 30.8749 35.0661 29.8448C35.0661 27.7648 35.0661 25.6847 35.0661 23.6047C34.67 24.0009 34.2738 24.3971 33.8776 24.7933C36.0566 24.7933 38.5725 25.1895 40.3553 23.684C41.9995 22.3171 41.9995 20.4352 41.9995 18.5137C41.9995 14.1754 41.9995 9.85687 41.9995 5.51857C41.9995 4.7658 42.0193 4.03285 41.8014 3.29989C41.1873 1.33874 39.4045 0.110543 37.3839 0.0313041C35.8585 -0.0281248 35.8585 2.34903 37.3839 2.40846C38.6517 2.44808 39.5629 3.39894 39.6224 4.66675C39.6422 5.02333 39.6224 5.3799 39.6224 5.73647C39.6224 7.57877 39.6224 9.40125 39.6224 11.2435C39.6224 13.3434 39.6224 15.4432 39.6224 17.543C39.6224 18.5731 39.8601 20.0192 39.4639 21.0097C38.6517 23.0501 35.601 22.436 33.8776 22.436C33.2437 22.436 32.689 22.9708 32.689 23.6246C32.689 25.7046 32.689 27.7846 32.689 29.8646C33.3625 29.5872 34.036 29.3099 34.7096 29.0326C33.204 27.527 31.6787 26.0017 30.1732 24.4962C29.6185 23.9415 29.0836 23.3076 28.4894 22.8124C27.8753 22.3171 27.1027 22.4558 26.3697 22.4558C23.8539 22.4558 21.3381 22.4558 18.8223 22.4558C17.9705 22.4558 17.079 22.5548 16.3461 22.02C15.5933 21.4455 15.4546 20.6135 15.4546 19.7419C15.4546 15.0866 15.4546 10.4314 15.4546 5.77609C15.4546 5.20161 15.3754 4.52809 15.5735 3.97342C15.9301 2.94332 16.8611 2.46789 17.8912 2.44808C19.6741 2.42827 21.4569 2.44808 23.2398 2.44808C27.9545 2.44808 32.6692 2.44808 37.3839 2.44808C38.9092 2.40846 38.9092 0.0313041 37.3839 0.0313041Z" fill="#334747"/>
<g clip-path="url(#clip0_609_268)">
<path d="M37.3807 1.22818H17.6899C15.808 1.22818 14.2629 2.77333 14.2629 4.65524V20.186C14.2629 22.0679 15.808 23.613 17.6899 23.613H27.6344L33.8744 29.8531V23.613H37.3807C39.2626 23.613 40.8078 22.0679 40.8078 20.186V4.65524C40.8078 2.77333 39.2626 1.22818 37.3807 1.22818Z" fill="white"/>
<path d="M37.3806 0.0397574C33.8941 0.0397574 30.4275 0.0397574 26.941 0.0397574C24.6629 0.0397574 22.4046 0.0397574 20.1265 0.0397574C18.8785 0.0397574 17.4125 -0.118719 16.224 0.277473C14.5402 0.851951 13.3318 2.35748 13.1139 4.12054C13.0544 4.59597 13.0742 5.05159 13.0742 5.52702C13.0742 7.62684 13.0742 9.72666 13.0742 11.8265C13.0742 14.1046 13.0742 16.3629 13.0742 18.641C13.0742 20.5823 13.1337 22.4444 14.8373 23.7915C16.64 25.2178 19.3341 24.8018 21.4933 24.8018C23.5337 24.8018 25.5939 24.8018 27.6343 24.8018C27.357 24.6829 27.0796 24.5641 26.8023 24.4452C28.8823 26.5252 30.9623 28.6052 33.0423 30.6852C33.7753 31.4182 35.0629 30.8833 35.0629 29.8532C35.0629 27.7732 35.0629 25.6932 35.0629 23.6132C34.6667 24.0094 34.2705 24.4056 33.8743 24.8018C36.0534 24.8018 38.5692 25.198 40.3521 23.6924C41.9963 22.3256 41.9963 20.4437 41.9963 18.5221C41.9963 14.1838 41.9963 9.86532 41.9963 5.52702C41.9963 4.77425 42.0161 4.0413 41.7982 3.30834C41.1841 1.34719 39.4012 0.118996 37.3806 0.0397574C35.8553 -0.0196714 35.8553 2.35748 37.3806 2.41691C38.6485 2.45653 39.5597 3.40739 39.6191 4.67521C39.6389 5.03178 39.6191 5.38835 39.6191 5.74492C39.6191 7.58722 39.6191 9.4097 39.6191 11.252C39.6191 13.3518 39.6191 15.4516 39.6191 17.5515C39.6191 18.5816 39.8568 20.0277 39.4606 21.0181C38.6485 23.0585 35.5978 22.4444 33.8743 22.4444C33.2404 22.4444 32.6858 22.9793 32.6858 23.633C32.6858 25.713 32.6858 27.793 32.6858 29.873C33.3593 29.5957 34.0328 29.3184 34.7063 29.041C33.2008 27.5355 31.6755 26.0102 30.1699 24.5046C29.6153 23.95 29.0804 23.316 28.4861 22.8208C27.872 22.3256 27.0994 22.4642 26.3665 22.4642C23.8507 22.4642 21.3349 22.4642 18.819 22.4642C17.9672 22.4642 17.0758 22.5633 16.3428 22.0284C15.5901 21.4539 15.4514 20.6219 15.4514 19.7503C15.4514 15.0951 15.4514 10.4398 15.4514 5.78454C15.4514 5.21007 15.3722 4.53654 15.5703 3.98187C15.9268 2.95177 16.8579 2.47634 17.888 2.45653C19.6708 2.43672 21.4537 2.45653 23.2366 2.45653C27.9513 2.45653 32.6659 2.45653 37.3806 2.45653C38.906 2.41691 38.906 0.0397574 37.3806 0.0397574Z" fill="#334747"/>
<path d="M31.59 7L28 10.59L24.41 7L23 8.41L26.59 12L23 15.59L24.41 17L28 13.41L31.59 17L33 15.59L29.41 12L33 8.41L31.59 7Z" fill="#D41E45"/>
</g>
<defs>
<clipPath id="clip0_609_268">
<rect width="28.922" height="31.0219" fill="white" transform="translate(13.0743)"/>
</clipPath>
</defs>
</svg>
