<svg width="80" height="80" viewBox="0 0 80 80" fill="none" xmlns="http://www.w3.org/2000/svg">
<path d="M59.6191 9.06261C52.6461 9.06261 45.7128 9.06261 38.7398 9.06261C34.1836 9.06261 29.667 9.06261 25.1108 9.06261C22.6148 9.06261 19.6829 8.74565 17.3058 9.53804C13.9382 10.687 11.5214 13.6981 11.0856 17.2242C10.9667 18.175 11.0063 19.0863 11.0063 20.0371C11.0063 24.2368 11.0063 28.4364 11.0063 32.636C11.0063 37.1923 11.0063 41.7088 11.0063 46.2651C11.0063 50.1477 11.1252 53.8719 14.5324 56.5661C18.1378 59.4186 23.526 58.5866 27.8445 58.5866C31.9253 58.5866 36.0457 58.5866 40.1265 58.5866C39.5718 58.3489 39.0171 58.1112 38.4625 57.8735C42.6225 62.0335 46.7825 66.1935 50.9425 70.3535C52.4084 71.8194 54.9837 70.7497 54.9837 68.6895C54.9837 64.5295 54.9837 60.3695 54.9837 56.2095C54.1913 57.0019 53.3989 57.7942 52.6065 58.5866C56.9646 58.5866 61.9963 59.379 65.562 56.368C68.8504 53.6342 68.8504 49.8704 68.8504 46.0273C68.8504 37.3507 68.8504 28.7137 68.8504 20.0371C68.8504 18.5316 68.89 17.0657 68.4542 15.5998C67.226 11.6775 63.6603 9.22109 59.6191 9.06261C56.5684 8.94375 56.5684 13.6981 59.6191 13.8169C62.1547 13.8962 63.9772 15.7979 64.0961 18.3335C64.1357 19.0467 64.0961 19.7598 64.0961 20.4729C64.0961 24.1575 64.0961 27.8025 64.0961 31.4871C64.0961 35.6867 64.0961 39.8864 64.0961 44.086C64.0961 46.1462 64.5715 49.0384 63.7791 51.0194C62.1548 55.1001 56.0534 53.8719 52.6065 53.8719C51.3387 53.8719 50.2294 54.9417 50.2294 56.2491C50.2294 60.4091 50.2294 64.5691 50.2294 68.7292C51.5764 68.1745 52.9235 67.6198 54.2705 67.0651C51.2595 64.0541 48.2088 61.0034 45.1977 57.9923C44.0884 56.883 43.0187 55.6152 41.8301 54.6247C40.6019 53.6342 39.0567 53.9116 37.5908 53.9116C32.5592 53.9116 27.5276 53.9116 22.4959 53.9116C20.7923 53.9116 19.0094 54.1097 17.5435 53.0399C16.038 51.891 15.7606 50.227 15.7606 48.4837C15.7606 39.1732 15.7606 29.8627 15.7606 20.5522C15.7606 19.4032 15.6022 18.0562 15.9984 16.9468C16.7115 14.8866 18.5736 13.9358 20.6338 13.8962C24.1995 13.8565 27.7653 13.8962 31.331 13.8962C40.7604 13.8962 50.1897 13.8962 59.6191 13.8962C62.6698 13.8169 62.6698 9.06261 59.6191 9.06261Z" fill="#334747"/>
<g clip-path="url(#clip0_22_286)">
<path d="M59.6128 11.4564H20.2313C16.4675 11.4564 13.3772 14.5467 13.3772 18.3105V49.372C13.3772 53.1358 16.4675 56.2261 20.2313 56.2261H40.1202L52.6002 68.7062V56.2261H59.6128C63.3767 56.2261 66.467 53.1358 66.467 49.372V18.3105C66.467 14.5467 63.3767 11.4564 59.6128 11.4564Z" fill="white"/>
<path d="M59.6128 9.07945C52.6398 9.07945 45.7064 9.07945 38.7334 9.07945C34.1772 9.07945 29.6606 9.07945 25.1044 9.07945C22.6084 9.07945 19.6766 8.7625 17.2994 9.55488C13.9318 10.7038 11.515 13.7149 11.0792 17.241C10.9604 18.1919 11 19.1031 11 20.054C11 24.2536 11 28.4532 11 32.6529C11 37.2091 11 41.7257 11 46.2819C11 50.1646 11.1188 53.8888 14.5261 56.5829C18.1314 59.4355 23.5197 58.6035 27.8382 58.6035C31.9189 58.6035 36.0393 58.6035 40.1201 58.6035C39.5654 58.3657 39.0108 58.128 38.4561 57.8903C42.6161 62.0503 46.7761 66.2104 50.9362 70.3704C52.4021 71.8363 54.9773 70.7666 54.9773 68.7064C54.9773 64.5463 54.9773 60.3863 54.9773 56.2263C54.1849 57.0187 53.3925 57.8111 52.6002 58.6035C56.9583 58.6035 61.9899 59.3958 65.5556 56.3848C68.844 53.6511 68.844 49.8872 68.844 46.0442C68.844 37.3676 68.844 28.7306 68.844 20.054C68.844 18.5484 68.8837 17.0825 68.4479 15.6166C67.2197 11.6943 63.6539 9.23793 59.6128 9.07945C56.5621 8.9606 56.5621 13.7149 59.6128 13.8338C62.1484 13.913 63.9709 15.8147 64.0897 18.3503C64.1294 19.0635 64.0897 19.7766 64.0897 20.4898C64.0897 24.1744 64.0897 27.8193 64.0897 31.5039C64.0897 35.7036 64.0897 39.9032 64.0897 44.1028C64.0897 46.163 64.5652 49.0552 63.7728 51.0362C62.1484 55.117 56.047 53.8888 52.6002 53.8888C51.3324 53.8888 50.223 54.9585 50.223 56.2659C50.223 60.426 50.223 64.586 50.223 68.746C51.5701 68.1913 52.9171 67.6366 54.2642 67.082C51.2531 64.0709 48.2024 61.0202 45.1914 58.0092C44.082 56.8998 43.0123 55.632 41.8237 54.6415C40.5955 53.6511 39.0504 53.9284 37.5845 53.9284C32.5528 53.9284 27.5212 53.9284 22.4896 53.9284C20.7859 53.9284 19.0031 54.1265 17.5372 53.0568C16.0316 51.9078 15.7543 50.2438 15.7543 48.5006C15.7543 39.1901 15.7543 29.8795 15.7543 20.569C15.7543 19.4201 15.5958 18.073 15.992 16.9637C16.7052 14.9035 18.5673 13.9526 20.6275 13.913C24.1932 13.8734 27.7589 13.913 31.3246 13.913C40.754 13.913 50.1834 13.913 59.6128 13.913C62.6634 13.8338 62.6634 9.07945 59.6128 9.07945Z" fill="#334747"/>
</g>
<path d="M41.7628 25.0008C43.417 25.0008 45.0711 25.0143 46.7252 25.0008C48.3256 24.9738 49.509 25.6487 50.3428 26.9986C50.8942 27.8895 51.4993 28.7534 51.9969 29.6848C52.4004 30.4407 52.9652 30.9267 53.7586 31.2101C54.3638 31.4396 54.9555 31.7231 55.5203 32.02C56.5962 32.587 57.1476 33.5184 57.1879 34.7332C57.2148 35.4487 57.2014 36.1641 57.1879 36.8795C57.161 38.8233 55.9641 40.0787 54.0276 40.1327C53.5031 40.1462 53.2745 40.2947 53.0459 40.7806C52.36 42.2789 51.1362 43.0619 49.4821 43.0619C47.8549 43.0619 46.6445 42.2654 45.9856 40.7941C45.7435 40.2542 45.4611 40.1462 44.9501 40.1462C41.5073 40.1597 38.0646 40.1597 34.6218 40.1462C34.1512 40.1462 33.8956 40.2542 33.6805 40.7401C32.9946 42.2654 31.7708 43.0754 30.0898 43.0619C28.4357 43.0484 27.2388 42.2385 26.5798 40.7266C26.3781 40.2812 26.136 40.1597 25.6922 40.1192C24.0785 39.9842 22.9354 38.7828 22.8681 37.1765C22.8412 36.5016 22.8547 35.8401 22.8547 35.1652C22.8816 33.6129 23.7288 32.479 25.2216 32.0605C26.7009 31.6421 28.1936 31.2641 29.6729 30.8187C30.0629 30.6972 30.4798 30.4407 30.7353 30.1167C31.6229 29.0234 32.4701 27.8895 33.3039 26.7691C34.1781 25.5947 35.3212 25.0008 36.8005 25.0143C38.4546 25.0143 40.1087 25.0008 41.7628 25.0008ZM53.4493 38.6748C55.0362 38.8773 55.7624 38.2429 55.7624 36.65C55.7624 36.0426 55.7624 35.4352 55.7624 34.8412C55.7624 34.0313 55.3859 33.4914 54.6596 33.1539C53.8528 32.7895 53.019 32.4385 52.239 32.02C51.9028 31.8446 51.5666 31.5611 51.3648 31.2506C50.5848 30.0762 49.8586 28.8749 49.119 27.6735C48.5811 26.7961 47.8011 26.3776 46.779 26.3776C43.4708 26.3776 40.1625 26.3776 36.8542 26.3776C35.8456 26.3776 35.0387 26.7421 34.4336 27.5655C33.4922 28.8344 32.5374 30.1032 31.5422 31.3451C31.3136 31.6286 30.937 31.885 30.5874 31.993C28.9467 32.479 27.306 32.9109 25.6788 33.3564C24.9257 33.5589 24.3609 33.9773 24.2936 34.8007C24.2398 35.6242 24.2264 36.4611 24.3071 37.2845C24.4012 38.2834 25.1812 38.7963 26.2033 38.6748C26.9833 36.3531 28.1667 35.2327 30.0226 35.2867C30.7891 35.3002 31.6095 35.5837 32.2819 35.9481C33.3443 36.5151 33.815 37.5679 34.0301 38.7153C37.9301 38.7153 41.7628 38.7153 45.5956 38.7153C46.1469 36.5556 47.4783 35.3407 49.3476 35.2597C51.3111 35.1652 52.6021 36.2451 53.4493 38.6748ZM27.6557 39.1203C27.6422 40.5241 28.7719 41.658 30.1436 41.6445C31.4884 41.631 32.6181 40.5106 32.6315 39.1743C32.645 37.7974 31.5153 36.6635 30.1302 36.6635C28.745 36.6635 27.6691 37.7434 27.6557 39.1203ZM51.9835 39.1203C51.97 37.7434 50.8807 36.6635 49.5224 36.6635C48.1373 36.6635 46.9942 37.7974 47.0211 39.1743C47.0345 40.5106 48.1776 41.6445 49.509 41.6445C50.8807 41.658 51.9969 40.5241 51.9835 39.1203Z" fill="#D41E45"/>
<path d="M53.4494 38.6748C52.6021 36.2451 51.2976 35.1652 49.3611 35.2462C47.4918 35.3272 46.1604 36.5421 45.6091 38.7018C41.7763 38.7018 37.9436 38.7018 34.0436 38.7018C33.8285 37.568 33.3443 36.5016 32.2954 35.9346C31.6095 35.5702 30.7892 35.3002 30.0361 35.2732C28.1668 35.2192 26.9968 36.3396 26.2168 38.6613C25.1947 38.7828 24.4147 38.2699 24.3206 37.271C24.2399 36.4476 24.2533 35.6107 24.3071 34.7872C24.3609 33.9638 24.9258 33.5454 25.6923 33.3429C27.333 32.8974 28.9737 32.4655 30.6009 31.9795C30.9505 31.8716 31.3271 31.6286 31.5557 31.3316C32.5509 30.0897 33.5057 28.8209 34.4471 27.552C35.0522 26.7286 35.8591 26.3641 36.8677 26.3641C40.176 26.3776 43.4843 26.3641 46.7925 26.3641C47.8146 26.3641 48.5946 26.7826 49.1325 27.66C49.8721 28.8614 50.5983 30.0627 51.3783 31.2371C51.5935 31.5476 51.9163 31.8311 52.2525 32.0065C53.0459 32.425 53.8663 32.7625 54.6731 33.1404C55.3993 33.4644 55.7759 34.0178 55.7759 34.8277C55.7759 35.4352 55.7759 36.0426 55.7759 36.6365C55.7624 38.2429 55.0362 38.8773 53.4494 38.6748Z" fill="#D41E45"/>
<defs>
<clipPath id="clip0_22_286">
<rect width="57.8441" height="62.0437" fill="white" transform="translate(11 9)"/>
</clipPath>
</defs>
</svg>
