<svg width="26" height="42" viewBox="0 0 26 42" fill="none" xmlns="http://www.w3.org/2000/svg">
<path d="M22.0203 22.6531C24.4281 20.2453 25.7578 17.0379 25.7578 13.6328C25.7578 10.2232 24.4326 7.02031 22.0203 4.6125C19.6125 2.20469 16.4051 0.875 13 0.875C9.59492 0.875 6.3875 2.2002 3.97969 4.6125C1.57188 7.0248 0.242188 10.2232 0.242188 13.6328C0.242188 16.4988 1.18105 19.2211 2.91055 21.4447C3.23848 21.867 3.59336 22.2668 3.9752 22.6531C4.35703 23.035 4.76133 23.3898 5.1791 23.7178C6.95801 25.1014 9.05586 25.9818 11.293 26.2783V31.0625H6.17188C5.97422 31.0625 5.8125 31.2242 5.8125 31.4219V34.1172C5.8125 34.3148 5.97422 34.4766 6.17188 34.4766H11.293V40.7656C11.293 40.9633 11.4547 41.125 11.6523 41.125H14.3477C14.5453 41.125 14.707 40.9633 14.707 40.7656V34.4766H19.8281C20.0258 34.4766 20.1875 34.3148 20.1875 34.1172V31.4219C20.1875 31.2242 20.0258 31.0625 19.8281 31.0625H14.707V26.2783C17.4697 25.91 20.0168 24.6566 22.0203 22.6531ZM13 22.9766C10.5023 22.9766 8.16191 22.0063 6.39199 20.2408C4.62656 18.4754 3.65625 16.1305 3.65625 13.6328C3.65625 11.1352 4.62656 8.79473 6.39199 7.0248C8.15742 5.25488 10.5023 4.28906 13 4.28906C15.4977 4.28906 17.8381 5.25937 19.608 7.0248C21.3734 8.79023 22.3438 11.1352 22.3438 13.6328C22.3438 16.1305 21.3734 18.4709 19.608 20.2408C17.8381 22.0063 15.4977 22.9766 13 22.9766Z" fill="black"/>
</svg>
