<svg width="34" height="34" viewBox="0 0 34 34" fill="none" xmlns="http://www.w3.org/2000/svg">
<path fill-rule="evenodd" clip-rule="evenodd" d="M20.5625 2.75C20.2476 2.75 19.9455 2.62489 19.7228 2.40219C19.5001 2.17949 19.375 1.87744 19.375 1.5625C19.375 1.24756 19.5001 0.94551 19.7228 0.722811C19.9455 0.500111 20.2476 0.375 20.5625 0.375H32.4375C32.7525 0.375 33.0545 0.500111 33.2772 0.722811C33.4999 0.94551 33.625 1.24756 33.625 1.5625V13.4375C33.625 13.7524 33.4999 14.0545 33.2772 14.2772C33.0545 14.4999 32.7525 14.625 32.4375 14.625C32.1226 14.625 31.8205 14.4999 31.5978 14.2772C31.3751 14.0545 31.25 13.7524 31.25 13.4375V4.42913L21.4436 14.2355C23.3717 16.5943 24.3194 19.6039 24.0908 22.6419C23.8622 25.6798 22.4747 28.5137 20.2153 30.5574C17.956 32.6011 14.9976 33.6983 11.952 33.622C8.90639 33.5458 6.00661 32.3019 3.85238 30.1476C1.69815 27.9934 0.454265 25.0936 0.377994 22.048C0.301722 19.0025 1.3989 16.0441 3.4426 13.7847C5.4863 11.5253 8.32018 10.1379 11.3581 9.90924C14.3961 9.68061 17.4057 10.6283 19.7645 12.5564L29.5709 2.75H20.5625ZM12.25 12.25C9.73047 12.25 7.31411 13.2509 5.53251 15.0325C3.75091 16.8141 2.75002 19.2304 2.75002 21.75C2.75002 24.2696 3.75091 26.6859 5.53251 28.4675C7.31411 30.2491 9.73047 31.25 12.25 31.25C14.7696 31.25 17.1859 30.2491 18.9675 28.4675C20.7491 26.6859 21.75 24.2696 21.75 21.75C21.75 19.2304 20.7491 16.8141 18.9675 15.0325C17.1859 13.2509 14.7696 12.25 12.25 12.25V12.25Z" fill="black"/>
</svg>
