<svg xmlns="http://www.w3.org/2000/svg" width="340" height="82" fill="none" viewBox="0 0 340 82">
  <g class="upDel">
    <g class="up">
      <path fill="#D41E45" d="M0 8a8 8 0 0 1 8-8h324a8 8 0 0 1 8 8v66a8 8 0 0 1-8 8H8a8 8 0 0 1-8-8V8Z" class="Rectangle 2"/>
      <path fill="#fff" d="M51.38 48H42.1c-.253 0-.44-.053-.56-.16-.107-.12-.16-.307-.16-.56V34.32c0-.253.053-.433.16-.54.12-.12.307-.18.56-.18h9.28c.253 0 .433.06.54.18.12.107.18.287.18.54v2.34c0 .253-.06.44-.18.56-.107.107-.287.16-.54.16h-5.52v1.54h3.9c.253 0 .433.06.54.18.12.107.18.287.18.54v2.14c0 .253-.06.44-.18.56-.107.107-.287.16-.54.16h-3.9v1.72h5.52c.253 0 .433.06.54.18.12.107.18.287.18.54v2.34c0 .253-.06.44-.18.56-.107.107-.287.16-.54.16Zm10.546 0h-6.74c-.253 0-.44-.053-.56-.16-.107-.12-.16-.307-.16-.56V34.32c0-.253.053-.433.16-.54.12-.12.307-.18.56-.18h6.74c1.667 0 2.9.333 3.7 1 .813.667 1.22 1.693 1.22 3.08v6.24c0 1.387-.407 2.413-1.22 3.08-.8.667-2.033 1-3.7 1Zm-2.92-10.58v6.8h2.38c.32 0 .553-.08.7-.24.16-.16.24-.407.24-.74v-4.86c0-.333-.08-.573-.24-.72-.147-.16-.38-.24-.7-.24h-2.38ZM69.788 48c-.254 0-.44-.053-.56-.16-.107-.12-.16-.307-.16-.56V44.9c0-.253.053-.433.16-.54.12-.12.306-.18.56-.18h1.98v-6.72h-1.98c-.254 0-.44-.053-.56-.16-.107-.12-.16-.307-.16-.56v-2.42c0-.253.053-.433.16-.54.12-.12.306-.18.56-.18h8.52c.253 0 .433.06.54.18.12.107.18.287.18.54v2.42c0 .253-.06.44-.18.56-.107.107-.287.16-.54.16h-1.94v6.72h1.94c.253 0 .433.06.54.18.12.107.18.287.18.54v2.38c0 .253-.06.44-.18.56-.107.107-.287.16-.54.16h-8.52Zm18.51 0h-3.24c-.254 0-.44-.053-.56-.16-.108-.12-.16-.307-.16-.56v-9.82h-2.94c-.254 0-.44-.053-.56-.16-.107-.12-.16-.307-.16-.56v-2.42c0-.253.053-.433.16-.54.12-.12.306-.18.56-.18h10.56c.252 0 .433.06.54.18.12.107.18.287.18.54v2.42c0 .253-.06.44-.18.56-.108.107-.288.16-.54.16h-2.94v9.82c0 .253-.06.44-.18.56-.107.107-.287.16-.54.16Zm16.324 0h-9.28c-.253 0-.44-.053-.56-.16-.106-.12-.16-.307-.16-.56V34.32c0-.253.053-.433.16-.54.12-.12.307-.18.56-.18h9.28c.254 0 .434.06.54.18.12.107.18.287.18.54v2.34c0 .253-.06.44-.18.56-.106.107-.286.16-.54.16h-5.52v1.54h3.9c.254 0 .434.06.54.18.12.107.18.287.18.54v2.14c0 .253-.06.44-.18.56-.106.107-.286.16-.54.16h-3.9v1.72h5.52c.254 0 .434.06.54.18.12.107.18.287.18.54v2.34c0 .253-.06.44-.18.56-.106.107-.286.16-.54.16Zm7.606-10.8v2.56h1.5c.347 0 .58-.087.7-.26.12-.187.18-.413.18-.68v-.68c0-.267-.06-.487-.18-.66-.12-.187-.353-.28-.7-.28h-1.5Zm-.72 10.8h-3.08c-.253 0-.44-.053-.56-.16-.107-.12-.16-.307-.16-.56V34.32c0-.253.053-.433.16-.54.12-.12.307-.18.56-.18h6.66c1.493 0 2.52.313 3.08.94.573.613.86 1.413.86 2.4v.92c0 .56-.087 1.04-.26 1.44-.16.387-.447.667-.86.84.72.08 1.3.373 1.74.88.453.507.68 1.18.68 2.02v4.24c0 .253-.06.44-.18.56-.107.107-.287.16-.54.16h-3.1c-.253 0-.44-.053-.56-.16-.107-.12-.16-.307-.16-.56v-3.06c0-.293-.06-.507-.18-.64-.107-.147-.3-.22-.58-.22h-2.8v3.92c0 .253-.06.44-.18.56-.107.107-.287.16-.54.16Z" class="Editer"/>
    </g>
    <g class="del">
      <path fill="#000" d="M171 0h161a8 8 0 0 1 8 8v66a8 8 0 0 1-8 8H171V0Z" class="Rectangle 7"/>
      <path fill="#fff" d="M200.06 48h-6.32c-.253 0-.44-.053-.56-.16-.107-.12-.16-.307-.16-.56v-2.34c0-.253.053-.433.16-.54.12-.12.307-.18.56-.18h5.38c.173 0 .3-.053.38-.16.093-.12.14-.26.14-.42 0-.227-.047-.393-.14-.5-.08-.107-.207-.167-.38-.18l-3-.42c-.933-.133-1.687-.44-2.26-.92-.56-.48-.84-1.28-.84-2.4v-2.1c0-1.133.367-2 1.1-2.6.733-.613 1.747-.92 3.04-.92h5.6c.253 0 .433.06.54.18.12.107.18.287.18.54v2.38c0 .253-.06.44-.18.56-.107.107-.287.16-.54.16h-4.66a.477.477 0 0 0-.4.18.616.616 0 0 0-.14.42c0 .173.047.32.14.44.093.12.227.187.4.2l2.98.4c.933.133 1.687.44 2.26.92.573.48.86 1.28.86 2.4v2.1c0 1.133-.373 2.007-1.12 2.62-.733.6-1.74.9-3.02.9Zm18.588-3.78c0 .613-.094 1.173-.28 1.68-.174.493-.494.92-.96 1.28-.454.347-1.08.62-1.88.82-.8.2-1.82.3-3.06.3s-2.26-.1-3.06-.3c-.8-.2-1.434-.473-1.9-.82a2.952 2.952 0 0 1-.96-1.28 5.146 5.146 0 0 1-.26-1.68v-9.9c0-.253.053-.433.16-.54.12-.12.306-.18.56-.18h3.14c.253 0 .433.06.54.18.12.107.18.287.18.54v9.12c0 .267.1.493.3.68.2.173.646.26 1.34.26.706 0 1.16-.087 1.36-.26.2-.187.3-.413.3-.68v-9.12c0-.253.053-.433.16-.54.12-.12.306-.18.56-.18h3.04c.253 0 .433.06.54.18.12.107.18.287.18.54v9.9ZM225.13 48h-3.1c-.254 0-.44-.053-.56-.16-.107-.12-.16-.307-.16-.56V34.32c0-.253.053-.433.16-.54.12-.12.306-.18.56-.18h6.12c1.813 0 3.053.36 3.72 1.08.666.72 1 1.66 1 2.82v2.56c0 1.16-.334 2.1-1 2.82-.667.72-1.907 1.08-3.72 1.08h-2.3v3.32c0 .253-.06.44-.18.56-.107.107-.287.16-.54.16Zm.68-10.66v3.02h1.8c.386 0 .64-.1.76-.3.12-.2.18-.427.18-.68v-1.06c0-.253-.06-.48-.18-.68-.12-.2-.374-.3-.76-.3h-1.8ZM238.763 48h-3.1c-.254 0-.44-.053-.56-.16-.107-.12-.16-.307-.16-.56V34.32c0-.253.053-.433.16-.54.12-.12.306-.18.56-.18h6.12c1.813 0 3.053.36 3.72 1.08.666.72 1 1.66 1 2.82v2.56c0 1.16-.334 2.1-1 2.82-.667.72-1.907 1.08-3.72 1.08h-2.3v3.32c0 .253-.06.44-.18.56-.107.107-.287.16-.54.16Zm.679-10.66v3.02h1.801c.386 0 .64-.1.76-.3.12-.2.18-.427.18-.68v-1.06c0-.253-.06-.48-.18-.68-.12-.2-.374-.3-.76-.3h-1.801Zm13.653-.14v2.56h1.5c.347 0 .58-.087.7-.26.12-.187.18-.413.18-.68v-.68c0-.267-.06-.487-.18-.66-.12-.187-.353-.28-.7-.28h-1.5Zm-.72 10.8h-3.08c-.253 0-.44-.053-.56-.16-.106-.12-.16-.307-.16-.56V34.32c0-.253.054-.433.16-.54.12-.12.307-.18.56-.18h6.66c1.494 0 2.52.313 3.08.94.574.613.86 1.413.86 2.4v.92c0 .56-.086 1.04-.26 1.44-.16.387-.446.667-.86.84.72.08 1.3.373 1.74.88.454.507.68 1.18.68 2.02v4.24c0 .253-.06.44-.18.56-.106.107-.286.16-.54.16h-3.1c-.253 0-.44-.053-.56-.16-.106-.12-.16-.307-.16-.56v-3.06c0-.293-.06-.507-.18-.64-.106-.147-.3-.22-.58-.22h-2.8v3.92c0 .253-.06.44-.18.56-.106.107-.286.16-.54.16Zm11.464 0c-.254 0-.44-.053-.56-.16-.107-.12-.16-.307-.16-.56V44.9c0-.253.053-.433.16-.54.12-.12.306-.18.56-.18h1.98v-6.72h-1.98c-.254 0-.44-.053-.56-.16-.107-.12-.16-.307-.16-.56v-2.42c0-.253.053-.433.16-.54.12-.12.306-.18.56-.18h8.52c.253 0 .433.06.54.18.12.107.18.287.18.54v2.42c0 .253-.06.44-.18.56-.107.107-.287.16-.54.16h-1.94v6.72h1.94c.253 0 .433.06.54.18.12.107.18.287.18.54v2.38c0 .253-.06.44-.18.56-.107.107-.287.16-.54.16h-8.52Zm15.409 0h-2.98c-.253 0-.44-.053-.56-.16-.107-.12-.16-.307-.16-.56V34.32c0-.253.053-.433.16-.54.12-.12.307-.18.56-.18h3.22a.89.89 0 0 1 .52.14c.147.093.28.247.4.46l1.8 3.26c.067.12.12.207.16.26.053.053.12.08.2.08h.18c.08 0 .14-.027.18-.08a1.23 1.23 0 0 0 .18-.26l1.78-3.26c.12-.213.247-.367.38-.46a.988.988 0 0 1 .54-.14h3.24c.253 0 .433.06.54.18.12.107.18.287.18.54v12.96c0 .253-.06.44-.18.56-.107.107-.287.16-.54.16h-3.08c-.253 0-.44-.053-.56-.16-.107-.12-.16-.307-.16-.56v-7.04l-1.18 2.18a1.26 1.26 0 0 1-.44.5c-.16.093-.367.14-.62.14h-.8a1.34 1.34 0 0 1-.64-.14c-.16-.107-.3-.273-.42-.5l-1.18-2.18v7.04c0 .253-.06.44-.18.56-.107.107-.287.16-.54.16Zm23.273 0h-9.28c-.254 0-.44-.053-.56-.16-.107-.12-.16-.307-.16-.56V34.32c0-.253.053-.433.16-.54.12-.12.306-.18.56-.18h9.28c.253 0 .433.06.54.18.12.107.18.287.18.54v2.34c0 .253-.06.44-.18.56-.107.107-.287.16-.54.16h-5.52v1.54h3.9c.253 0 .433.06.54.18.12.107.18.287.18.54v2.14c0 .253-.06.44-.18.56-.107.107-.287.16-.54.16h-3.9v1.72h5.52c.253 0 .433.06.54.18.12.107.18.287.18.54v2.34c0 .253-.06.44-.18.56-.107.107-.287.16-.54.16Zm7.606-10.8v2.56h1.5c.346 0 .58-.087.7-.26.12-.187.18-.413.18-.68v-.68c0-.267-.06-.487-.18-.66-.12-.187-.354-.28-.7-.28h-1.5Zm-.72 10.8h-3.08c-.254 0-.44-.053-.56-.16-.107-.12-.16-.307-.16-.56V34.32c0-.253.053-.433.16-.54.12-.12.306-.18.56-.18h6.66c1.493 0 2.52.313 3.08.94.573.613.86 1.413.86 2.4v.92c0 .56-.087 1.04-.26 1.44-.16.387-.447.667-.86.84.72.08 1.3.373 1.74.88.453.507.68 1.18.68 2.02v4.24c0 .253-.06.44-.18.56-.107.107-.287.16-.54.16h-3.1c-.254 0-.44-.053-.56-.16-.107-.12-.16-.307-.16-.56v-3.06c0-.293-.06-.507-.18-.64-.107-.147-.3-.22-.58-.22h-2.8v3.92c0 .253-.06.44-.18.56-.107.107-.287.16-.54.16Z" class="Supprimer"/>
    </g>
  </g>
</svg>
