<svg width="1203" height="1343" viewBox="0 0 1203 1343" fill="none" xmlns="http://www.w3.org/2000/svg">
<g clip-path="url(#clip0_45_681)">
<g opacity="0.1">
<path d="M52.2517 111.285C117.688 45.8806 380.412 1.46428 392.132 0L585.512 10.738L487.357 5.36901L586 10.738C583.07 11.2261 262.235 67.8448 406.293 168.392C476.125 217.201 566.467 266.986 661.692 319.212C878.023 438.307 1108.03 482.723 1196.91 658.924C1205.21 675.52 1202.28 826.828 1201.3 867.34C1198.86 997.66 1116.33 1152.39 907.812 1343.23L0 1050.86C611.393 745.805 464.893 579.365 214.378 341.176C154.313 284.07 98.155 230.38 62.5067 177.666C55.67 167.904 52.2517 158.63 51.7633 149.356C50.2983 136.666 50.7867 112.749 52.2517 111.285Z" fill="url(#paint0_linear_45_681)"/>
<path d="M63.4833 92.7375C121.107 33.6783 380.412 1.46428 392.132 0L585.512 8.78564L487.357 4.39284L586 8.78564C583.07 9.27373 262.235 55.1544 406.293 137.154C476.125 177.177 566.467 217.689 661.692 260.153C1055.29 436.842 1514.32 642.817 907.812 1095.77L0 858.066C611.393 609.139 464.893 473.449 214.378 278.701C154.313 231.844 98.155 188.404 62.5067 144.963C45.9033 124.952 48.8333 107.868 63.4833 92.7375Z" fill="url(#paint1_linear_45_681)"/>
<path d="M315.952 93.2256C321.812 66.3805 372.11 46.3687 418.502 33.1902C483.45 14.6427 560.607 4.39279 561.095 4.39279L567.443 4.88088C564.513 5.36897 218.773 53.202 361.855 141.547C429.245 183.034 516.657 225.01 609.928 269.427C991.805 452.461 1348.78 622.806 807.215 969.839L774.985 962.03C1318.99 621.829 970.318 452.461 595.767 270.403C503.472 225.499 417.037 183.523 350.623 142.035C322.3 122.999 313.022 106.892 315.952 93.2256Z" fill="url(#paint2_linear_45_681)"/>
<path d="M104.992 93.2256C127.455 66.3805 190.938 46.3687 245.632 33.1902C322.3 14.6427 405.805 4.39279 406.782 4.39279L413.13 4.88088C409.712 5.36897 33.695 53.202 121.107 141.547C162.127 183.034 223.168 225.01 288.117 269.427C554.258 451.973 802.82 622.317 41.5083 969.351L14.1616 961.542C774.008 621.341 532.772 451.973 273.467 269.915C209.495 225.01 149.918 183.034 109.875 141.547C92.295 122.999 93.2716 106.892 104.992 93.2256Z" fill="url(#paint3_linear_45_681)"/>
<path d="M468.312 6.34512C478.078 4.88085 483.938 3.90466 483.938 3.90466L490.287 4.39279C490.287 4.39279 484.427 5.36894 474.66 6.34512H468.312Z" fill="url(#paint4_linear_45_681)"/>
<path d="M209.983 92.7374H220.238C218.773 95.666 217.797 99.0826 217.308 102.499H207.053C207.542 99.5707 208.518 96.1541 209.983 92.7374ZM216.82 83.9518C219.75 81.0233 222.68 78.0947 226.587 75.1662H235.865C231.958 78.0947 229.028 81.0233 226.587 83.9518H216.82ZM208.03 112.749H218.773C219.75 116.166 221.703 120.071 224.145 123.487H212.913C210.472 120.071 209.007 116.166 208.03 112.749ZM238.795 66.8686C243.19 64.4282 248.562 61.4996 253.933 59.0591H262.723C257.352 61.4996 252.468 63.9401 248.073 66.8686H238.795ZM223.168 135.202H234.4C236.842 137.154 238.795 139.106 241.725 141.059C244.167 143.011 247.097 144.963 249.538 146.916L237.818 147.404C235.377 145.451 232.447 143.499 230.005 141.547C227.563 139.106 225.122 137.154 223.168 135.202ZM271.025 52.2258C276.885 49.7854 283.722 47.3449 290.07 45.3925H298.372C291.535 47.833 285.187 49.7854 279.327 52.2258H271.025ZM255.398 160.094L267.118 159.606C273.467 163.999 280.303 168.88 287.14 173.273L274.932 173.761C268.583 168.88 261.747 164.487 255.398 160.094ZM311.557 38.5593C318.882 36.6069 326.207 34.1664 334.02 32.214H341.833C334.02 34.1664 326.695 36.1188 319.37 38.5593H311.557ZM297.395 188.404L310.092 187.915C318.393 193.284 326.695 198.165 335.485 203.534L322.3 204.022C313.998 198.653 305.697 193.284 297.395 188.404ZM358.437 26.3569C366.738 24.4046 375.04 22.4522 383.83 20.9879H391.155C382.365 22.9403 374.063 24.4046 365.762 26.3569H358.437ZM350.135 220.618L363.808 220.13C374.063 225.987 384.318 232.332 395.062 238.189L380.9 238.677C370.645 232.82 360.39 226.475 350.135 220.618ZM414.595 258.201L429.245 257.713L466.847 278.701L451.708 279.189L414.595 258.201ZM410.688 15.6189C419.967 13.6665 429.245 12.2023 439.012 10.738L445.848 11.2261C436.57 12.6903 427.292 14.6427 418.013 16.107L410.688 15.6189ZM491.752 302.617L507.378 302.129C522.028 310.427 536.678 318.724 550.84 327.51L534.237 327.998C520.075 319.212 505.913 310.915 491.752 302.617ZM623.113 823.9C661.203 796.078 692.457 769.233 716.385 743.852L745.197 747.269C721.268 773.138 690.503 800.471 652.413 828.781L623.113 823.9ZM579.163 355.331L596.743 354.355C613.835 365.093 629.462 375.343 644.112 385.105L625.555 385.593C611.393 376.319 595.767 366.069 579.163 355.331ZM769.125 672.103C780.357 650.627 786.217 629.151 787.682 608.163L813.563 609.139C813.075 630.127 807.215 651.603 796.96 674.055L769.125 672.103ZM671.947 420.735L691.48 420.247C708.083 433.426 723.222 446.116 736.407 458.807L715.408 459.295C702.712 446.604 688.062 433.426 671.947 420.735ZM753.498 502.735L775.962 502.247C788.17 518.842 797.448 535.437 803.797 552.032H779.868C773.52 535.437 764.73 518.842 753.498 502.735Z" fill="url(#paint5_linear_45_681)"/>
<path d="M394.573 961.541C426.315 944.946 455.615 928.839 482.473 913.708L512.75 920.542C485.892 936.161 456.592 952.756 424.85 969.351L394.573 961.541Z" fill="url(#paint6_linear_45_681)"/>
</g>
</g>
<defs>
<linearGradient id="paint0_linear_45_681" x1="601.24" y1="351.21" x2="601.24" y2="31.7987" gradientUnits="userSpaceOnUse">
<stop stop-color="#808080"/>
<stop offset="0.2074" stop-color="#838484"/>
<stop offset="0.4033" stop-color="#8C8F8F"/>
<stop offset="0.5945" stop-color="#9BA2A2"/>
<stop offset="0.7829" stop-color="#AFBCBD"/>
<stop offset="0.9675" stop-color="#CADDDF"/>
<stop offset="1" stop-color="#CFE4E6"/>
</linearGradient>
<linearGradient id="paint1_linear_45_681" x1="600.696" y1="286.658" x2="600.696" y2="25.9299" gradientUnits="userSpaceOnUse">
<stop stop-color="#262626"/>
<stop offset="0.1535" stop-color="#292A2A"/>
<stop offset="0.2985" stop-color="#333535"/>
<stop offset="0.4401" stop-color="#444848"/>
<stop offset="0.5797" stop-color="#5C6263"/>
<stop offset="0.7177" stop-color="#7A8586"/>
<stop offset="0.8546" stop-color="#A0AFB0"/>
<stop offset="0.9882" stop-color="#CBDFE1"/>
<stop offset="1" stop-color="#CFE4E6"/>
</linearGradient>
<linearGradient id="paint2_linear_45_681" x1="699.792" y1="322.065" x2="699.792" y2="-9.82925" gradientUnits="userSpaceOnUse">
<stop stop-color="white"/>
<stop offset="0.297" stop-color="#FBFDFD"/>
<stop offset="0.5773" stop-color="#F0F6F7"/>
<stop offset="0.85" stop-color="#DDECED"/>
<stop offset="1" stop-color="#CFE4E6"/>
</linearGradient>
<linearGradient id="paint3_linear_45_681" x1="282.022" y1="322.065" x2="282.022" y2="-9.82924" gradientUnits="userSpaceOnUse">
<stop stop-color="white"/>
<stop offset="0.297" stop-color="#FBFDFD"/>
<stop offset="0.5773" stop-color="#F0F6F7"/>
<stop offset="0.85" stop-color="#DDECED"/>
<stop offset="1" stop-color="#CFE4E6"/>
</linearGradient>
<linearGradient id="paint4_linear_45_681" x1="479.35" y1="322.067" x2="479.35" y2="-9.82928" gradientUnits="userSpaceOnUse">
<stop stop-color="white"/>
<stop offset="0.297" stop-color="#FBFDFD"/>
<stop offset="0.5773" stop-color="#F0F6F7"/>
<stop offset="0.85" stop-color="#DDECED"/>
<stop offset="1" stop-color="#CFE4E6"/>
</linearGradient>
<linearGradient id="paint5_linear_45_681" x1="510.256" y1="322.065" x2="510.256" y2="-9.82926" gradientUnits="userSpaceOnUse">
<stop stop-color="white"/>
<stop offset="0.297" stop-color="#FBFDFD"/>
<stop offset="0.5773" stop-color="#F0F6F7"/>
<stop offset="0.85" stop-color="#DDECED"/>
<stop offset="1" stop-color="#CFE4E6"/>
</linearGradient>
<linearGradient id="paint6_linear_45_681" x1="453.541" y1="322.069" x2="453.541" y2="-9.82492" gradientUnits="userSpaceOnUse">
<stop stop-color="white"/>
<stop offset="0.297" stop-color="#FBFDFD"/>
<stop offset="0.5773" stop-color="#F0F6F7"/>
<stop offset="0.85" stop-color="#DDECED"/>
<stop offset="1" stop-color="#CFE4E6"/>
</linearGradient>
<clipPath id="clip0_45_681">
<rect width="1203" height="1343" fill="white"/>
</clipPath>
</defs>
</svg>
