<svg xmlns="http://www.w3.org/2000/svg" width="369" height="262" fill="none" viewBox="0 0 369 262">
  <g class="Frame" clip-path="url(#a)">
    <g class="Group">
      <g class="Group">
        <g class="Group">
          <path fill="#BCECF7"
            d="m279.81 86.365-1.367 87.135-5.999 46.902-13.211-.132-4.455-.066-21.217-.22-1.786-28.59-2.559-99.9 50.594-5.13Z"
            class="Vector" />
        </g>
        <g class="Group">
          <path fill="#BCECF7"
            d="M333.999 220.908h-10.035l-28.738-.264.397-39.507.993-88.763 33.92 8.099 2.272 80.664 1.191 39.771Z"
            class="Vector" />
        </g>
        <g class="Group">
          <path fill="#BCECF7" d="M226.636 150.214v69.572l-17.997-.242-35.994-.462-2.58-80.555 56.571 11.687Z"
            class="Vector" />
        </g>
        <g class="Group">
          <path fill="#BCECF7"
            d="m188.657 219.302-14.644-.176-14.27-.176-6.484-.088.353-44.878.904-111.17 31.01 12.194 2.051 98.976 1.08 45.318Z"
            class="Vector" />
        </g>
        <g class="Group">
          <path fill="#BCECF7"
            d="m219.336 92.374-.022.264-.905 127.038-1.521-.022-8.249-.11-5.271-.088-8.646-.11.596-55.508.706-64.091 23.312-7.373Z"
            class="Vector" />
        </g>
        <g class="Group">
          <path fill="#fff" d="m317.877 120.325-3.507-.506-.198-6.867 3.705-.242v7.615Z" class="Vector" />
        </g>
        <g class="Group">
          <path fill="#fff" d="m306.717 107.802-3.507-.484-.198-6.867 3.705-.242v7.593Z" class="Vector" />
        </g>
        <g class="Group">
          <path fill="#fff" d="m267.989 151.293-3.507-.595-.198-8.121 3.705-.286v9.002Z" class="Vector" />
        </g>
        <g class="Group">
          <path fill="#fff" d="m166.779 89.424-3.507-.594-.176-8.121 3.683-.309v9.024Z" class="Vector" />
        </g>
        <g class="Group">
          <path fill="#fff" d="m214.506 110.267-3.507-.594-.199-8.122 3.706-.308v9.024Z" class="Vector" />
        </g>
        <g class="Group">
          <path fill="#fff" d="m238.634 128.997-3.507-.594-.176-8.122 3.683-.286v9.002Z" class="Vector" />
        </g>
      </g>
      <g class="Group">
        <path fill="#DCF6F9"
          d="M184.511 262c101.903 0 184.511-11.165 184.511-24.937 0-13.772-82.608-24.936-184.511-24.936C82.608 212.127 0 223.291 0 237.063S82.608 262 184.511 262Z"
          class="Vector" />
      </g>
      <g class="Group">
        <path fill="#DCF6F9"
          d="M320.545 15.429s-2.426-6.053-8.535-5.283c-6.109.749-5.381 6.823-8.314 6.251-2.912-.572-6.992 0-7.874 3.786-.882 3.785-4.808 1.694-4.962 4.93-.155 3.213 4.521 5.48 9.902 2.64 5.382-2.838 8.006 2.202 15.593 1.3 7.587-.925 8.513-2.047 12.99-1.475 4.477.572 4.389-3.412 2.338-6.075-2.007-2.663-10.255-2.399-11.138-6.074Z"
          class="nuage3" />
      </g>
      <g class="nuage">
        <path fill="#DCF6F9"
          d="M190.047 9.354S185.812-1.188 175.138.132c-10.697 1.32-9.418 11.907-14.512 10.917-5.095-.99-12.219 0-13.741 6.603-1.521 6.602-8.402 2.97-8.645 8.583-.265 5.613 7.896 9.574 17.313 4.622 9.417-4.952 14.005 3.852 27.238 2.267 13.233-1.585 14.865-3.587 22.694-2.597 7.83.99 7.653-5.965 4.08-10.608-3.573-4.623-17.996-4.182-19.518-10.565Z"
          class="nuage1" />
      </g>
      <g class="Group" opacity=".6">
        <path fill="#DCF6F9"
          d="M236.869 43.072s-3.154-6.052-11.137-5.304c-7.984.748-7.036 6.823-10.829 6.25-3.794-.571-9.131 0-10.256 3.786-1.147 3.786-6.263 1.717-6.462 4.93-.198 3.214 5.889 5.503 12.924 2.664 7.036-2.84 10.454 2.2 20.335 1.298 9.88-.924 11.093-2.047 16.96-1.474 5.845.572 5.712-3.434 3.044-6.075-2.669-2.663-13.454-2.399-14.579-6.075Z"
          class="nuage2" />
      </g>
      <g class="Group">
        <g class="Group">
          <path fill="#24555E"
            d="m50.087 235.082-9.749-.066c-5.844.727-10.895-4.908-10.895-12.105V49.807c0-7.153 5.029-12.765 10.83-12.105h12.041c5.095.594 78.163 15.165 78.163 21.437v153.824c.022 6.229-75.318 21.503-80.39 22.119Z"
            class="Vector" />
        </g>
        <g class="Group">
          <path fill="#24555E"
            d="m133.63 225.046-81.206 9.97c-5.844.727-10.895-4.908-10.895-12.105V49.807c0-7.153 5.029-12.765 10.83-12.105l81.205 9.332c5.095.594 8.999 5.833 8.999 12.105v153.824c-.022 6.229-3.882 11.467-8.933 12.083Z"
            class="Vector" />
        </g>
        <g class="Group">
          <path fill="#DCF6F9"
            d="M137.667 61.913v139.165c0 5.656-3.397 10.388-7.874 10.939l-40.735 5.128-30.988 3.895c-5.16.639-9.638-4.445-9.638-10.938V53.482c0-6.47 4.433-11.554 9.572-10.96l55.358 6.515 16.365 1.915c3.881.462 6.969 4.05 7.741 8.672.132.748.199 1.518.199 2.288Z"
            class="Vector" />
        </g>
        <g class="Group">
          <path fill="#8BC0CC"
            d="M132.153 94.508v103.709c0 4.204-2.911 7.747-6.727 8.165l-34.714 3.808-26.4 2.905c-4.389.484-8.204-3.301-8.204-8.165V88.214c0-4.82 3.771-8.606 8.16-8.166l47.175 4.842 13.939 1.43c3.308.331 5.933 3.016 6.594 6.472.111.572.177 1.122.177 1.716Z"
            class="Vector" />
        </g>
        <g class="Group">
          <path fill="#1C3A3E"
            d="M51.41 235.171c-2.095 0-4.146-.793-5.845-2.311-2.602-2.311-4.168-6.031-4.168-9.949V49.807c0-3.917 1.544-7.615 4.124-9.926 1.963-1.76 4.39-2.553 6.815-2.289l-.022.198c-2.36-.264-4.742.528-6.66 2.223-2.537 2.267-4.059 5.92-4.059 9.772v173.126c0 3.874 1.522 7.528 4.103 9.794 1.94 1.717 4.322 2.488 6.682 2.201l.022.198c-.33.067-.661.067-.992.067Z"
            class="Vector" />
        </g>
        <g class="Group">
          <g class="Group" opacity=".3">
            <path fill="#fff" d="M113.362 49.037 48.41 98.272v-44.79c0-6.47 4.434-11.554 9.572-10.96l55.38 6.515Z"
              class="Vector" />
          </g>
        </g>
        <g class="Group">
          <g class="Group">
            <path fill="#fff"
              d="m80.5 211.312-3.903.441c1.124-15.077 5.116-28.965 11.005-39.882 4.742-8.781 11.005-16.11 18.614-21.789 12.969-9.684 25.407-11.379 25.915-11.423v3.72c-.111.022-11.756 1.386-23.996 10.586-7.168 5.393-13.079 12.348-17.556 20.667-5.624 10.455-8.998 23.154-10.079 37.68Z"
              class="Vector" />
          </g>
        </g>
        <g class="Group">
          <g class="Group">
            <path fill="#fff"
              d="M101.188 156.267c-.111-.176-11.667-17.476-16.74-21.834-8.072-6.91-28.142-5.326-28.34-5.326v-3.477c.882-.066 21.437-1.695 30.59 6.162 5.425 4.666 16.872 21.812 17.357 22.538l-2.867 1.937Z"
              class="Vector" />
          </g>
        </g>
        <g class="Group">
          <path fill="#fff" d="m112.294 122.892-3.126 1.484 9.692 20.332 3.127-1.485-9.693-20.331Z" class="Vector" />
        </g>
        <g class="Group">
          <g class="Group">
            <path fill="#fff" d="M56.108 173.962v-3.455l32.84-1.365.154 3.434-32.994 1.386Z" class="Vector" />
          </g>
        </g>
        <g class="Group">
          <g class="Group">
            <path fill="#fff" d="m114.994 207.527-3.485.374.111-60.064h3.44l-.066 59.69Z" class="Vector" />
          </g>
        </g>
        <g class="Group">
          <g class="Group">
            <path fill="#fff" d="m113.278 187.853-31.293 1.212.135 3.453 31.292-1.213-.134-3.452Z" class="Vector" />
          </g>
        </g>
        <g class="Group">
          <path fill="#fff" d="M69.385 127.214h-3.463v44.547h3.463v-44.547Z" class="Vector" />
        </g>
        <g class="Group">
          <g class="Group">
            <path fill="#fff"
              d="M59.813 117.926h-3.705v-3.499c.308.022 30.965 1.122 47.506-8.012 4.852-2.685 7.565-6.955 8.072-12.72.397-4.403-.684-8.012-.706-8.034l3.308-1.013c.044.176 1.28 4.27.838 9.354-.617 6.867-4.014 12.215-9.836 15.429-7.322 4.05-17.865 6.713-31.296 7.879-5.867.506-10.94.616-14.181.616Z"
              class="Vector" />
          </g>
        </g>
        <g class="Group">
          <g class="Group">
            <path fill="#fff" d="m86.323 114.537-3.44-.066.683-32.42 3.617.352-.86 32.134Z" class="Vector" />
          </g>
        </g>
        <g class="Group">
          <g class="Group">
            <path fill="#fff" d="m88.837 135.82-3.374-3.764 46.69-18.157v5.304L88.837 135.82Z" class="Vector" />
          </g>
        </g>
        <g class="Group">
          <g class="Group">
            <path fill="#1C3A3E"
              d="M116.957 81.633c-5.845.352-8.69 4.732-9.087 10.564-.397 5.767 5.845 14.174 8.911 17.96.86 1.057 2.47 1.057 3.352.022 2.977-3.609 8.91-11.489 8.91-17.101-.022-5.833-4.852-11.863-12.086-11.445Zm.728 17.321c-3.375-.132-5.889-2.53-5.889-5.898s1.412-5.789 6.264-6.603c4.146-.704 6.131 3.06 6.396 6.427.33 4.05-2.14 6.272-6.771 6.074Z"
              class="Vector" />
          </g>
        </g>
        <g class="Group">
          <g class="Group">
            <path fill="#fff" d="m115.369 121.25-9.219-14.394 3.816-2.487 9.571 15.252-4.168 1.629Z" class="Vector" />
          </g>
        </g>
        <g class="Group">
          <g class="Group">
            <path fill="#FF7B69"
              d="M95.167 145.636a.792.792 0 0 1-.684-.352l-.684-.924c-.286-.374-.198-.925.177-1.211.375-.286.926-.198 1.213.176l.684.925c.286.374.198.924-.177 1.21a1.01 1.01 0 0 1-.53.176Z"
              class="Vector" />
          </g>
          <g class="Group">
            <path fill="#FF7B69"
              d="M93.138 142.907a.792.792 0 0 1-.684-.352l-1.345-1.805c-.287-.374-.199-.924.176-1.21.375-.286.926-.198 1.213.176l1.345 1.804c.287.375.199.925-.176 1.211a.952.952 0 0 1-.53.176Zm-2.669-3.609a.793.793 0 0 1-.684-.353l-1.345-1.804c-.287-.375-.198-.925.176-1.211.375-.286.927-.198 1.213.176l1.346 1.805c.287.374.198.924-.177 1.21a.845.845 0 0 1-.529.177Z"
              class="Vector" />
          </g>
          <g class="Group">
            <path fill="#FF7B69"
              d="M87.8 135.71a.792.792 0 0 1-.683-.352l-.684-.925c-.154-.22-.22-.484-.132-.748.066-.264.264-.462.529-.572l1.08-.418a.871.871 0 0 1 1.126.484.868.868 0 0 1-.486 1.122h-.022v.022c.287.375.199.925-.176 1.211-.199.11-.375.176-.552.176Z"
              class="Vector" />
          </g>
          <g class="Group">
            <path fill="#FF7B69"
              d="M90.425 133.509a.888.888 0 0 1-.816-.55.869.869 0 0 1 .485-1.123l2.25-.858a.871.871 0 0 1 1.125.484.869.869 0 0 1-.486 1.123l-2.25.858a.78.78 0 0 1-.308.066Zm4.477-1.717a.888.888 0 0 1-.816-.55.868.868 0 0 1 .485-1.122l2.25-.859a.871.871 0 0 1 1.125.484.868.868 0 0 1-.486 1.123l-2.25.858a.706.706 0 0 1-.308.066Zm4.5-1.716a.887.887 0 0 1-.817-.551.868.868 0 0 1 .486-1.122l2.249-.858a.87.87 0 0 1 1.125.484.868.868 0 0 1-.485 1.122l-2.25.859a.78.78 0 0 1-.309.066Zm4.499-1.739a.89.89 0 0 1-.817-.55.87.87 0 0 1 .486-1.123l2.249-.858a.871.871 0 0 1 1.125.484.867.867 0 0 1-.485 1.122l-2.25.859a.864.864 0 0 1-.308.066Zm4.477-1.717a.887.887 0 0 1-.816-.55.868.868 0 0 1 .485-1.123l2.249-.858a.87.87 0 0 1 1.125.484.868.868 0 0 1-.485 1.123l-2.25.858a.776.776 0 0 1-.308.066Zm4.499-1.717a.887.887 0 0 1-.816-.55.867.867 0 0 1 .485-1.122l2.25-.859a.87.87 0 0 1 1.124.485.867.867 0 0 1-.485 1.122l-2.249.858a.873.873 0 0 1-.309.066Z"
              class="Vector" />
          </g>
          <g class="Group">
            <path fill="#FF7B69"
              d="M117.354 123.165a.887.887 0 0 1-.816-.551.867.867 0 0 1 .485-1.122l.088-.044-.044-.088c-.264-.396-.132-.925.265-1.189s.926-.132 1.191.264l.617.969c.133.22.177.484.089.726a.863.863 0 0 1-.508.528l-1.08.419c-.067.088-.177.088-.287.088Z"
              class="Vector" />
          </g>
          <g class="Group">
            <path fill="#FF7B69"
              d="M116.428 119.599a.83.83 0 0 1-.728-.396l-1.39-2.179c-.264-.396-.132-.924.265-1.188.397-.265.926-.133 1.191.264l1.389 2.179c.265.396.133.924-.264 1.188a.93.93 0 0 1-.463.132Zm-2.779-4.358a.83.83 0 0 1-.728-.396l-1.39-2.179c-.264-.396-.132-.924.265-1.188.397-.264.926-.132 1.191.264l1.39 2.179c.264.396.132.924-.265 1.188a.87.87 0 0 1-.463.132Z"
              class="Vector" />
          </g>
          <g class="Group">
            <path fill="#FF7B69"
              d="M110.87 110.883a.83.83 0 0 1-.728-.396l-.618-.968c-.264-.396-.132-.925.265-1.189s.926-.132 1.191.264l.618.969c.264.396.132.924-.265 1.188a.817.817 0 0 1-.463.132Z"
              class="Vector" />
          </g>
        </g>
        <g class="Group">
          <path fill="#1C3A3E"
            d="M107.275 106.173c0-.814.661-1.474 1.478-1.474a1.475 1.475 0 1 1 0 2.949c-.839 0-1.478-.66-1.478-1.475Z"
            class="Vector" />
        </g>
        <g class="Group">
          <path fill="#1C3A3E"
            d="M95.718 147.001c0-.66.53-1.189 1.191-1.189.662 0 1.191.529 1.191 1.189s-.53 1.188-1.19 1.188a1.185 1.185 0 0 1-1.192-1.188Z"
            class="Vector" />
        </g>
      </g>
      <g class="pointLoc">
        <g class="Group">
          <g class="Group">
            <path fill="#1C3A3E"
              d="M258.66 122.901h-.045a7.02 7.02 0 0 1-5.403-2.598c-5.007-6.14-12.24-15.626-18.151-25.883-7.146-12.435-10.498-22.757-9.947-30.703.662-9.486 3.396-17.52 7.94-23.198 5.006-6.272 12.042-9.706 20.886-10.234 5.183-.308 10.167.418 14.821 2.157a34.945 34.945 0 0 1 11.667 7.285c7.344 6.91 11.733 16.903 11.733 26.72 0 7.747-3.529 17.629-10.52 29.36-5.801 9.75-12.748 18.73-17.556 24.518a6.938 6.938 0 0 1-5.425 2.576Zm-4.698-92.132c-8.712.528-15.615 3.896-20.533 10.059-4.477 5.612-7.19 13.535-7.83 22.933-.551 7.836 2.779 18.07 9.881 30.417 5.888 10.235 13.1 19.699 18.107 25.817a6.559 6.559 0 0 0 5.05 2.421h.045c1.962 0 3.815-.858 5.05-2.377 4.786-5.788 11.733-14.746 17.512-24.474 6.925-11.665 10.454-21.46 10.454-29.119 0-9.706-4.323-19.566-11.579-26.389a34.614 34.614 0 0 0-11.513-7.197c-4.587-1.673-9.505-2.399-14.644-2.09Zm4.036 54.43c-.574 0-1.147-.023-1.72-.045-5.227-.22-9.969-2.178-13.366-5.524-3.44-3.411-5.337-8.1-5.337-13.228 0-12.17 6.131-18.642 19.894-20.975 4.697-.792 8.799.133 12.196 2.774 4.521 3.521 7.587 10.102 8.182 17.585.463 5.987-.948 10.74-4.19 14.086-3.419 3.5-8.8 5.326-15.659 5.326Zm2.602-39.596c-.992 0-2.007.088-3.065.265-7.234 1.232-12.285 3.61-15.417 7.307-2.734 3.213-4.08 7.549-4.08 13.205 0 4.996 1.853 9.597 5.205 12.898 3.308 3.28 7.94 5.194 13.057 5.392 7.542.308 13.431-1.452 16.982-5.15 3.154-3.257 4.499-7.857 4.058-13.712-.573-7.373-3.573-13.822-7.984-17.255-2.536-1.96-5.47-2.95-8.756-2.95Z"
              class="Vector" />
          </g>
        </g>
        <g class="Group">
          <g class="Group">
            <path fill="#D41E45"
              d="M258.946 30.527c-18.349 1.1-27.348 14.9-28.605 33.212-1.257 18.136 18.35 44.569 28.032 56.41 2.713 3.346 7.785 3.346 10.52.044 9.395-11.356 28.01-36.073 28.01-53.747 0-18.311-15.152-37.283-37.957-35.919Zm2.338 54.385c-10.586-.418-18.482-7.945-18.482-18.532 0-10.564 4.477-18.157 19.695-20.754 13.034-2.223 19.254 9.618 20.092 20.16.97 12.81-6.793 19.743-21.305 19.126Z"
              class="Vector" />
          </g>
        </g>
      </g>
      <g class="bonhomme">
        <g class="Group">
          <path fill="#FCBDB6"
            d="M121.765 175.151c.816-2.773 1.808-4.424 1.808-4.424s6.132.044 6.418.572c.684 1.233 1.478 3.984 2.14 5.238.286.551 1.125 2.444.617 2.796-.441.308-1.83-.881-2.404-1.519-.507 4.006-3.043 9.64-2.602 1.145h-.022c-.133.858-.816 5.59-1.897 4.974-.948-.551-.595-3.962-.397-5.371h-.044c-.309 1.409-1.169 4.798-1.919 3.984-.926-1.012-.617-4.776-.617-4.776s-.486 4.798-1.699 3.764c-.838-.705.177-4.534.464-5.877a3.4 3.4 0 0 1 .154-.506Z"
            class="Vector" />
        </g>
        <g class="Group">
          <g class="Group">
            <path fill="#FCBDB6"
              d="M187.952 141.565s3.22-4.755 6.484-6.207c3.264-1.453 5.359-.242 5.359-.242l3.507-1.387s.507 13.206-8.624 10.873c-.727-.198-6.726-3.037-6.726-3.037Z"
              class="Vector" />
          </g>
          <g class="Group">
            <path fill="#fff"
              d="M201.383 126.598a.96.96 0 0 0-.992-.924c-.53.022-.949.44-.927.968a.96.96 0 0 0 .993.925.986.986 0 0 0 .926-.969Z"
              class="Vector" />
          </g>
          <g class="brasTel">
            <g class="Group">
              <path fill="#D41E45"
                d="M170.545 150.343c5.19.929 15.461 2.853 23.073-2.553 4.299-3.049 7.707-7.279 7.861-7.39l-5.729-7.99 2.853 3.984-2.854-4.006c-2.939 2.136-7.763 8.666-14.613 7.045-3.115-.724-6.713-1.181-10.505-6.632l-9.832 3.509c3.157 6.138 2.283 12.99 9.746 14.033Z"
                class="Vector" />
            </g>
            <g class="Group">
              <path fill="#1C3A3E"
                d="m202.48 126.298-2.826 19.211c-.186 1.26-1.377 2.107-2.64 1.899l-9.044-1.557c-1.22-.209-2.045-1.331-1.857-2.547l2.789-18.946a2.288 2.288 0 0 1 2.573-1.92l9.081 1.27c1.241.208 2.111 1.352 1.924 2.59Z"
                class="Vector" />
            </g>
            <g class="Group">
              <g class="Group">
                <path fill="#FCBDB6"
                  d="M204.754 133.567s1.12-2.607-1.29-3.597c-3.058-1.26-8.095.09-6.175.918 1.719.723 4.401 1.2 4.401 1.2s-6.824-1.068-6.585.401c.261 1.49 6.153 2.319 6.153 2.319s-6.764-.431-6.043.892c.698 1.324 6.037 2.125 6.037 2.125s-6.574-.767-5.716.751c.858 1.518 4.336 1.224 5.843 1.447 1.417.203 2.012-.65 2.106-2.017 0 0 .891-1.302.734-2.222-.054-.351.314-.625.373-.869.12-.466.162-1.348.162-1.348Z"
                  class="Vector" />
              </g>
            </g>
          </g>
          <g class="Group">
            <path fill="#1C3A3E"
              d="M135.483 171.123c.044 1.387 8.491 1.937 18.945 1.607 10.454-.33 18.791-1.761 18.769-3.147-.044-1.387-8.447-2.201-18.901-1.871-10.454.33-18.835 2.025-18.813 3.411Z"
              class="Vector" />
          </g>
          <g class="Group">
            <path fill="#D41E45"
              d="M138.041 131.946s1.853-7.263 15.483-7.329c19.673-.11 17.842 17.784 19.651 44.988 0 0-11.932-4.931-37.692 1.518 0 0-1.698-28.084 2.558-39.177Z"
              class="Vector" />
          </g>
          <g class="Group">
            <path fill="#D41E45"
              d="m133.013 130.912 8.91 4.886s19.916 4.358 25.099 3.5c5.182-.837 6.175-2.95 6.175-2.95s-5.514-9.926-14.887-11.423a34.608 34.608 0 0 0-2.735-.308 26.238 26.238 0 0 0-4.742.088c-11.887 1.343-17.82 6.207-17.82 6.207Z"
              class="Vector" />
          </g>
          <g class="Group">
            <path fill="#FCBDB6"
              d="m151.649 122.967 1.037-3.28.309-.968 1.764-5.635.243 5.591.132 3.367.044 1.057c.022.726.485.88 1.015 1.496.22.264 1.632 1.805.022 2.487-1.985.859-5.691-.44-7.102-2.157 0 0 2.205-.902 2.536-1.958Z"
              class="Vector" />
          </g>
          <g class="Group">
            <g class="Group">
              <path fill="#FCBDB6"
                d="M130.388 173.5c.816-8.936 2.691-21.723 7.014-31.825.992-2.355 1.411-3.236 2.183-4.512.618-1.035-.485-3.302-2.271-4.38-1.654-1.013-4.235-.837-4.654-.352-.706.858-1.433 2.487-2.58 5.084-4.014 9.024-6.418 20.667-7.389 35.677l7.697.308Z"
                class="Vector" />
            </g>
          </g>
          <g class="Group">
            <path fill="#5C305D" d="M159.28 110.971s.353 1.365 0 3.082c-.353 1.717-2.117-2.487-2.117-2.487l2.117-.595Z"
              class="Vector" />
          </g>
          <g class="Group">
            <path fill="#FCBDB6"
              d="M155.303 121.151c2.763-.378 4.637-3.36 4.184-6.659-.453-3.3-3.061-5.669-5.824-5.292-2.764.378-4.637 3.359-4.185 6.659.453 3.3 3.061 5.669 5.825 5.292Z"
              class="Vector" />
          </g>
          <g class="Group">
            <g class="Group">
              <path fill="#080435"
                d="M154.737 114.933c.022-.022.044-.044.044-.088 0-.066-.044-.11-.088-.11s-.794-.132-1.191.66c-.022.044 0 .11.044.132.044.022.11 0 .132-.044.353-.44.949-.55.971-.55.044.022.066 0 .088 0Z"
                class="Vector" />
            </g>
          </g>
          <g class="Group">
            <path fill="#080435"
              d="M154.296 116.232c.066.242.265.396.419.33.176-.044.265-.264.198-.506-.066-.242-.264-.397-.419-.331-.176.044-.264.265-.198.507Z"
              class="Vector" />
          </g>
          <g class="Group">
            <g class="Group">
              <path fill="#080435"
                d="M158.53 114.625c.023 0 .045-.022.067-.044a.106.106 0 0 0-.044-.132c-.023-.022-.552-.44-1.037.11a.14.14 0 0 0 0 .132c.022.044.066.044.11.022.375-.242.838-.11.86-.088h.044Z"
                class="Vector" />
            </g>
          </g>
          <g class="Group">
            <path fill="#080435"
              d="M157.604 115.659c-.022.243.088.463.265.485.176.022.353-.154.375-.396.022-.243-.089-.463-.265-.485-.176-.022-.353.154-.375.396Z"
              class="Vector" />
          </g>
          <g class="Group">
            <path fill="#501506"
              d="M146.091 114.273s1.699 3.609 4.081 3.874c0 0-1.941-2.752 2.139-4.424.022 0-3.727-.595-6.22.55Z"
              class="Vector" />
          </g>
          <g class="Group">
            <path fill="#FCBDB6"
              d="M149.488 116.254c.507.33 1.169.22 1.456-.242.286-.463.11-1.079-.397-1.409-.508-.33-1.169-.22-1.456.242-.309.462-.132 1.101.397 1.409Z"
              class="Vector" />
          </g>
          <g class="Group">
            <path fill="#501506"
              d="M152.333 113.723s-.331 3.037.287 3.609c.617.572 4.742.815 6.66.088.022 1.937-1.345 3.654-3.286 3.984a5.88 5.88 0 0 1-1.963 0c-1.345-.242-2.646-.792-3.198-2.025-.176-.374.331-2.685.331-2.685s.177-1.365-.617-2.069c-.022 0 .904-.836 1.786-.902Z"
              class="Vector" />
          </g>
          <g class="Group">
            <path fill="#501506"
              d="M152.333 113.723s-.331-2.113 1.345-2.267c1.677-.154 3.595-.441 4.257 0 .662.44 1.434 2.113 1.434 2.113s.926-3.17-.772-4.534c-1.699-1.365-7.058-3.148-10.499-.771-3.44 2.355-2.007 6.009-2.007 6.009s2.449-.748 6.242-.55Z"
              class="Vector" />
          </g>
          <g class="Group">
            <path fill="#501506"
              d="M149.995 108.242s-2.536-2.069-1.963-3.587c.574-1.519 3.242-1.035 4.279-.815 1.037.243 1.213 2.069.375 3.258-.816 1.166-2.691 1.144-2.691 1.144Z"
              class="Vector" />
          </g>
          <g class="Group">
            <path fill="#1C3A3E"
              d="M153.899 237.812a3.15 3.15 0 0 1 2.933 1.606c.287.485.684.947 1.279 1.189 1.831.748 7.124 1.43 5.139 3.147-1.125.991-6.484.352-7.984.352-1.499 0-2.933.661-4.036-.352-.661-.594-.617-2.487-.419-4.094a2.131 2.131 0 0 1 2.36-1.87c.177.022.353.044.529.022h.199Z"
              class="Vector" />
          </g>
          <g class="Group">
            <path fill="#1C3A3E"
              d="M135.263 237.173s.066 2.664 1.896 3.434c1.831.748 7.124 1.431 5.139 3.147-1.125.991-6.484.352-7.984.352s-2.933.661-4.036-.352c-1.235-1.1 0-6.581 0-6.581s1.301.683 2.47.639c1.676-.044 2.515-.639 2.515-.639Z"
              class="Vector" />
          </g>
          <g class="Group">
            <path fill="#49ADB7"
              d="M167.529 169.979a1.802 1.802 0 0 1 1.588 1.54c.198 1.629.22 5.063-.75 12.194-1.456 10.476-6.903 48.684-7.808 53.769-.33 1.826-.705 2.949-3.352 3.323l-3.551-.066c-2.889.418-3.992-2.641-4.014-4.6l2.316-58.853-9.219-6.955s6.903-.881 14.689-.859a95.294 95.294 0 0 1 10.101.507Z"
              class="Vector" />
          </g>
          <g class="Group">
            <path fill="#49ADB7"
              d="m158.861 171.938-20.312 64.619c-.86 2.707-3.309 4.556-6.109 4.6l-1.213.022c-2.89.044-5.095-2.597-4.566-5.458l11.116-60.702c.154-.726.573-3.918 1.279-4.116 3.793-1.1 20.18-1.651 19.805 1.035Z"
              class="Vector" />
          </g>
          <g class="Group">
            <path fill="#333"
              d="m149.775 200.814-.331-.11 4.367-13.14a12.842 12.842 0 0 1 5.844-7.131l.177.286c-2.691 1.519-4.698 3.984-5.69 6.955l-4.367 13.14Z"
              class="Vector" />
          </g>
          <g class="Group">
            <g class="Group">
              <path fill="#49ADB7"
                d="M144.768 126.268s-2.117-1.937.419-2.619c1.015-.264 2.514-2.729 3.904-2.531 1.411.22 2.227 8.033 7.851 10.454 0 0 1.39 1.189-.86 1.145-2.249-.066-11.314-6.449-11.314-6.449Z"
                class="Vector" />
            </g>
            <g class="Group">
              <path fill="#49ADB7"
                d="M156.965 131.572s2.823-2.751 2.315-5.304c-.485-2.553.949-4.754 1.632-3.588.684 1.167 1.5.441 1.654 1.893.155 1.453-2.006 8.562-3.991 8.562-1.963 0-1.61-1.563-1.61-1.563Z"
                class="Vector" />
            </g>
            <g class="Group">
              <path fill="#49ADB7"
                d="M156.325 132.1s-1.809.815-1.147 2.73c.684 1.914-.265 2.685-.265 2.685s2.206.11 2.471-1.959c.264-2.047-1.059-3.456-1.059-3.456Z"
                class="Vector" />
            </g>
            <g class="Group">
              <path fill="#49ADB7"
                d="M157.362 132.1s2.315.771 2.404 2.267c.11 1.497-1.236 1.849-1.699.947-.463-.881-1.433-2.619-1.433-2.619l.728-.595Z"
                class="Vector" />
            </g>
          </g>
          <g class="Group">
            <path fill="#501506"
              d="M150.811 119.357s.022 2.091 1.5 3.257c1.5 1.167.507 2.179 1.808 3.852 1.324 1.651-.242 1.695 2.074 2.905 2.315 1.211 4.08.11 3.617-1.738-.464-1.849 1.566-1.365.617-3.698-.948-2.333-1.654-.902-.838-3.389.794-2.488-.331-3.148-.331-3.148s-1.279.088-2.316.264c-1.036.176-1.962-.132-2.69.088-.706.242-3.441 1.607-3.441 1.607Z"
              class="Vector" />
          </g>
          <g class="Group">
            <path fill="#fff"
              d="M158.266 118.499s-1.566.418-3.286.264c0 0 .242 1.584 1.985 1.254 1.014-.176 1.301-1.518 1.301-1.518Z"
              class="Vector" />
          </g>
          <g class="Group">
            <path fill="#1C3A3E"
              d="M122.691 170.001s5.315.572 8.05 0c0 0 .353 1.408-.22 2.047 0 0-6.352.484-7.852 0 .022-.022-1.08-1.079.022-2.047Z"
              class="Vector" />
          </g>
          <g class="Group">
            <path fill="#49ADB7"
              d="M126.132 173.192h-.088a1.909 1.909 0 0 1-1.897-1.893v-.352a1.91 1.91 0 0 1 1.897-1.893h.088a1.91 1.91 0 0 1 1.897 1.893v.352a1.91 1.91 0 0 1-1.897 1.893Z"
              class="Vector" />
          </g>
          <g class="Group">
            <path fill="#D41E45"
              d="M133.013 130.912s-4.499 2.641-8.866 19.963c-4.367 17.321-1.081 17.629-1.081 17.629s5.911.11 7.808-.55c1.896-.66 2.911-16.199 6.704-22.494 3.772-6.339 5.117-16.001-4.565-14.548Z"
              class="Vector" />
          </g>
          <g class="Group">
            <path fill="#5C305D"
              d="M157.406 143.303a.662.662 0 0 1 1.323 0 .664.664 0 0 1-.662.661.663.663 0 0 1-.661-.661Z"
              class="Vector" />
          </g>
          <g class="Group">
            <path fill="#5C305D" d="M158.089 152.063a.661.661 0 1 0 .002-1.322.661.661 0 0 0-.002 1.322Z"
              class="Vector" />
          </g>
          <g class="Group">
            <path fill="#5C305D" d="M158.089 161.637a.661.661 0 1 0 .002-1.322.661.661 0 0 0-.002 1.322Z"
              class="Vector" />
          </g>
          <g class="Group">
            <g class="Group">
              <path fill="#5C305D"
                d="m135.307 151.667-.331-.088c1.279-5.415 3.507-10.455 3.529-10.521l.308.132c-.022.066-2.227 5.085-3.506 10.477Z"
                class="Vector" />
            </g>
          </g>
          <g class="Group">
            <g class="Group">
              <path fill="#5C305D"
                d="M171.918 150.742c-.375-6.03-3.397-13.755-3.419-13.843l.309-.133c.022.089 3.066 7.858 3.441 13.954l-.331.022Z"
                class="Vector" />
            </g>
          </g>
        </g>
      </g>
      <g class="Group">
        <g class="Group">
          <g class="Group">
            <g class="Group">
              <path fill="#1C3A3E"
                d="M336.668 234.114s-10.719.33-12.042-2.047c-4.852-8.804.198-29.184 5.932-34.29 5.735-5.107 9.969 3.807 9.969 3.807l-3.859 32.53Z"
                class="Vector" />
            </g>
            <g class="Group">
              <path fill="#24555E"
                d="M341.895 204.621s-1.963-7.175-6.308-4.93-4.146 34.291 1.081 34.423c5.227.132 7.388-19.39 5.227-29.493Z"
                class="Vector" />
            </g>
            <g class="Group">
              <path fill="#49ADB7"
                d="M340.417 207.329s-1.191-5.569-3.838-3.83c-2.646 1.739-2.514 26.587.662 26.697 3.176.11 4.499-15.032 3.176-22.867Z"
                class="Vector" />
            </g>
          </g>
          <g class="Group">
            <g class="Group">
              <path fill="#1C3A3E"
                d="M294.975 244.014s-14.342.838-15.796-2.255c-4.624-9.829-9.076-36.495 7.509-45.019 14.347-7.375 18.086 11.582 18.086 11.582l-9.799 35.692Z"
                class="Vector" />
            </g>
            <g class="Group">
              <path fill="#24555E"
                d="M302.108 207.615s-2.603-8.848-8.381-6.097c-5.779 2.773-5.492 42.302 1.433 42.456 6.948.154 9.837-23.924 6.948-36.359Z"
                class="Vector" />
            </g>
            <g class="Group">
              <path fill="#49ADB7"
                d="M300.167 210.938s-1.588-6.867-5.095-4.71c-3.507 2.135-3.33 32.794.882 32.926 4.213.11 5.955-18.554 4.213-28.216Z"
                class="Vector" />
            </g>
            <g class="Group">
              <path fill="#1C3A3E"
                d="m295.138 238.78-.176-.33c1.588-.858 2.889-4.974 3.485-11.027.573-5.7.419-11.995-.397-16.419l.374-.066c1.588 8.694.574 25.751-3.286 27.842Z"
                class="Vector" />
            </g>
          </g>
          <g class="Group">
            <path fill="#1C3A3E"
              d="M207.823 209.42s-.573-1.695-1.808-3.258c0 0-5.624-9.464-13.233-4.05-7.609 5.415-4.919 34.401-3.287 36.976 1.632 2.597 11.381 1.651 11.381 1.651 6.947.154 9.836-20.601 6.947-31.319Z"
              class="Vector" />
          </g>
          <g class="Group">
            <path fill="#334747"
              d="M203.456 167.514s-23.621 9.772-21.614 32.177c0 0-2.183.33-3.043 4.71-.838 4.38 3.551 24.937 6.749 25.443 3.198.506 95.541 3.192 97.901 1.849 2.36-1.343 4.72-4.556 4.566-12.303-.177-7.748 1.962-23.88 8.777-23.198 5.823.594 7.212 19.786 5.823 31.869-.684 6.009 7.851-2.443 15.284-3.125 7.432-.682 12.306.44 12.637-3.763.331-4.204-.75-22.186 5.69-22.472 6.066-.264 6.507 12.149 6.507 12.149.683-.836 1.499-10.41-.353-14.68-1.853-4.248.838-21.591-3.551-24.122-4.389-2.532-1.191-28.635-26.334-33.697-25.142-5.062-76.287-3.147-86.256 2.377-9.947 5.547-22.783 26.786-22.783 26.786Z"
              class="Vector" />
          </g>
          <g class="Group">
            <path fill="#1C3A3E"
              d="M245.625 196.368h-35.42c-1.544 0-3.022-.594-4.102-1.695l-.728-.726a5.41 5.41 0 0 0-3.838-1.585h-3.242v-.374h3.242c1.544 0 3.022.594 4.103 1.695l.727.726a5.41 5.41 0 0 0 3.838 1.585h35.398c.904 0 1.808-.22 2.602-.66l4.786-2.62a5.88 5.88 0 0 1 2.801-.704h4.742v.374h-4.742c-.904 0-1.808.22-2.602.661l-4.786 2.619a5.794 5.794 0 0 1-2.779.704Z"
              class="Vector" />
          </g>
          <g class="Group">
            <path fill="#fff"
              d="M295.668 140.2a2.673 2.673 0 0 1 2.381 3.213c-.551 2.751-1.323 7.307-1.411 12.127-.176 7.748 3.882 12.458-8.954 13.316-12.836.837-82.86 1.145-82.353-1.21.507-2.355 18.195-24.849 23.268-26.412 4.499-1.408 54.1-2.223 67.069-1.034Z"
              class="Vector" />
          </g>
          <g class="Group">
            <path fill="#1C3A3E"
              d="M193.73 219.61c0 2.223-1.654 4.6-4.19 4.6-2.559 0-4.191-2.377-4.191-4.6s2.073-4.314 4.61-4.314c2.536 0 3.771 2.091 3.771 4.314Z"
              class="Vector" />
          </g>
          <g class="Group">
            <path fill="#1C3A3E"
              d="M274.649 219.61c0 2.223-1.654 4.6-4.19 4.6-2.559 0-4.191-2.377-4.191-4.6s2.074-4.314 4.61-4.314c2.536 0 3.771 2.091 3.771 4.314Z"
              class="Vector" />
          </g>
          <g class="Group">
            <path fill="#1C3A3E"
              d="M178.821 204.401s-.441 3.544 6.528 4.468c6.969.925 13.057-.748 14.733 4.974 1.698 5.723-1.698 11.115 9.461 12.634 11.138 1.518 39.611 3.191 41.243-1.343 1.632-4.556-1.742-12.127 5.337-13.47 7.08-1.342 23.29.331 27.172-1.848 3.881-2.179 4.058-4.886 1.698-6.735-2.36-1.849-90.469-1.695-95.453-1.695-4.985 0-10.719-.528-10.719 3.015Z"
              class="Vector" />
          </g>
          <g class="Group">
            <path fill="#fff"
              d="m210.139 207.923 34.097-.264a1.802 1.802 0 0 1 1.764 2.179l-.772 3.455a1.771 1.771 0 0 1-1.742 1.387h-32.487c-.816 0-1.522-.55-1.72-1.321l-.838-3.191a1.763 1.763 0 0 1 1.698-2.245Z"
              class="Vector" />
          </g>
          <g class="Group">
            <path fill="#1C3A3E"
              d="M323.302 178.716c.419 1.475-.066 2.906-1.08 3.192-1.015.286-2.162-.683-2.581-2.157-.419-1.475.066-2.905 1.081-3.192 1.014-.286 2.183.661 2.58 2.157Z"
              class="Vector" />
          </g>
          <g class="Group">
            <path fill="#1C3A3E"
              d="M337.462 177.11c.419 1.474-.067 2.905-1.081 3.191-1.015.286-2.161-.682-2.581-2.157-.419-1.474.067-2.905 1.081-3.191 1.015-.286 2.162.682 2.581 2.157Z"
              class="Vector" />
          </g>
          <g class="Group">
            <path fill="#fff"
              d="M332.146 166.941s.089-12.919-7.234-18.201c-7.322-5.283-17.886-7.638-19.915-6.075-2.029 1.563-2.36 22.229-.574 24.254 1.831 2.047 25.849 2.047 27.723.022Z"
              class="Vector" />
          </g>
          <g class="Group">
            <path fill="#24555E"
              d="M309.628 172.488s-3.286-3.126-1.61-8.342c1.698-5.216 14.689-1.695 16.034.925 1.346 2.619-3.97 7.065-7.521 7.835-3.55.748-2.778 7.153-5.491 6.823-2.691-.33-4.852-2.179-3.529-3.368 1.345-1.188 3.793-2.883 2.117-3.873Z"
              class="Vector" />
          </g>
          <g class="Group">
            <path fill="#24555E"
              d="M291.433 153.031s2.139-8.033.948-9.442c-1.191-1.386-11.645-2.289-11.645-.902s4.103 2.179 5.183 4.82c1.081 2.641 4.897 8.1 5.514 5.524Z"
              class="Vector" />
          </g>
          <g class="Group">
            <path fill="#1C3A3E"
              d="m275.134 185.451-.352-.154c.882-2.091 3.109-4.93 6.616-8.429 2.603-2.598 4.984-4.622 5.007-4.644l.242.286c-.088.066-9.461 8.055-11.513 12.941Z"
              class="Vector" />
          </g>
          <g class="Group">
            <path fill="#1C3A3E"
              d="M190.951 183.845h-.022c-.044-.022-.066-.066-.044-.11 2.161-5.987 12.329-13.096 12.439-13.162.044-.022.088-.022.132.022.022.044.022.088-.022.132-.022.022-2.58 1.805-5.381 4.292-2.581 2.289-5.867 5.678-6.992 8.782a.168.168 0 0 1-.11.044Z"
              class="Vector" />
          </g>
          <g class="phareL">
            <g class="g">
              <path fill="#8BC0CC"
                d="M197.778 193.12c4.224-3.409 5.835-8.41 3.598-11.17-2.237-2.759-7.474-2.233-11.698 1.177-4.224 3.409-5.835 8.41-3.598 11.17s7.474 2.233 11.698-1.177Z"
                class="phareLin" />
            </g>
            <g class="Group">
              <path fill="#1C3A3E"
                d="M191.877 195.664c-1.896 0-3.418-.705-4.278-2.003-.949-1.431-.971-3.456-.066-5.547 1.764-4.115 6.572-7.483 10.696-7.483.662 0 1.279.088 1.831.264a.121.121 0 0 1 .066.11.121.121 0 0 1-.11.066 6.619 6.619 0 0 0-1.787-.242c-4.058 0-8.8 3.302-10.542 7.373-.882 2.047-.86 4.006.066 5.371.816 1.232 2.272 1.915 4.124 1.915.794 0 1.632-.132 2.471-.375.044-.022.088.022.11.066.022.044-.022.088-.066.11a9.132 9.132 0 0 1-2.515.375Z"
                class="Vector" />
            </g>
          </g>
          <g class="phareR">
            <g class="g">
              <path fill="#D6D6D6"
                d="M272.323 193.12c4.224-3.41 5.835-8.411 3.598-11.171-2.237-2.759-7.474-2.232-11.698 1.177-4.224 3.41-5.834 8.411-3.598 11.17 2.237 2.76 7.475 2.233 11.698-1.176Z"
                class="phareRin" />
            </g>
            <g class="group">
              <path fill="#1C3A3E"
                d="M266.445 195.664c-1.897 0-3.419-.705-4.279-2.003-.948-1.431-.97-3.456-.066-5.547 1.764-4.115 6.572-7.483 10.697-7.483a6.03 6.03 0 0 1 1.83.264.121.121 0 0 1 .066.11.121.121 0 0 1-.11.066 6.611 6.611 0 0 0-1.786-.242c-4.058 0-8.8 3.302-10.543 7.373-.882 2.047-.86 4.006.067 5.371.816 1.232 2.271 1.915 4.124 1.915.794 0 1.632-.132 2.47-.375.044-.022.088.022.11.066.022.044-.022.088-.066.11-.86.243-1.72.375-2.514.375Z"
                class="Vector" />
            </g>
          </g>
          <g class="Group">
            <path fill="#1C3A3E"
              d="M327.779 205.04s-.022 0 0 0c-.066 0-.088-.044-.088-.11.882-5.965 4.896-8.87 7.212-10.081a3.18 3.18 0 0 0 1.742-2.839v-6.647c0-.044.045-.088.089-.088s.088.044.088.088v6.647a3.424 3.424 0 0 1-1.831 3.015c-2.271 1.189-6.241 4.05-7.101 9.949-.044.044-.066.066-.111.066Z"
              class="Vector" />
          </g>
          <g class="Group">
            <path fill="#1C3A3E"
              d="M327.779 185.451s-.022 0 0 0c-.066 0-.088-.044-.088-.11.75-5.964-2.029-15.604-2.051-15.714-.022-.045.022-.089.066-.111.044-.022.089.022.111.066.022.089 2.823 9.773 2.051 15.781 0 .066-.044.088-.089.088Z"
              class="Vector" />
          </g>
        </g>
        <g class="Group">
          <path fill="#E3EEEC"
            d="M227.915 191.878c0 .594-.992 1.078-2.228 1.078-1.235 0-2.227-.484-2.227-1.078 0-.594.992-1.078 2.227-1.078 1.236 0 2.228.484 2.228 1.078Z"
            class="Vector" />
        </g>
      </g>
      <g class="Group">
        <g class="Group">
          <g class="Group">
            <g class="Group">
              <path fill="#D41E45"
                d="M109.392 45.273c0-13.866-12.35-23.44-26.09-23.44-19.916 0-26.753 11.247-26.753 25.113S72.318 70.65 86.059 70.65c13.761 0 23.333-11.51 23.333-25.377Z"
                class="Vector" />
            </g>
            <g class="Group">
              <path fill="#D41E45" d="M113.737 67.525s-8.712-1.365-9.329-10.08l-6.837 5.04s3.264 8.033 16.166 5.04Z"
                class="Vector" />
            </g>
          </g>
          <g class="Group">
            <path fill="#D41E45"
              d="M86.455 73.555c-6.881 0-14.336-2.487-19.982-6.668-6.22-4.6-9.66-10.697-9.66-17.124 0-7.571 2.007-13.557 5.933-17.827 4.521-4.909 11.579-7.395 20.93-7.395 6.881 0 13.365 2.332 18.284 6.536 5.116 4.38 7.939 10.433 7.939 16.991 0 5.569-1.521 10.807-4.366 15.143 2.073 5.92 8.579 6.999 8.645 6.999l.551.088-.551.132c-3.926.902-9.462 1.32-13.542-1.805-4.014 3.214-8.91 4.93-14.18 4.93ZM83.676 24.74c-9.285 0-16.276 2.465-20.776 7.329-3.903 4.226-5.888 10.168-5.888 17.695 0 6.383 3.396 12.392 9.572 16.97 5.602 4.137 13.034 6.624 19.871 6.624 5.25 0 10.123-1.694 14.093-4.93l.066-.044.066.044c3.86 3.015 9.087 2.751 12.947 1.915-1.588-.374-6.573-1.98-8.337-7.087l-.022-.044.022-.044c2.867-4.336 4.367-9.552 4.367-15.077 0-6.514-2.779-12.479-7.852-16.837-4.852-4.203-11.292-6.514-18.129-6.514Z"
              class="Vector" />
          </g>
        </g>
        <g class="Group">
          <path fill="#fff"
            d="M84.051 46.132h-.044a.586.586 0 0 1-.507-.44v-.023l-.463-4.181c-.221-.947-.31-1.167-1.236-1.453l-3.55-.638a.563.563 0 0 1-.42-.506.532.532 0 0 1 .331-.55l8.822-3.83c.442-.198.905-.11 1.258.22.33.33.44.792.264 1.232L84.58 45.78a.552.552 0 0 1-.529.352Zm-.22-.484c.022.11.132.176.22.176s.199-.022.243-.154l3.925-9.795a.768.768 0 0 0-.198-.88c-.198-.176-.53-.33-.882-.154l-8.822 3.83c-.132.066-.155.198-.132.242 0 .044.022.176.176.22l3.55.638c1.103.33 1.236.704 1.478 1.717v.022l.442 4.138Z"
            class="Vector" />
        </g>
        <g class="Group">
          <g class="Group">
            <path fill="#fff"
              d="M71.766 49.94v.241c0 .023 0 .067-.022.089l-1.676 3.477a.232.232 0 0 1-.198.11h-.353c-.154 0-.265-.176-.199-.308l1.588-3.191v-.022h-1.742a.22.22 0 0 1-.22-.22v-.22c0-.11.088-.22.22-.22h2.36c.154.043.242.153.242.263Z"
              class="Vector" />
          </g>
          <g class="Group">
            <path fill="#fff"
              d="M73.818 51.7c0-.264 0-.484-.022-.704 0-.132.088-.22.22-.22h.243c.11 0 .198.088.22.198l.022.264h.022c.155-.242.42-.528.97-.528.42 0 .729.22.861.572h.022c.11-.176.243-.308.375-.396.176-.132.375-.176.64-.176.507 0 1.036.352 1.036 1.342v1.629a.22.22 0 0 1-.22.22h-.353a.22.22 0 0 1-.22-.22v-1.519c0-.528-.177-.814-.552-.814-.265 0-.463.198-.552.418a.943.943 0 0 0-.044.264v1.65a.22.22 0 0 1-.22.221h-.331a.22.22 0 0 1-.22-.22v-1.585c0-.44-.177-.748-.53-.748-.287 0-.485.22-.573.44-.022.088-.044.176-.044.264v1.629a.22.22 0 0 1-.221.22h-.33a.22.22 0 0 1-.221-.22V51.7h.022Z"
              class="Vector" />
          </g>
          <g class="Group">
            <path fill="#fff"
              d="M80.081 49.895c0 .22-.176.418-.44.418a.424.424 0 0 1-.442-.418c0-.242.177-.418.441-.418.265 0 .441.176.441.418Zm-.838 3.786v-2.685c0-.11.088-.22.22-.22h.354c.11 0 .22.088.22.22v2.685a.22.22 0 0 1-.22.22h-.353c-.133-.022-.22-.11-.22-.22Z"
              class="Vector" />
          </g>
          <g class="Group">
            <path fill="#fff"
              d="M80.875 51.7c0-.264 0-.484-.022-.704 0-.132.088-.22.22-.22h.265c.11 0 .199.088.22.198l.023.264h.022c.132-.242.485-.528.993-.528.55 0 1.102.352 1.102 1.342v1.629a.22.22 0 0 1-.22.22h-.353a.22.22 0 0 1-.22-.22v-1.54c0-.44-.177-.793-.596-.793-.309 0-.53.22-.618.462a.792.792 0 0 0-.044.242v1.629a.22.22 0 0 1-.22.22h-.353a.22.22 0 0 1-.22-.22V51.7h.021Z"
              class="Vector" />
          </g>
          <g class="Group">
            <path fill="#fff"
              d="M87.337 52.955c0 .264 0 .506.022.704 0 .132-.088.22-.22.22h-.265c-.11 0-.198-.088-.22-.198l-.022-.264h-.023c-.132.22-.44.528-1.014.528-.573 0-1.08-.33-1.08-1.364v-1.607c0-.11.088-.22.22-.22h.353c.11 0 .22.088.22.22v1.474c0 .529.177.859.574.859.33 0 .529-.22.595-.418a.788.788 0 0 0 .044-.242v-1.673c0-.11.088-.22.22-.22h.354c.11 0 .22.088.22.22v1.98h.022Z"
              class="Vector" />
          </g>
          <g class="Group">
            <path fill="#fff"
              d="M89.102 50.248v.308c0 .11.088.22.22.22h.331c.11 0 .22.088.22.22v.154a.22.22 0 0 1-.22.22h-.33a.22.22 0 0 0-.221.22v1.166c0 .375.11.573.397.573h.088c.11 0 .22.088.22.198v.198c0 .11-.066.198-.176.22-.11.022-.243.044-.397.044-.287 0-.53-.088-.684-.264-.176-.176-.242-.462-.242-.88V51.59a.22.22 0 0 0-.22-.22h-.023a.22.22 0 0 1-.22-.22v-.154c0-.11.088-.22.22-.22h.022a.22.22 0 0 0 .22-.22v-.198c0-.088.067-.177.155-.199l.353-.088c.132-.066.287.044.287.177Z"
              class="Vector" />
          </g>
          <g class="Group">
            <path fill="#fff"
              d="M91.219 52.559c-.154 0-.243.154-.199.286.133.352.508.506.905.506.264 0 .463-.022.64-.066.11-.022.242.044.264.154l.022.132c.022.11-.044.22-.132.242a2.705 2.705 0 0 1-.905.132c-1.014 0-1.61-.616-1.61-1.563 0-.858.53-1.672 1.522-1.672 1.015 0 1.346.836 1.346 1.518v.132c0 .11-.089.199-.221.199h-1.632Zm.86-.55c.132 0 .243-.133.199-.265-.067-.242-.243-.484-.618-.484-.353 0-.551.22-.662.484-.066.132.044.286.199.286h.882v-.022Z"
              class="Vector" />
          </g>
          <g class="Group">
            <path fill="#fff"
              d="M93.6 53.395c.045-.132.177-.198.288-.132.176.066.396.132.573.132.353 0 .507-.154.507-.352 0-.22-.132-.309-.507-.462-.618-.199-.86-.529-.86-.903 0-.55.463-.968 1.169-.968.242 0 .463.044.64.11.11.044.154.154.132.264l-.044.132c-.045.11-.155.198-.287.154a1.426 1.426 0 0 0-.441-.088c-.287 0-.441.132-.441.33s.154.286.551.44c.573.198.816.484.838.947 0 .572-.441.968-1.257.968-.287 0-.551-.044-.772-.132-.11-.044-.154-.154-.132-.264l.044-.176Z"
              class="Vector" />
          </g>
        </g>
      </g>
    </g>
  </g>
  <defs>
    <clipPath id="a" class="a">
      <path fill="#fff" d="M0 0h369v262H0z" />
    </clipPath>
  </defs>

  <style>
    .pointLoc {
      animation: pointLoc 1s ease-in-out infinite alternate;
    }

    @keyframes pointLoc {
      0% {
        transform: translate(0, 0);
      }

      100% {
        transform: translate(0, 10px);
      }
    }

    .phareRin {
      animation: phare 1s ease-in-out infinite alternate;

    }

    .phareLin {
      animation: phare 1s ease-in-out infinite alternate;

    }

    @keyframes phare {
      0% {
        fill: #8BC0CC;
      }

      100% {
        fill: #D41E45;
      }
    }


    .nuage1 {
      animation: nuage1 2.5s ease-in-out infinite alternate;
    }

    .nuage2 {
      animation: nuage 1.8s ease-in-out infinite alternate;
    }

    .nuage3 {
      animation: nuage 2s ease-in-out infinite alternate;
    }

    @keyframes nuage {
      0% {
        transform: translate(0px, 5px);
      }

      100% {
        transform: translate(10px, 2px);
      }
    }

    @keyframes nuage1 {
      0% {
        transform: translate(0px, 5px);
      }

      100% {
        transform: translate(15px, 2px);
      }
    }
  </style>

</svg>