<svg width="187" height="215" viewBox="0 0 187 215" fill="none" xmlns="http://www.w3.org/2000/svg">
<g clip-path="url(#clip0_55_1008)">
<path d="M114.713 195.696C114.672 195.708 114.672 195.708 114.63 195.72C110.633 196.854 106.413 196.163 103.017 193.832C90.1842 185.053 71.3007 171.213 54.4803 155.189C34.1254 135.749 22.084 118.18 18.7104 102.918C14.689 84.6951 15.3765 68.0552 20.7757 54.844C26.7168 40.2571 38.0536 29.888 54.4077 23.9834C63.9925 20.5258 73.778 19.1255 83.5029 19.8146C92.544 20.4803 101.29 22.8993 109.509 27.0499C127.17 35.9809 140.979 52.3528 146.43 70.8301C150.731 85.413 149.576 105.974 142.929 131.937C137.424 153.511 129.333 174.271 123.496 187.836C121.88 191.69 118.699 194.52 114.713 195.696ZM54.718 24.8826C38.6131 30.7137 27.4887 40.8851 21.6526 55.2159C16.3413 68.266 15.6342 84.6866 19.6482 102.732C22.9606 117.787 34.9116 135.202 55.1346 154.501C71.9013 170.496 90.7311 184.306 103.552 193.043C106.72 195.216 110.655 195.857 114.403 194.796C114.445 194.784 114.445 194.784 114.486 194.772C118.181 193.682 121.192 191.038 122.673 187.493C128.468 173.94 136.571 153.222 142.047 131.702C148.606 105.9 149.81 85.5045 145.558 71.0872C140.169 52.8171 126.557 36.657 109.111 27.8427C101 23.7505 92.3489 21.3485 83.4445 20.6875C73.8808 20.0859 64.2198 21.4494 54.718 24.8826ZM92.5352 125.095C91.4558 125.414 90.3642 125.691 89.2726 125.968C79.3115 128.455 69.2983 127.401 61.0476 122.99C52.6773 118.478 46.5042 110.707 43.6569 101.054C36.8993 78.144 44.8476 62.5597 69.4573 50.5272C77.86 46.4275 86.0949 45.89 93.9545 48.9757C104.42 53.094 113.844 63.7791 119.12 77.5343C123.316 88.5458 123.298 98.2782 119.053 106.375C114.561 114.861 105.446 121.287 92.5352 125.095ZM75.4501 49.1198C73.582 49.6709 71.7212 50.3999 69.8262 51.3191C56.8938 57.6555 48.7068 64.934 44.8647 73.6328C41.501 81.1999 41.376 90.1083 44.5165 100.756C47.2905 110.16 53.3316 117.79 61.4748 122.143C69.5228 126.479 79.3039 127.512 89.0453 125.044C103.414 121.436 113.521 114.852 118.152 105.921C122.28 98.0382 122.258 88.6326 118.178 77.8574C113.004 64.2971 103.778 53.8238 93.5689 49.8099C87.7071 47.531 81.6358 47.2953 75.4501 49.1198Z" fill="#1C3A3E"/>
<path d="M63.9659 21.6594C30.0368 33.9189 20.7609 64.8909 28.5616 100.058C36.2645 134.893 87.8471 173.763 112.646 190.676C119.61 195.467 129.158 192.651 132.473 184.918C143.853 158.324 165.168 101.465 155.355 68.1974C145.188 33.7285 106.134 6.42929 63.9659 21.6594ZM98.562 122.732C78.4028 127.823 59.3615 118.038 53.4837 98.1106C47.6181 78.2247 51.8296 61.446 79.0326 48.1082C102.333 36.6869 120.615 55.5225 128.046 74.9016C136.984 98.4744 126.221 115.835 98.562 122.732Z" fill="#D41E45"/>
</g>
<defs>
<clipPath id="clip0_55_1008">
<rect width="141" height="181.89" fill="white" transform="translate(0 39.881) rotate(-16.43)"/>
</clipPath>
</defs>
</svg>
