<svg width="98" height="118" viewBox="0 0 98 118" fill="none" xmlns="http://www.w3.org/2000/svg">
    <g class='geolocL' clip-path="url(#clip0_55_1009)">
        <path
            d="M37.1658 109.869C37.1412 109.865 37.1412 109.865 37.1166 109.86C34.7622 109.43 32.7569 108 31.5949 105.932C27.1942 98.1321 20.9531 86.1788 16.3336 73.6208C10.7558 58.399 8.99901 46.2577 11.1355 37.5122C13.69 27.0716 18.2756 18.6464 24.4248 13.1912C31.2037 7.16266 39.699 4.68575 49.6523 5.79174C55.485 6.44148 60.8984 8.20554 65.7493 11.0341C70.2528 13.6766 74.158 17.1503 77.3505 21.3849C84.2079 30.4907 87.1827 42.4629 85.302 53.398C83.8177 62.0284 77.9933 72.361 67.9574 84.0898C59.6278 93.84 50.1681 102.512 43.7031 108.04C41.8881 109.621 39.5244 110.274 37.1658 109.869ZM49.5841 6.33537C39.7782 5.25473 31.443 7.68344 24.7834 13.6063C18.7207 19.0006 14.1806 27.3075 11.6676 37.6542C9.55217 46.2771 11.3012 58.3161 16.8468 73.4314C21.4459 85.9606 27.6667 97.8852 32.0716 105.66C33.1565 107.589 35.027 108.92 37.234 109.325C37.2585 109.329 37.2586 109.329 37.2831 109.334C39.4698 109.71 41.698 109.108 43.3648 107.653C49.8053 102.122 59.2607 93.474 67.5616 83.744C77.5111 72.0761 83.3186 61.8416 84.786 53.3093C86.6456 42.4967 83.7193 30.6843 76.9433 21.6935C73.7915 17.5164 69.9312 14.0757 65.4973 11.4703C60.7074 8.72804 55.3677 6.97665 49.5841 6.33537ZM43.6521 67.7422C43.0133 67.6324 42.3787 67.498 41.7442 67.3636C35.9635 66.117 31.0565 63.0264 27.9138 58.6489C24.7347 54.1894 23.5199 48.6036 24.5024 42.8908C26.8343 29.3323 34.9042 23.2986 50.6822 23.3364C56.0672 23.3537 60.4599 25.1694 63.7374 28.7624C68.0994 33.5515 70.2537 41.4698 69.4833 49.9201C68.8523 56.6778 66.369 61.7033 62.1165 64.8089C57.6378 68.0524 51.293 69.0564 43.6521 67.7422ZM54.1372 24.1325C53.0316 23.9424 51.8846 23.8461 50.6715 23.8394C42.3768 23.8265 36.2951 25.5068 32.0979 29.0258C28.4358 32.0815 26.1063 36.6539 25.0226 42.9551C24.0654 48.5207 25.2479 54 28.3498 58.32C31.4069 62.607 36.1995 65.6274 41.8615 66.8284C50.205 68.6168 57.1022 67.7835 61.7662 64.3448C65.9037 61.3203 68.2837 56.4538 68.914 49.8474C69.6878 41.524 67.582 33.7654 63.326 29.0955C60.8759 26.4274 57.798 24.7621 54.1372 24.1325Z"
            fill="#1C3A3E" />
        <path
            d="M55.1831 7.02062C34.531 4.73092 21.863 18.3799 16.9542 38.5382C12.0791 58.5003 28.8565 91.7032 37.3736 106.749C39.7546 110.996 45.4054 111.967 49.0845 108.814C61.7267 97.9623 87.1983 73.9946 90.5843 54.3065C94.0927 33.9073 80.8488 9.86966 55.1831 7.02062ZM47.3677 68.0531C35.6548 65.559 28.3013 55.661 30.3296 43.8678C32.3536 32.099 38.7959 24.498 56.246 24.5204C71.1921 24.5414 75.8519 38.9238 74.7657 50.8286C73.3925 65.2841 63.416 71.52 47.3677 68.0531Z"
            fill="#D41E45" />
    </g>
    <defs>
        <clipPath id="clip0_55_1009">
            <rect width="81.21" height="104.77" fill="white" transform="translate(17.7607) rotate(9.76)" />
        </clipPath>
    </defs>
    <style>
        .geolocL {
            animation: geoloc 0.5s ease-in-out alternate infinite 0.1s;
        }

        @keyframes geoloc {
            0% {
                transform: translate(0, 0) scale(0.98);
            }

            100% {
                transform: translate(0, 2px);
            }
        }
    </style>

</svg>