<svg xmlns="http://www.w3.org/2000/svg" width="251" height="55" fill="none" viewBox="0 0 251 55">
  <g class="searchBtn">
    <rect width="251" height="55" fill="#D41E45" class="Rectangle 1" rx="10" />
    <path fill="#fffbfb"
      d="M62.925 23.087c.875 0 1.577.225 2.106.675.529.451.793 1.062.793 1.834 0 .77-.269 1.373-.806 1.806-.529.425-1.23.637-2.106.637l-.091.066h-2.106v3.561h-1.04v-8.58h3.25Zm-.013 4.043c.615 0 1.07-.126 1.365-.377.303-.26.455-.646.455-1.157 0-.512-.152-.893-.455-1.145-.295-.26-.75-.39-1.365-.39h-2.197v3.069h2.197Zm.598.207 2.834 4.33h-1.235l-2.47-3.758.871-.572Zm9.81 4.33v-8.58h6.02v.974h-4.98v2.77h3.874v.974h-3.873v2.887h5.173v.974H73.32Zm20.016-2.198a3.682 3.682 0 0 1-.78 1.261 3.398 3.398 0 0 1-1.196.793c-.45.183-.945.274-1.482.274-.815 0-1.52-.178-2.119-.534a3.703 3.703 0 0 1-1.378-1.534c-.32-.658-.48-1.442-.48-2.352 0-.91.16-1.695.48-2.354.33-.658.789-1.165 1.378-1.52.598-.364 1.296-.547 2.093-.547a4.36 4.36 0 0 1 1.482.235 2.82 2.82 0 0 1 1.105.675c.312.295.56.66.741 1.093l-1.027.48c-.19-.494-.468-.866-.832-1.117-.355-.26-.819-.39-1.39-.39-.582 0-1.093.138-1.535.416-.442.268-.789.658-1.04 1.17-.243.51-.364 1.13-.364 1.858 0 .72.117 1.34.351 1.86.234.51.568.905 1.001 1.183.433.268.945.402 1.534.402.572 0 1.07-.143 1.495-.429.425-.294.732-.732.923-1.313l1.04.39Zm13.73-6.383v8.58h-1.04v-8.58h1.04Zm-5.694 0v8.58h-1.04v-8.58h1.04Zm5.135 3.745v.974h-5.629v-.974h5.629Zm8.372 4.835v-8.58h6.019v.976h-4.979v2.768h3.874v.976h-3.874v2.886h5.174v.974h-6.214Zm16.54-8.58c.875 0 1.577.226 2.106.677.529.45.793 1.061.793 1.832 0 .772-.269 1.374-.806 1.808-.529.424-1.231.637-2.106.637l-.091.065h-2.106v3.561h-1.04v-8.58h3.25Zm-.013 4.044c.615 0 1.07-.126 1.365-.377.303-.26.455-.646.455-1.157 0-.512-.152-.893-.455-1.145-.295-.26-.75-.39-1.365-.39h-2.197v3.069h2.197Zm.598.207 2.834 4.33h-1.235l-2.47-3.758.871-.572Zm16.65 2.133a3.682 3.682 0 0 1-.78 1.26 3.392 3.392 0 0 1-1.196.793c-.45.183-.944.274-1.482.274-.814 0-1.521-.178-2.119-.534a3.71 3.71 0 0 1-1.378-1.534c-.32-.658-.481-1.442-.481-2.352 0-.91.161-1.695.481-2.354.33-.658.789-1.165 1.378-1.52.598-.364 1.296-.547 2.093-.547.555 0 1.049.079 1.482.235.434.147.802.372 1.105.675.312.295.559.66.741 1.093l-1.027.48c-.19-.494-.468-.866-.832-1.117-.355-.26-.819-.39-1.391-.39-.58 0-1.092.138-1.534.416-.442.268-.788.658-1.04 1.17-.242.51-.364 1.13-.364 1.858 0 .72.117 1.34.351 1.86.234.51.568.905 1.001 1.183.434.268.945.402 1.534.402.572 0 1.071-.143 1.495-.429.425-.294.733-.732.923-1.313l1.04.39Zm13.731-6.383v8.58h-1.04v-8.58h1.04Zm-5.694 0v8.58h-1.04v-8.58h1.04Zm5.135 3.744v.974h-5.629v-.974h5.629Zm8.371 4.835v-8.58h6.019v.976h-4.979v2.768h3.874v.976h-3.874v2.886h5.174v.974h-6.214Zm16.54-8.58c.876 0 1.578.226 2.106.677.529.45.793 1.061.793 1.832 0 .772-.268 1.374-.806 1.808-.528.424-1.23.637-2.106.637l-.091.065h-2.106v3.561h-1.04v-8.58h3.25Zm-.013 4.044c.616 0 1.071-.126 1.365-.377.304-.26.455-.646.455-1.157 0-.512-.151-.893-.455-1.145-.294-.26-.749-.39-1.365-.39h-2.197v3.069h2.197Zm.598.207 2.834 4.33h-1.235l-2.47-3.758.871-.572Z"
      class="Rechercher" />
  </g>
</svg>