<svg width="42" height="40" viewBox="0 0 42 40" fill="none" xmlns="http://www.w3.org/2000/svg">
<path d="M4.26778 13.8929C7.49118 13.8929 10.6963 13.8929 13.9197 13.8929C16.0259 13.8929 18.1138 13.8929 20.22 13.8929C21.3738 13.8929 22.7291 13.7603 23.828 14.0918C25.3847 14.5724 26.5019 15.8321 26.7034 17.3072C26.7584 17.705 26.74 18.0862 26.74 18.484C26.74 20.2408 26.74 21.9977 26.74 23.7546C26.74 25.6606 26.74 27.5501 26.74 29.4561C26.74 31.0804 26.6851 32.6384 25.11 33.7654C23.4434 34.9588 20.9526 34.6107 18.9562 34.6107C17.0698 34.6107 15.1651 34.6107 13.2787 34.6107C13.5351 34.5113 13.7915 34.4118 14.0479 34.3124C12.1248 36.0527 10.2018 37.793 8.27872 39.5332C7.60107 40.1465 6.41061 39.699 6.41061 38.8371C6.41061 37.0968 6.41061 35.3565 6.41061 33.6162C6.77691 33.9477 7.1432 34.2792 7.5095 34.6107C5.49487 34.6107 3.16889 34.9422 1.52056 33.6825C0.000429153 32.5389 0.000429153 30.9644 0.000429153 29.3567C0.000429153 25.7269 0.000429153 22.1137 0.000429153 18.484C0.000429153 17.8541 -0.0178852 17.2409 0.183577 16.6276C0.751335 14.9868 2.39967 13.9592 4.26778 13.8929C5.67802 13.8432 5.67802 15.8321 4.26778 15.8818C3.09563 15.9149 2.25315 16.7105 2.1982 17.7713C2.17989 18.0696 2.1982 18.3679 2.1982 18.6663C2.1982 20.2077 2.1982 21.7325 2.1982 23.2739C2.1982 25.0308 2.1982 26.7877 2.1982 28.5445C2.1982 29.4064 1.97843 30.6163 2.34472 31.445C3.09563 33.1522 5.91611 32.6384 7.5095 32.6384C8.09557 32.6384 8.60839 33.0859 8.60839 33.6328C8.60839 35.3731 8.60839 37.1134 8.60839 38.8537C7.98568 38.6217 7.36298 38.3896 6.74028 38.1576C8.1322 36.8979 9.54244 35.6217 10.9344 34.3621C11.4472 33.898 11.9417 33.3676 12.4911 32.9533C13.0589 32.5389 13.7732 32.6549 14.4508 32.6549C16.7768 32.6549 19.1028 32.6549 21.4287 32.6549C22.2163 32.6549 23.0404 32.7378 23.7181 32.2903C24.4141 31.8096 24.5423 31.1135 24.5423 30.3843C24.5423 26.4893 24.5423 22.5944 24.5423 18.6994C24.5423 18.2188 24.6155 17.6552 24.4324 17.1912C24.1027 16.3293 23.2419 15.9315 22.2895 15.9149C20.6412 15.8984 18.9929 15.9149 17.3445 15.9149C12.9856 15.9149 8.6267 15.9149 4.26778 15.9149C2.85754 15.8818 2.85754 13.8929 4.26778 13.8929Z" fill="#334747"/>
<path d="M37.3839 0.0313041C33.8974 0.0313041 30.4307 0.0313041 26.9442 0.0313041C24.6661 0.0313041 22.4078 0.0313041 20.1297 0.0313041C18.8817 0.0313041 17.4158 -0.127173 16.2272 0.269019C14.5434 0.843498 13.335 2.34903 13.1171 4.11208C13.0577 4.58751 13.0775 5.04314 13.0775 5.51857C13.0775 7.61839 13.0775 9.7182 13.0775 11.818C13.0775 14.0961 13.0775 16.3544 13.0775 18.6325C13.0775 20.5739 13.1369 22.436 14.8406 23.783C16.6432 25.2093 19.3373 24.7933 21.4966 24.7933C23.537 24.7933 25.5972 24.7933 27.6376 24.7933C27.3602 24.6745 27.0829 24.5556 26.8056 24.4367C28.8856 26.5168 30.9656 28.5968 33.0456 30.6768C33.7785 31.4097 35.0662 30.8749 35.0662 29.8448C35.0662 27.7648 35.0662 25.6847 35.0662 23.6047C34.67 24.0009 34.2738 24.3971 33.8776 24.7933C36.0566 24.7933 38.5725 25.1895 40.3553 23.684C41.9995 22.3171 41.9995 20.4352 41.9995 18.5137C41.9995 14.1754 41.9995 9.85687 41.9995 5.51857C41.9995 4.7658 42.0193 4.03285 41.8014 3.29989C41.1873 1.33874 39.4045 0.110543 37.3839 0.0313041C35.8585 -0.0281248 35.8585 2.34903 37.3839 2.40846C38.6517 2.44808 39.5629 3.39894 39.6224 4.66675C39.6422 5.02333 39.6224 5.3799 39.6224 5.73647C39.6224 7.57877 39.6224 9.40125 39.6224 11.2435C39.6224 13.3434 39.6224 15.4432 39.6224 17.543C39.6224 18.5731 39.8601 20.0192 39.4639 21.0097C38.6517 23.0501 35.601 22.436 33.8776 22.436C33.2437 22.436 32.689 22.9708 32.689 23.6246C32.689 25.7046 32.689 27.7846 32.689 29.8646C33.3625 29.5872 34.0361 29.3099 34.7096 29.0326C33.2041 27.527 31.6787 26.0017 30.1732 24.4962C29.6185 23.9415 29.0837 23.3076 28.4894 22.8124C27.8753 22.3171 27.1027 22.4558 26.3697 22.4558C23.8539 22.4558 21.3381 22.4558 18.8223 22.4558C17.9705 22.4558 17.079 22.5548 16.3461 22.02C15.5933 21.4455 15.4546 20.6135 15.4546 19.7419C15.4546 15.0866 15.4546 10.4313 15.4546 5.77609C15.4546 5.20161 15.3754 4.52809 15.5735 3.97342C15.9301 2.94332 16.8611 2.46789 17.8912 2.44808C19.6741 2.42827 21.457 2.44808 23.2398 2.44808C27.9545 2.44808 32.6692 2.44808 37.3839 2.44808C38.9092 2.40846 38.9092 0.0313041 37.3839 0.0313041Z" fill="#334747"/>
<g clip-path="url(#clip0_11_671)">
<path d="M37.3807 1.22821H17.69C15.8081 1.22821 14.2629 2.77336 14.2629 4.65527V20.186C14.2629 22.0679 15.8081 23.6131 17.69 23.6131H27.6344L33.8744 29.8531V23.6131H37.3807C39.2626 23.6131 40.8078 22.0679 40.8078 20.186V4.65527C40.8078 2.77336 39.2626 1.22821 37.3807 1.22821Z" fill="white"/>
<path d="M37.3807 0.039788C33.8942 0.039788 30.4275 0.039788 26.941 0.039788C24.6629 0.039788 22.4046 0.039788 20.1265 0.039788C18.8785 0.039788 17.4126 -0.118689 16.224 0.277503C14.5402 0.851982 13.3318 2.35751 13.1139 4.12057C13.0545 4.596 13.0743 5.05162 13.0743 5.52705C13.0743 7.62687 13.0743 9.72669 13.0743 11.8265C13.0743 14.1046 13.0743 16.3629 13.0743 18.641C13.0743 20.5824 13.1337 22.4445 14.8373 23.7915C16.64 25.2178 19.3341 24.8018 21.4934 24.8018C23.5337 24.8018 25.5939 24.8018 27.6343 24.8018C27.357 24.6829 27.0797 24.5641 26.8023 24.4452C28.8823 26.5252 30.9624 28.6052 33.0424 30.6852C33.7753 31.4182 35.0629 30.8833 35.0629 29.8532C35.0629 27.7732 35.0629 25.6932 35.0629 23.6132C34.6667 24.0094 34.2706 24.4056 33.8744 24.8018C36.0534 24.8018 38.5692 25.198 40.3521 23.6925C41.9963 22.3256 41.9963 20.4437 41.9963 18.5222C41.9963 14.1838 41.9963 9.86535 41.9963 5.52705C41.9963 4.77428 42.0161 4.04133 41.7982 3.30837C41.1841 1.34722 39.4012 0.119026 37.3807 0.039788C35.8553 -0.0196409 35.8553 2.35751 37.3807 2.41694C38.6485 2.45656 39.5597 3.40742 39.6192 4.67524C39.639 5.03181 39.6192 5.38838 39.6192 5.74496C39.6192 7.58725 39.6192 9.40973 39.6192 11.252C39.6192 13.3518 39.6192 15.4517 39.6192 17.5515C39.6192 18.5816 39.8569 20.0277 39.4607 21.0182C38.6485 23.0586 35.5978 22.4445 33.8744 22.4445C33.2405 22.4445 32.6858 22.9793 32.6858 23.633C32.6858 25.713 32.6858 27.793 32.6858 29.8731C33.3593 29.5957 34.0328 29.3184 34.7064 29.0411C33.2008 27.5355 31.6755 26.0102 30.17 24.5047C29.6153 23.95 29.0804 23.3161 28.4862 22.8208C27.8721 22.3256 27.0995 22.4643 26.3665 22.4643C23.8507 22.4643 21.3349 22.4643 18.8191 22.4643C17.9672 22.4643 17.0758 22.5633 16.3429 22.0285C15.5901 21.454 15.4514 20.622 15.4514 19.7503C15.4514 15.0951 15.4514 10.4398 15.4514 5.78457C15.4514 5.2101 15.3722 4.53657 15.5703 3.9819C15.9269 2.9518 16.8579 2.47637 17.888 2.45656C19.6709 2.43675 21.4537 2.45656 23.2366 2.45656C27.9513 2.45656 32.666 2.45656 37.3807 2.45656C38.906 2.41694 38.906 0.039788 37.3807 0.039788Z" fill="#334747"/>
</g>
<path d="M28.4558 8.00039C29.2828 8.00039 30.1099 8.00714 30.937 8.00039C31.7371 7.98689 32.3288 8.32436 32.7457 8.99928C33.0214 9.44474 33.324 9.87669 33.5728 10.3424C33.7745 10.7204 34.0569 10.9633 34.4537 11.1051C34.7562 11.2198 35.0521 11.3615 35.3345 11.51C35.8724 11.7935 36.1481 12.2592 36.1683 12.8666C36.1817 13.2243 36.175 13.582 36.1683 13.9398C36.1548 14.9117 35.5564 15.5393 34.5881 15.5663C34.3259 15.5731 34.2116 15.6473 34.0973 15.8903C33.7543 16.6395 33.1425 17.0309 32.3154 17.0309C31.5018 17.0309 30.8966 16.6327 30.5671 15.8971C30.4461 15.6271 30.3049 15.5731 30.0494 15.5731C28.328 15.5798 26.6066 15.5798 24.8853 15.5731C24.6499 15.5731 24.5222 15.6271 24.4146 15.8701C24.0716 16.6327 23.4598 17.0377 22.6192 17.0309C21.7922 17.0242 21.1937 16.6192 20.8643 15.8633C20.7634 15.6406 20.6424 15.5798 20.4205 15.5596C19.6136 15.4921 19.042 14.8914 19.0084 14.0882C18.995 13.7508 19.0017 13.4201 19.0017 13.0826C19.0151 12.3064 19.4387 11.7395 20.1851 11.5303C20.9248 11.321 21.6711 11.1321 22.4108 10.9093C22.6058 10.8486 22.8142 10.7204 22.942 10.5584C23.3858 10.0117 23.8094 9.44474 24.2263 8.88455C24.6634 8.29736 25.2349 8.00039 25.9746 8.00714C26.8016 8.00714 27.6287 8.00039 28.4558 8.00039ZM34.299 14.8374C35.0924 14.9387 35.4555 14.6214 35.4555 13.825C35.4555 13.5213 35.4555 13.2176 35.4555 12.9206C35.4555 12.5157 35.2673 12.2457 34.9042 12.077C34.5007 11.8947 34.0838 11.7192 33.6938 11.51C33.5257 11.4223 33.3576 11.2805 33.2568 11.1253C32.8668 10.5381 32.5037 9.93743 32.1338 9.33675C31.8649 8.89804 31.4749 8.68882 30.9638 8.68882C29.3097 8.68882 27.6556 8.68882 26.0015 8.68882C25.4972 8.68882 25.0937 8.87105 24.7911 9.28275C24.3204 9.91719 23.843 10.5516 23.3454 11.1726C23.2311 11.3143 23.0429 11.4425 22.868 11.4965C22.0477 11.7395 21.2274 11.9555 20.4137 12.1782C20.0372 12.2794 19.7548 12.4887 19.7212 12.9004C19.6943 13.3121 19.6875 13.7305 19.7279 14.1422C19.775 14.6417 20.1649 14.8982 20.676 14.8374C21.066 13.6765 21.6577 13.1163 22.5856 13.1433C22.9689 13.1501 23.3791 13.2918 23.7153 13.4741C24.2465 13.7575 24.4818 14.284 24.5894 14.8577C26.5394 14.8577 28.4558 14.8577 30.3721 14.8577C30.6478 13.7778 31.3135 13.1703 32.2481 13.1298C33.2299 13.0826 33.8754 13.6225 34.299 14.8374ZM21.4022 15.0601C21.3955 15.7621 21.9603 16.329 22.6461 16.3223C23.3186 16.3155 23.8834 15.7553 23.8901 15.0871C23.8968 14.3987 23.332 13.8318 22.6394 13.8318C21.9468 13.8318 21.4089 14.3717 21.4022 15.0601ZM33.5661 15.0601C33.5593 14.3717 33.0147 13.8318 32.3356 13.8318C31.643 13.8318 31.0714 14.3987 31.0849 15.0871C31.0916 15.7553 31.6632 16.3223 32.3288 16.3223C33.0147 16.329 33.5728 15.7621 33.5661 15.0601Z" fill="#D41E45"/>
<path d="M34.299 14.8374C33.8754 13.6225 33.2231 13.0826 32.2549 13.1231C31.3202 13.1636 30.6545 13.771 30.3788 14.8509C28.4625 14.8509 26.5461 14.8509 24.5961 14.8509C24.4885 14.284 24.2465 13.7508 23.722 13.4673C23.3791 13.2851 22.9689 13.1501 22.5923 13.1366C21.6577 13.1096 21.0727 13.6698 20.6827 14.8307C20.1717 14.8914 19.7817 14.6349 19.7346 14.1355C19.6943 13.7238 19.701 13.3053 19.7279 12.8936C19.7548 12.4819 20.0372 12.2727 20.4205 12.1714C21.2408 11.9487 22.0611 11.7327 22.8748 11.4898C23.0496 11.4358 23.2379 11.3143 23.3522 11.1658C23.8497 10.5449 24.3272 9.91044 24.7978 9.27601C25.1004 8.8643 25.5039 8.68207 26.0082 8.68207C27.6623 8.68882 29.3164 8.68207 30.9706 8.68207C31.4816 8.68207 31.8716 8.8913 32.1406 9.33C32.5104 9.93069 32.8735 10.5314 33.2635 11.1186C33.3711 11.2738 33.5324 11.4155 33.7005 11.5033C34.0973 11.7125 34.5074 11.8812 34.9109 12.0702C35.274 12.2322 35.4623 12.5089 35.4623 12.9139C35.4623 13.2176 35.4623 13.5213 35.4623 13.8183C35.4555 14.6214 35.0924 14.9387 34.299 14.8374Z" fill="#D41E45"/>
<defs>
<clipPath id="clip0_11_671">
<rect width="28.922" height="31.0219" fill="white" transform="translate(13.0743)"/>
</clipPath>
</defs>
</svg>
