<svg width="251" height="80" viewBox="0 0 251 80" fill="none" xmlns="http://www.w3.org/2000/svg">
<path d="M113.604 34H99.78C99.324 34 98.988 33.904 98.772 33.712C98.58 33.496 98.484 33.16 98.484 32.704V9.376C98.484 8.92 98.58 8.596 98.772 8.404C98.988 8.188 99.324 8.08 99.78 8.08H111.264C113.616 8.08 115.356 8.536 116.484 9.448C117.612 10.336 118.176 11.716 118.176 13.588V15.316C118.176 16.324 117.996 17.152 117.636 17.8C117.3 18.424 116.772 18.892 116.052 19.204C117.588 19.348 118.728 19.876 119.472 20.788C120.216 21.7 120.588 23.032 120.588 24.784V28.096C120.588 30.112 120.012 31.6 118.86 32.56C117.732 33.52 115.98 34 113.604 34ZM106.584 14.2V18.088H109.644C110.1 18.088 110.436 17.968 110.652 17.728C110.892 17.488 111.012 17.128 111.012 16.648V15.64C111.012 15.16 110.892 14.8 110.652 14.56C110.436 14.32 110.1 14.2 109.644 14.2H106.584ZM106.584 23.632V27.88H111.264C111.72 27.88 112.056 27.76 112.272 27.52C112.512 27.28 112.632 26.92 112.632 26.44V25.036C112.632 24.556 112.512 24.208 112.272 23.992C112.056 23.752 111.72 23.632 111.264 23.632H106.584ZM144.19 34H125.866C125.41 34 125.074 33.904 124.858 33.712C124.666 33.496 124.57 33.16 124.57 32.704V9.376C124.57 8.92 124.666 8.596 124.858 8.404C125.074 8.188 125.41 8.08 125.866 8.08H131.446C131.902 8.08 132.226 8.188 132.418 8.404C132.634 8.596 132.742 8.92 132.742 9.376V27.196H137.674V21.364C137.674 20.908 137.77 20.584 137.962 20.392C138.178 20.176 138.514 20.068 138.97 20.068H144.19C144.646 20.068 144.97 20.176 145.162 20.392C145.378 20.584 145.486 20.908 145.486 21.364V32.704C145.486 33.16 145.378 33.496 145.162 33.712C144.97 33.904 144.646 34 144.19 34ZM158.997 15.64L157.305 21.112H162.957L161.265 15.64C161.169 15.424 161.061 15.268 160.941 15.172C160.845 15.076 160.725 15.028 160.581 15.028H159.681C159.537 15.028 159.405 15.076 159.285 15.172C159.189 15.268 159.093 15.424 158.997 15.64ZM156.945 32.704C156.945 33.16 156.837 33.496 156.621 33.712C156.429 33.904 156.105 34 155.649 34H150.357C149.901 34 149.565 33.904 149.349 33.712C149.157 33.496 149.061 33.16 149.061 32.704V23.2C149.061 22.48 149.169 21.652 149.385 20.716C149.625 19.78 149.985 18.688 150.465 17.44L153.597 9.268C153.741 8.86 153.957 8.56 154.245 8.368C154.557 8.176 154.953 8.08 155.433 8.08H165.117C165.573 8.08 165.945 8.176 166.233 8.368C166.545 8.56 166.773 8.86 166.917 9.268L170.049 17.44C170.529 18.688 170.877 19.78 171.093 20.716C171.333 21.652 171.453 22.48 171.453 23.2V32.704C171.453 33.16 171.345 33.496 171.129 33.712C170.937 33.904 170.613 34 170.157 34H164.721C164.241 34 163.881 33.904 163.641 33.712C163.425 33.496 163.317 33.16 163.317 32.704V27.664H156.945V32.704ZM191.018 34H177.194C176.738 34 176.402 33.904 176.186 33.712C175.994 33.496 175.898 33.16 175.898 32.704V9.376C175.898 8.92 175.994 8.596 176.186 8.404C176.402 8.188 176.738 8.08 177.194 8.08H188.678C191.03 8.08 192.77 8.536 193.898 9.448C195.026 10.336 195.59 11.716 195.59 13.588V15.316C195.59 16.324 195.41 17.152 195.05 17.8C194.714 18.424 194.186 18.892 193.466 19.204C195.002 19.348 196.142 19.876 196.886 20.788C197.63 21.7 198.002 23.032 198.002 24.784V28.096C198.002 30.112 197.426 31.6 196.274 32.56C195.146 33.52 193.394 34 191.018 34ZM183.998 14.2V18.088H187.058C187.514 18.088 187.85 17.968 188.066 17.728C188.306 17.488 188.426 17.128 188.426 16.648V15.64C188.426 15.16 188.306 14.8 188.066 14.56C187.85 14.32 187.514 14.2 187.058 14.2H183.998ZM183.998 23.632V27.88H188.678C189.134 27.88 189.47 27.76 189.686 27.52C189.926 27.28 190.046 26.92 190.046 26.44V25.036C190.046 24.556 189.926 24.208 189.686 23.992C189.47 23.752 189.134 23.632 188.678 23.632H183.998ZM221.604 34H203.28C202.824 34 202.488 33.904 202.272 33.712C202.08 33.496 201.984 33.16 201.984 32.704V9.376C201.984 8.92 202.08 8.596 202.272 8.404C202.488 8.188 202.824 8.08 203.28 8.08H208.86C209.316 8.08 209.64 8.188 209.832 8.404C210.048 8.596 210.156 8.92 210.156 9.376V27.196H215.088V21.364C215.088 20.908 215.184 20.584 215.376 20.392C215.592 20.176 215.928 20.068 216.384 20.068H221.604C222.06 20.068 222.384 20.176 222.576 20.392C222.792 20.584 222.9 20.908 222.9 21.364V32.704C222.9 33.16 222.792 33.496 222.576 33.712C222.384 33.904 222.06 34 221.604 34ZM236.411 15.64L234.719 21.112H240.371L238.679 15.64C238.583 15.424 238.475 15.268 238.355 15.172C238.259 15.076 238.139 15.028 237.995 15.028H237.095C236.951 15.028 236.819 15.076 236.699 15.172C236.603 15.268 236.507 15.424 236.411 15.64ZM234.359 32.704C234.359 33.16 234.251 33.496 234.035 33.712C233.843 33.904 233.519 34 233.063 34H227.771C227.315 34 226.979 33.904 226.763 33.712C226.571 33.496 226.475 33.16 226.475 32.704V23.2C226.475 22.48 226.583 21.652 226.799 20.716C227.039 19.78 227.399 18.688 227.879 17.44L231.011 9.268C231.155 8.86 231.371 8.56 231.659 8.368C231.971 8.176 232.367 8.08 232.847 8.08H242.531C242.987 8.08 243.359 8.176 243.647 8.368C243.959 8.56 244.187 8.86 244.331 9.268L247.463 17.44C247.943 18.688 248.291 19.78 248.507 20.716C248.747 21.652 248.867 22.48 248.867 23.2V32.704C248.867 33.16 248.759 33.496 248.543 33.712C248.351 33.904 248.027 34 247.571 34H242.135C241.655 34 241.295 33.904 241.055 33.712C240.839 33.496 240.731 33.16 240.731 32.704V27.664H234.359V32.704Z" fill="#334747"/>
<path d="M115.728 68H106.944C103.944 68 101.712 67.4 100.248 66.2C98.808 65 98.088 63.152 98.088 60.656V49.46C98.088 46.964 98.808 45.116 100.248 43.916C101.712 42.692 103.944 42.08 106.944 42.08H115.728C116.184 42.08 116.508 42.188 116.7 42.404C116.916 42.596 117.024 42.92 117.024 43.376V47.732C117.024 48.188 116.916 48.524 116.7 48.74C116.508 48.932 116.184 49.028 115.728 49.028H108.492C107.748 49.028 107.196 49.184 106.836 49.496C106.476 49.784 106.296 50.228 106.296 50.828V59.396C106.296 59.996 106.476 60.44 106.836 60.728C107.196 60.992 107.748 61.124 108.492 61.124H115.728C116.184 61.124 116.508 61.232 116.7 61.448C116.916 61.64 117.024 61.964 117.024 62.42V66.704C117.024 67.16 116.916 67.496 116.7 67.712C116.508 67.904 116.184 68 115.728 68ZM130.485 49.64L128.793 55.112H134.445L132.753 49.64C132.657 49.424 132.549 49.268 132.429 49.172C132.333 49.076 132.213 49.028 132.069 49.028H131.169C131.025 49.028 130.893 49.076 130.773 49.172C130.677 49.268 130.581 49.424 130.485 49.64ZM128.433 66.704C128.433 67.16 128.325 67.496 128.109 67.712C127.917 67.904 127.593 68 127.137 68H121.845C121.389 68 121.053 67.904 120.837 67.712C120.645 67.496 120.549 67.16 120.549 66.704V57.2C120.549 56.48 120.657 55.652 120.873 54.716C121.113 53.78 121.473 52.688 121.953 51.44L125.085 43.268C125.229 42.86 125.445 42.56 125.733 42.368C126.045 42.176 126.441 42.08 126.921 42.08H136.605C137.061 42.08 137.433 42.176 137.721 42.368C138.033 42.56 138.261 42.86 138.405 43.268L141.537 51.44C142.017 52.688 142.365 53.78 142.581 54.716C142.821 55.652 142.941 56.48 142.941 57.2V66.704C142.941 67.16 142.833 67.496 142.617 67.712C142.425 67.904 142.101 68 141.645 68H136.209C135.729 68 135.369 67.904 135.129 67.712C134.913 67.496 134.805 67.16 134.805 66.704V61.664H128.433V66.704ZM154.046 68H148.682C148.226 68 147.89 67.904 147.674 67.712C147.482 67.496 147.386 67.16 147.386 66.704V43.376C147.386 42.92 147.482 42.596 147.674 42.404C147.89 42.188 148.226 42.08 148.682 42.08H154.478C154.862 42.08 155.174 42.164 155.414 42.332C155.678 42.5 155.918 42.776 156.134 43.16L159.374 49.028C159.494 49.244 159.59 49.4 159.662 49.496C159.758 49.592 159.878 49.64 160.022 49.64H160.346C160.49 49.64 160.598 49.592 160.67 49.496C160.766 49.4 160.874 49.244 160.994 49.028L164.198 43.16C164.414 42.776 164.642 42.5 164.882 42.332C165.146 42.164 165.47 42.08 165.854 42.08H171.686C172.142 42.08 172.466 42.188 172.658 42.404C172.874 42.596 172.982 42.92 172.982 43.376V66.704C172.982 67.16 172.874 67.496 172.658 67.712C172.466 67.904 172.142 68 171.686 68H166.142C165.686 68 165.35 67.904 165.134 67.712C164.942 67.496 164.846 67.16 164.846 66.704V54.032L162.722 57.956C162.506 58.364 162.242 58.664 161.93 58.856C161.642 59.024 161.27 59.108 160.814 59.108H159.374C158.918 59.108 158.534 59.024 158.222 58.856C157.934 58.664 157.682 58.364 157.466 57.956L155.342 54.032V66.704C155.342 67.16 155.234 67.496 155.018 67.712C154.826 67.904 154.502 68 154.046 68ZM184.813 68H179.233C178.777 68 178.441 67.904 178.225 67.712C178.033 67.496 177.937 67.16 177.937 66.704V43.376C177.937 42.92 178.033 42.596 178.225 42.404C178.441 42.188 178.777 42.08 179.233 42.08H190.249C193.513 42.08 195.745 42.728 196.945 44.024C198.145 45.32 198.745 47.012 198.745 49.1V53.708C198.745 55.796 198.145 57.488 196.945 58.784C195.745 60.08 193.513 60.728 190.249 60.728H186.109V66.704C186.109 67.16 186.001 67.496 185.785 67.712C185.593 67.904 185.269 68 184.813 68ZM186.037 48.812V54.248H189.277C189.973 54.248 190.429 54.068 190.645 53.708C190.861 53.348 190.969 52.94 190.969 52.484V50.576C190.969 50.12 190.861 49.712 190.645 49.352C190.429 48.992 189.973 48.812 189.277 48.812H186.037ZM224.544 61.196C224.544 62.3 224.376 63.308 224.04 64.22C223.728 65.108 223.152 65.876 222.312 66.524C221.496 67.148 220.368 67.64 218.928 68C217.488 68.36 215.652 68.54 213.42 68.54C211.188 68.54 209.352 68.36 207.912 68C206.472 67.64 205.332 67.148 204.492 66.524C203.676 65.876 203.1 65.108 202.764 64.22C202.452 63.308 202.296 62.3 202.296 61.196V43.376C202.296 42.92 202.392 42.596 202.584 42.404C202.8 42.188 203.136 42.08 203.592 42.08H209.244C209.7 42.08 210.024 42.188 210.216 42.404C210.432 42.596 210.54 42.92 210.54 43.376V59.792C210.54 60.272 210.72 60.68 211.08 61.016C211.44 61.328 212.244 61.484 213.492 61.484C214.764 61.484 215.58 61.328 215.94 61.016C216.3 60.68 216.48 60.272 216.48 59.792V43.376C216.48 42.92 216.576 42.596 216.768 42.404C216.984 42.188 217.32 42.08 217.776 42.08H223.248C223.704 42.08 224.028 42.188 224.22 42.404C224.436 42.596 224.544 42.92 224.544 43.376V61.196ZM241.36 68H229.984C229.528 68 229.192 67.904 228.976 67.712C228.784 67.496 228.688 67.16 228.688 66.704V62.492C228.688 62.036 228.784 61.712 228.976 61.52C229.192 61.304 229.528 61.196 229.984 61.196H239.668C239.98 61.196 240.208 61.1 240.352 60.908C240.52 60.692 240.604 60.44 240.604 60.152C240.604 59.744 240.52 59.444 240.352 59.252C240.208 59.06 239.98 58.952 239.668 58.928L234.268 58.172C232.588 57.932 231.232 57.38 230.2 56.516C229.192 55.652 228.688 54.212 228.688 52.196V48.416C228.688 46.376 229.348 44.816 230.668 43.736C231.988 42.632 233.812 42.08 236.14 42.08H246.22C246.676 42.08 247 42.188 247.192 42.404C247.408 42.596 247.516 42.92 247.516 43.376V47.66C247.516 48.116 247.408 48.452 247.192 48.668C247 48.86 246.676 48.956 246.22 48.956H237.832C237.52 48.956 237.28 49.064 237.112 49.28C236.944 49.472 236.86 49.724 236.86 50.036C236.86 50.348 236.944 50.612 237.112 50.828C237.28 51.044 237.52 51.164 237.832 51.188L243.196 51.908C244.876 52.148 246.232 52.7 247.264 53.564C248.296 54.428 248.812 55.868 248.812 57.884V61.664C248.812 63.704 248.14 65.276 246.796 66.38C245.476 67.46 243.664 68 241.36 68Z" fill="#D41E45"/>
<path d="M8.53559 27.7858C14.9824 27.7858 21.3926 27.7858 27.8394 27.7858C32.0518 27.7858 36.2276 27.7858 40.44 27.7858C42.7476 27.7858 45.4582 27.5207 47.656 28.1836C50.7695 29.1449 53.0039 31.6642 53.4068 34.6144C53.5167 35.41 53.4801 36.1724 53.4801 36.968C53.4801 40.4817 53.4801 43.9955 53.4801 47.5092C53.4801 51.3213 53.4801 55.1002 53.4801 58.9123C53.4801 62.1608 53.3702 65.2768 50.2201 67.5309C46.8868 69.9176 41.9051 69.2215 37.9125 69.2215C34.1397 69.2215 30.3302 69.2215 26.5574 69.2215C27.0702 69.0226 27.583 68.8237 28.0958 68.6248C24.2497 72.1054 20.4036 75.586 16.5575 79.0666C15.2022 80.2931 12.8213 79.398 12.8213 77.6743C12.8213 74.1937 12.8213 70.7131 12.8213 67.2325C13.5538 67.8955 14.2864 68.5585 15.019 69.2215C10.9898 69.2215 6.33781 69.8844 3.04115 67.3651C0.000893534 65.0779 0.000892486 61.9288 0.000892486 58.7134C0.000892486 51.4539 0.000892486 44.2275 0.000892486 36.968C0.000892486 35.7083 -0.0357371 34.4818 0.367188 33.2553C1.50271 29.9736 4.79937 27.9184 8.53559 27.7858C11.3561 27.6864 11.3561 31.6642 8.53559 31.7637C6.1913 31.83 4.50633 33.4211 4.39644 35.5426C4.35981 36.1393 4.39644 36.7359 4.39644 37.3326C4.39644 40.4154 4.39644 43.4651 4.39644 46.5479C4.39644 50.0616 4.39644 53.5754 4.39644 57.0891C4.39644 58.8128 3.95689 61.2327 4.68948 62.8901C6.19129 66.3044 11.8323 65.2768 15.019 65.2768C16.1912 65.2768 17.2168 66.1718 17.2168 67.2657C17.2168 70.7463 17.2168 74.2269 17.2168 77.7075C15.9714 77.2434 14.726 76.7793 13.4806 76.3152C16.2644 73.7959 19.0849 71.2435 21.8688 68.7242C22.8944 67.7961 23.8834 66.7353 24.9823 65.9066C26.1178 65.0779 27.5464 65.3099 28.9016 65.3099C33.5536 65.3099 38.2056 65.3099 42.8575 65.3099C44.4326 65.3099 46.0809 65.4757 47.4362 64.5807C48.8281 63.6194 49.0846 62.2271 49.0846 60.7686C49.0846 52.9787 49.0846 45.1888 49.0846 37.3989C49.0846 36.4376 49.2311 35.3106 48.8648 34.3824C48.2054 32.6587 46.4838 31.8631 44.5791 31.83C41.2824 31.7968 37.9858 31.83 34.6891 31.83C25.9713 31.83 17.2534 31.83 8.53559 31.83C5.71511 31.7637 5.71511 27.7858 8.53559 27.7858Z" fill="#334747"/>
<path d="M74.7678 0.0626082C67.7948 0.0626082 60.8615 0.0626082 53.8885 0.0626082C49.3323 0.0626082 44.8157 0.0626082 40.2595 0.0626082C37.7635 0.0626082 34.8316 -0.254346 32.4545 0.538039C29.0868 1.687 26.6701 4.69806 26.2343 8.22417C26.1154 9.17503 26.155 10.0863 26.155 11.0371C26.155 15.2368 26.155 19.4364 26.155 23.636C26.155 28.1923 26.155 32.7088 26.155 37.2651C26.155 41.1477 26.2739 44.8719 29.6811 47.5661C33.2865 50.4186 38.6747 49.5866 42.9932 49.5866C47.074 49.5866 51.1944 49.5866 55.2751 49.5866C54.7205 49.3489 54.1658 49.1112 53.6111 48.8735C57.7712 53.0335 61.9312 57.1935 66.0912 61.3535C67.5571 62.8194 70.1324 61.7497 70.1324 59.6895C70.1324 55.5295 70.1324 51.3695 70.1324 47.2095C69.34 48.0019 68.5476 48.7942 67.7552 49.5866C72.1133 49.5866 77.145 50.379 80.7107 47.368C83.9991 44.6342 83.9991 40.8704 83.9991 37.0273C83.9991 28.3507 83.9991 19.7137 83.9991 11.0371C83.9991 9.5316 84.0387 8.06569 83.6029 6.59978C82.3747 2.67748 78.809 0.221085 74.7678 0.0626082C71.7171 -0.0562495 71.7171 4.69806 74.7678 4.81691C77.3034 4.89615 79.1259 6.79788 79.2448 9.33351C79.2844 10.0467 79.2448 10.7598 79.2448 11.4729C79.2448 15.1575 79.2448 18.8025 79.2448 22.4871C79.2448 26.6867 79.2448 30.8864 79.2448 35.086C79.2448 37.1462 79.7202 40.0384 78.9278 42.0194C77.3034 46.1001 71.2021 44.8719 67.7552 44.8719C66.4874 44.8719 65.378 45.9417 65.378 47.2491C65.378 51.4091 65.378 55.5691 65.378 59.7292C66.7251 59.1745 68.0722 58.6198 69.4192 58.0651C66.4081 55.0541 63.3575 52.0034 60.3464 48.9923C59.2371 47.883 58.1674 46.6152 56.9788 45.6247C55.7506 44.6342 54.2054 44.9116 52.7395 44.9116C47.7079 44.9116 42.6762 44.9116 37.6446 44.9116C35.941 44.9116 34.1581 45.1097 32.6922 44.0399C31.1867 42.891 30.9093 41.227 30.9093 39.4837C30.9093 30.1732 30.9093 20.8627 30.9093 11.5522C30.9093 10.4032 30.7509 9.05617 31.147 7.94683C31.8602 5.88663 33.7223 4.93577 35.7825 4.89615C39.3482 4.85653 42.9139 4.89615 46.4797 4.89615C55.9091 4.89615 65.3384 4.89615 74.7678 4.89615C77.8185 4.81691 77.8185 0.0626082 74.7678 0.0626082Z" fill="#334747"/>
<g clip-path="url(#clip0_107_264)">
<path d="M74.7615 2.45642H35.38C31.6161 2.45642 28.5258 5.54672 28.5258 9.31054V40.372C28.5258 44.1358 31.6161 47.2261 35.38 47.2261H55.2688L67.7489 59.7062V47.2261H74.7615C78.5253 47.2261 81.6156 44.1358 81.6156 40.372V9.31054C81.6156 5.54672 78.5253 2.45642 74.7615 2.45642Z" fill="white"/>
<path d="M74.7614 0.0794538C67.7884 0.0794538 60.855 0.0794538 53.8821 0.0794538C49.3259 0.0794538 44.8093 0.0794538 40.2531 0.0794538C37.757 0.0794538 34.8252 -0.2375 32.4481 0.554884C29.0804 1.70384 26.6637 4.7149 26.2279 8.24101C26.109 9.19187 26.1486 10.1031 26.1486 11.054C26.1486 15.2536 26.1486 19.4532 26.1486 23.6529C26.1486 28.2091 26.1486 32.7257 26.1486 37.2819C26.1486 41.1646 26.2675 44.8888 29.6747 47.5829C33.2801 50.4355 38.6683 49.6035 42.9868 49.6035C47.0676 49.6035 51.188 49.6035 55.2687 49.6035C54.7141 49.3657 54.1594 49.128 53.6047 48.8903C57.7647 53.0503 61.9248 57.2104 66.0848 61.3704C67.5507 62.8363 70.1259 61.7666 70.1259 59.7064C70.1259 55.5463 70.1259 51.3863 70.1259 47.2263C69.3336 48.0187 68.5412 48.8111 67.7488 49.6035C72.1069 49.6035 77.1385 50.3958 80.7043 47.3848C83.9927 44.6511 83.9927 40.8872 83.9927 37.0442C83.9927 28.3676 83.9927 19.7306 83.9927 11.054C83.9927 9.54845 84.0323 8.08253 83.5965 6.61662C82.3683 2.69432 78.8025 0.237931 74.7614 0.0794538C71.7107 -0.0394038 71.7107 4.7149 74.7614 4.83376C77.297 4.913 79.1195 6.81472 79.2384 9.35035C79.278 10.0635 79.2384 10.7766 79.2384 11.4898C79.2384 15.1744 79.2384 18.8193 79.2384 22.5039C79.2384 26.7036 79.2384 30.9032 79.2384 35.1028C79.2384 37.163 79.7138 40.0552 78.9214 42.0362C77.297 46.117 71.1957 44.8888 67.7488 44.8888C66.481 44.8888 65.3716 45.9585 65.3716 47.2659C65.3716 51.426 65.3716 55.586 65.3716 59.746C66.7187 59.1913 68.0657 58.6366 69.4128 58.082C66.4017 55.0709 63.3511 52.0202 60.34 49.0092C59.2307 47.8998 58.1609 46.632 56.9724 45.6415C55.7442 44.6511 54.199 44.9284 52.7331 44.9284C47.7015 44.9284 42.6698 44.9284 37.6382 44.9284C35.9346 44.9284 34.1517 45.1265 32.6858 44.0568C31.1803 42.9078 30.9029 41.2438 30.9029 39.5006C30.9029 30.1901 30.9029 20.8795 30.9029 11.569C30.9029 10.4201 30.7444 9.07301 31.1406 7.96368C31.8538 5.90348 33.7159 4.95262 35.7761 4.913C39.3418 4.87338 42.9075 4.913 46.4733 4.913C55.9026 4.913 65.332 4.913 74.7614 4.913C77.8121 4.83376 77.8121 0.0794538 74.7614 0.0794538Z" fill="#334747"/>
</g>
<path d="M56.9115 16.0008C58.5656 16.0008 60.2198 16.0143 61.8739 16.0008C63.4742 15.9738 64.6577 16.6487 65.4915 17.9986C66.0428 18.8895 66.648 19.7534 67.1456 20.6848C67.549 21.4407 68.1139 21.9267 68.9073 22.2101C69.5125 22.4396 70.1042 22.7231 70.669 23.02C71.7449 23.587 72.2962 24.5184 72.3366 25.7332C72.3635 26.4487 72.35 27.1641 72.3366 27.8795C72.3097 29.8233 71.1128 31.0787 69.1763 31.1327C68.6518 31.1462 68.4232 31.2947 68.1945 31.7806C67.5087 33.2789 66.2849 34.0619 64.6308 34.0619C63.0035 34.0619 61.7932 33.2654 61.1342 31.7941C60.8922 31.2542 60.6098 31.1462 60.0987 31.1462C56.656 31.1597 53.2133 31.1597 49.7705 31.1462C49.2998 31.1462 49.0443 31.2542 48.8292 31.7401C48.1433 33.2654 46.9195 34.0754 45.2385 34.0619C43.5844 34.0484 42.3875 33.2385 41.7285 31.7266C41.5268 31.2812 41.2847 31.1597 40.8409 31.1192C39.2271 30.9842 38.0841 29.7828 38.0168 28.1765C37.9899 27.5016 38.0034 26.8401 38.0034 26.1652C38.0303 24.6129 38.8775 23.479 40.3702 23.0605C41.8495 22.6421 43.3423 22.2641 44.8216 21.8187C45.2116 21.6972 45.6285 21.4407 45.884 21.1167C46.7716 20.0234 47.6188 18.8895 48.4526 17.7691C49.3267 16.5947 50.4698 16.0008 51.9491 16.0143C53.6033 16.0143 55.2574 16.0008 56.9115 16.0008ZM68.598 29.6748C70.1849 29.8773 70.9111 29.2429 70.9111 27.65C70.9111 27.0426 70.9111 26.4352 70.9111 25.8412C70.9111 25.0313 70.5345 24.4914 69.8083 24.1539C69.0014 23.7895 68.1677 23.4385 67.3877 23.02C67.0515 22.8446 66.7152 22.5611 66.5135 22.2506C65.7335 21.0762 65.0073 19.8749 64.2677 18.6735C63.7297 17.7961 62.9498 17.3776 61.9277 17.3776C58.6194 17.3776 55.3112 17.3776 52.0029 17.3776C50.9943 17.3776 50.1874 17.7421 49.5823 18.5655C48.6409 19.8344 47.6861 21.1032 46.6909 22.3451C46.4623 22.6286 46.0857 22.885 45.7361 22.993C44.0954 23.479 42.4547 23.9109 40.8275 24.3564C40.0744 24.5589 39.5096 24.9773 39.4423 25.8007C39.3885 26.6242 39.3751 27.4611 39.4558 28.2845C39.5499 29.2834 40.3299 29.7963 41.352 29.6748C42.132 27.3531 43.3154 26.2327 45.1712 26.2867C45.9378 26.3002 46.7581 26.5837 47.4305 26.9481C48.4929 27.5151 48.9636 28.5679 49.1788 29.7153C53.0788 29.7153 56.9115 29.7153 60.7442 29.7153C61.2956 27.5556 62.627 26.3407 64.4963 26.2597C66.4597 26.1652 67.7508 27.2451 68.598 29.6748ZM42.8044 30.1203C42.7909 31.5241 43.9206 32.658 45.2923 32.6445C46.6371 32.631 47.7667 31.5106 47.7802 30.1743C47.7936 28.7974 46.664 27.6635 45.2788 27.6635C43.8937 27.6635 42.8178 28.7434 42.8044 30.1203ZM67.1321 30.1203C67.1187 28.7434 66.0294 27.6635 64.6711 27.6635C63.286 27.6635 62.1429 28.7974 62.1698 30.1743C62.1832 31.5106 63.3263 32.6445 64.6577 32.6445C66.0294 32.658 67.1456 31.5241 67.1321 30.1203Z" fill="#D41E45"/>
<path d="M68.598 29.6748C67.7508 27.2451 66.4463 26.1652 64.5098 26.2462C62.6405 26.3272 61.3091 27.5421 60.7577 29.7018C56.925 29.7018 53.0922 29.7018 49.1923 29.7018C48.9771 28.568 48.493 27.5016 47.444 26.9346C46.7582 26.5702 45.9378 26.3002 45.1847 26.2732C43.3154 26.2192 42.1454 27.3396 41.3654 29.6613C40.3434 29.7828 39.5634 29.2699 39.4692 28.271C39.3885 27.4476 39.402 26.6107 39.4558 25.7872C39.5096 24.9638 40.0744 24.5454 40.8409 24.3429C42.4816 23.8974 44.1223 23.4655 45.7495 22.9795C46.0992 22.8716 46.4757 22.6286 46.7044 22.3316C47.6995 21.0897 48.6543 19.8209 49.5957 18.552C50.2009 17.7286 51.0078 17.3641 52.0164 17.3641C55.3246 17.3776 58.6329 17.3641 61.9412 17.3641C62.9632 17.3641 63.7432 17.7826 64.2811 18.66C65.0208 19.8614 65.747 21.0627 66.527 22.2371C66.7422 22.5476 67.0649 22.8311 67.4011 23.0065C68.1946 23.425 69.0149 23.7625 69.8218 24.1404C70.548 24.4644 70.9245 25.0178 70.9245 25.8277C70.9245 26.4352 70.9245 27.0426 70.9245 27.6365C70.9111 29.2429 70.1849 29.8773 68.598 29.6748Z" fill="#D41E45"/>
<defs>
<clipPath id="clip0_107_264">
<rect width="57.8441" height="62.0437" fill="white" transform="translate(26.1487)"/>
</clipPath>
</defs>
</svg>
