<svg id="logo" xmlns="http://www.w3.org/2000/svg" width="280" height="120" overflow="visible" fill="none"
  viewBox="0 0 297 93">
  <g class="BlablaCampus">
    <g class="Home">
      <g class="left bulle">
        <g class="downBulle">
          <g class="whitebg">
            <g class="Group">
              <path class="whiteDown" fill="#fff"
                d="M9.374 32.456h39.382c3.764 0 6.854 3.09 6.854 6.854v31.062c0 3.764-3.09 6.854-6.854 6.854H28.867l-12.48 12.48v-12.48H9.374c-3.763 0-6.854-3.09-6.854-6.854V39.31c0-3.763 3.09-6.854 6.854-6.854Z" />
              <path fill="#334747"
                d="M9.374 30.08h34.509c2.496 0 5.428-.317 7.805.475 3.367 1.149 5.784 4.16 6.22 7.686.119.95.08 1.862.08 2.813v26.228c0 3.883-.12 7.607-3.527 10.3-3.605 2.854-8.993 2.022-13.312 2.022H28.867l1.664-.714-12.48 12.48c-1.466 1.466-4.041.397-4.041-1.664v-12.48l2.377 2.377c-4.358 0-9.39.793-12.955-2.218C.143 74.65.143 70.887.143 67.045V41.053c0-1.506-.04-2.971.396-4.437 1.229-3.923 4.794-6.38 8.835-6.537 3.051-.12 3.051 4.635 0 4.754-2.535.079-4.358 1.98-4.477 4.516-.04.713 0 1.427 0 2.14v23.613c0 2.06-.475 4.952.317 6.933 1.625 4.081 7.726 2.853 11.173 2.853 1.268 0 2.377 1.07 2.377 2.377v12.48l-4.04-1.664 9.072-9.073c1.11-1.11 2.179-2.377 3.367-3.368 1.229-.99 2.774-.713 4.24-.713h15.095c1.703 0 3.486.198 4.952-.871 1.506-1.15 1.783-2.813 1.783-4.556V41.569c0-1.149.158-2.496-.238-3.605-.713-2.06-2.575-3.011-4.635-3.051-3.566-.04-7.132 0-10.697 0H9.374c-3.05-.08-3.05-4.833 0-4.833Z" />
            </g>
          </g>
          <g class="loadingDown">
            <circle cx="14.5" cy="56.5" r="2.5" fill="#334747" class="Ellipse1" />
            <circle cx="23.5" cy="56.5" r="2.5" fill="#334747" class="Ellipse2" />
            <circle cx="32.5" cy="56.5" r="2.5" fill="#334747" class="Ellipse3" />
            <circle cx="41.5" cy="56.5" r="2.5" fill="#334747" class="Ellipse4" />
          </g>
        </g>
        <g class="upBulle">
          <g class="Group">
            <path class="whiteUp" fill="#334747"
              d="M74.768 2.063H40.259c-2.496 0-5.427-.317-7.804.475-3.368 1.149-5.785 4.16-6.22 7.686-.12.951-.08 1.862-.08 2.813v26.229c0 3.882.119 7.606 3.526 10.3 3.605 2.853 8.994 2.02 13.312 2.02h12.282l-1.664-.712 12.48 12.48c1.466 1.466 4.041.396 4.041-1.664V49.21l-2.377 2.377c4.358 0 9.39.792 12.956-2.219 3.288-2.734 3.288-6.498 3.288-10.34v-25.99c0-1.506.04-2.972-.396-4.438-1.228-3.923-4.794-6.379-8.835-6.537-3.05-.12-3.05 4.635 0 4.754 2.535.08 4.358 1.98 4.477 4.517.04.713 0 1.426 0 2.139v23.613c0 2.06.475 4.952-.317 6.933-1.625 4.081-7.726 2.853-11.173 2.853-1.268 0-2.377 1.07-2.377 2.377v12.48l4.041-1.664-9.073-9.073c-1.109-1.109-2.179-2.377-3.367-3.367-1.228-.99-2.774-.713-4.24-.713H37.645c-1.704 0-3.487.198-4.953-.872-1.505-1.149-1.783-2.813-1.783-4.556V13.552c0-1.149-.158-2.496.238-3.605.713-2.06 2.575-3.011 4.636-3.05 3.565-.04 7.13 0 10.697 0h28.288c3.05-.08 3.05-4.834 0-4.834Z" />
          </g>
          <g class="Frame" clip-path="url(#a)">
            <g class="whitebg">
              <path fill="#fff" class="whiteUp"
                d="M74.761 4.456H35.38c-3.764 0-6.854 3.09-6.854 6.854v31.062c0 3.764 3.09 6.854 6.854 6.854h19.889l12.48 12.48v-12.48h7.012c3.764 0 6.855-3.09 6.855-6.854V11.31c0-3.763-3.09-6.854-6.855-6.854Z" />
              <g class="Group">
                <path class="whiteUp" fill="#334747"
                  d="M74.761 2.08H40.253c-2.496 0-5.428-.318-7.805.475-3.368 1.149-5.784 4.16-6.22 7.686-.119.95-.08 1.862-.08 2.813v26.228c0 3.883.12 7.607 3.527 10.3 3.605 2.853 8.993 2.021 13.312 2.021h12.282l-1.664-.713 12.48 12.48c1.466 1.466 4.04.397 4.04-1.664v-12.48c-.791.793-1.584 1.585-2.376 2.377 4.358 0 9.39.793 12.955-2.218 3.289-2.734 3.289-6.498 3.289-10.34V13.053c0-1.506.04-2.972-.397-4.437-1.228-3.923-4.794-6.38-8.835-6.538-3.05-.118-3.05 4.636 0 4.755 2.536.079 4.359 1.98 4.477 4.516.04.713 0 1.427 0 2.14v23.613c0 2.06.476 4.952-.317 6.933-1.624 4.081-7.725 2.853-11.172 2.853-1.268 0-2.377 1.07-2.377 2.377v12.48l4.04-1.664-9.072-9.073c-1.11-1.11-2.18-2.377-3.368-3.367-1.228-.99-2.773-.714-4.239-.714H37.638c-1.703 0-3.486.199-4.952-.871-1.506-1.15-1.783-2.813-1.783-4.556V13.569c0-1.149-.159-2.496.238-3.605.713-2.06 2.575-3.011 4.635-3.051 3.566-.04 7.131 0 10.697 0h28.288c3.051-.08 3.051-4.834 0-4.834Z" />
              </g>
            </g>
            <!-- <g class="loadingUp">
                    <circle cx="41.5" cy="26.5" r="2.5" fill="#334747" class="Ellipse1"/>
                    <circle cx="50.5" cy="26.5" r="2.5" fill="#334747" class="Ellipse2"/>
                    <circle cx="59.5" cy="26.5" r="2.5" fill="#334747" class="Ellipse3"/>
                    <circle cx="68.5" cy="26.5" r="2.5" fill="#334747" class="Ellipse4"/>
                  </g> -->
          </g>
        </g>
      </g>
    </g>
    <g class="human">
      <path fill="#111"
        d="M313c1.1 0 2 .9 2 2s-.9 2-2 2-2-.9-2-2 .9-2 2-2Zm3.9 6.1c-.4-.4-1.1-1.1-2.4-1.1H306c-2.8 0-5-2.2-5-5h-2c0 3.2 2.1 5.8 5 6.7V33h2v-6h2v6h2V21.1l4 3.9 1.4-1.4-4.5-4.5Z"
        class="human" />
    </g>
    <g class="voiture">
      <path fill="#D41E45"
        d="M280.912 21c1.654 0 3.308.014 4.962 0 1.6-.026 2.784.649 3.617 1.999.552.89 1.157 1.754 1.655 2.686.403.756.968 1.242 1.761 1.525.605.23 1.197.513 1.762.81 1.076.567 1.627 1.498 1.668 2.713.026.716.013 1.431 0 2.146-.027 1.944-1.224 3.2-3.161 3.254-.524.013-.753.162-.981.648-.686 1.498-1.91 2.28-3.564 2.28-1.627 0-2.838-.796-3.497-2.267-.242-.54-.524-.648-1.035-.648-3.443.014-6.886.014-10.328 0-.471 0-.727.108-.942.594-.686 1.525-1.909 2.335-3.591 2.322-1.654-.014-2.851-.823-3.509-2.335-.202-.446-.444-.567-.888-.608-1.614-.135-2.757-1.336-2.824-2.943-.027-.674-.014-1.336-.014-2.01.027-1.553.874-2.687 2.367-3.105 1.48-.419 2.972-.797 4.452-1.242.39-.122.806-.378 1.062-.702a100.154 100.154 0 0 0 2.569-3.348c.874-1.174 2.017-1.768 3.496-1.755 1.654 0 3.308-.013 4.963-.013Zm11.686 13.675c1.587.202 2.313-.432 2.313-2.025v-1.809c0-.81-.376-1.35-1.103-1.687-.807-.364-1.64-.715-2.42-1.134a2.399 2.399 0 0 1-.874-.77c-.78-1.174-1.507-2.375-2.246-3.576-.538-.878-1.318-1.296-2.34-1.296h-9.925c-1.009 0-1.816.364-2.421 1.188a127.302 127.302 0 0 1-2.891 3.78 2.125 2.125 0 0 1-.955.647c-1.641.486-3.281.918-4.909 1.363-.753.203-1.317.621-1.385 1.445-.053.823-.067 1.66.014 2.484.094.998.874 1.511 1.896 1.39.78-2.322 1.963-3.442 3.819-3.388.767.013 1.587.297 2.26.661 1.062.567 1.533 1.62 1.748 2.767h11.565c.552-2.16 1.883-3.374 3.752-3.455 1.964-.095 3.255.985 4.102 3.415Zm-25.794.445c-.013 1.404 1.117 2.538 2.488 2.525 1.345-.014 2.475-1.134 2.488-2.47.014-1.378-1.116-2.511-2.501-2.511a2.45 2.45 0 0 0-2.475 2.456Zm24.328 0a2.455 2.455 0 0 0-2.461-2.456c-1.385 0-2.528 1.133-2.501 2.51.013 1.337 1.156 2.47 2.488 2.47 1.371.014 2.488-1.12 2.474-2.524Z" />
      <path fill="#D41E45"
        d="M292.598 34.675c-.847-2.43-2.152-3.51-4.088-3.429-1.87.081-3.201 1.296-3.752 3.456h-11.566c-.215-1.134-.699-2.2-1.748-2.767-.686-.365-1.506-.635-2.259-.662-1.87-.054-3.04 1.067-3.82 3.388-1.022.122-1.802-.391-1.896-1.39-.08-.823-.067-1.66-.013-2.484.054-.823.618-1.242 1.385-1.444 1.641-.446 3.281-.878 4.909-1.363.349-.108.726-.351.954-.648.996-1.242 1.95-2.511 2.892-3.78.605-.823 1.412-1.188 2.42-1.188 3.309.014 6.617 0 9.925 0 1.022 0 1.802.419 2.34 1.296.74 1.201 1.466 2.403 2.246 3.577.215.31.538.594.874.77.794.418 1.614.755 2.421 1.133.726.324 1.103.878 1.103 1.688v1.808c-.014 1.607-.74 2.241-2.327 2.039Z" />
    </g>
    <g class="blabla">
      <path fill="#334747"
        d="m158.88 15.64-1.692 5.472h5.652l-1.692-5.472c-.096-.216-.204-.372-.324-.468a.488.488 0 0 0-.36-.144h-.9a.62.62 0 0 0-.396.144c-.096.096-.192.252-.288.468Zm-2.052 17.064c0 .456-.108.792-.324 1.008-.192.192-.516.288-.972.288h-5.292c-.456 0-.792-.096-1.008-.288-.192-.216-.288-.552-.288-1.008V23.2c0-.72.108-1.548.324-2.484.24-.936.6-2.028 1.08-3.276l3.132-8.172c.144-.408.36-.708.648-.9.312-.192.708-.288 1.188-.288H165c.456 0 .828.096 1.116.288.312.192.54.492.684.9l3.132 8.172c.48 1.248.828 2.34 1.044 3.276.24.936.36 1.764.36 2.484v9.504c0 .456-.108.792-.324 1.008-.192.192-.516.288-.972.288h-5.436c-.48 0-.84-.096-1.08-.288-.216-.216-.324-.552-.324-1.008v-5.04h-6.372v5.04Z"
        class="a2" />
      <path fill="#334747"
        d="M143.104 34H124.78c-.456 0-.792-.096-1.008-.288-.192-.216-.288-.552-.288-1.008V9.376c0-.456.096-.78.288-.972.216-.216.552-.324 1.008-.324h5.58c.456 0 .78.108.972.324.216.192.324.516.324.972v17.82h4.932v-5.832c0-.456.096-.78.288-.972.216-.216.552-.324 1.008-.324h5.22c.456 0 .78.108.972.324.216.192.324.516.324.972v11.34c0 .456-.108.792-.324 1.008-.192.192-.516.288-.972.288Z"
        class="l2" />
      <path fill="#334747"
        d="M191.604 34H177.78c-.456 0-.792-.096-1.008-.288-.192-.216-.288-.552-.288-1.008V9.376c0-.456.096-.78.288-.972.216-.216.552-.324 1.008-.324h11.484c2.352 0 4.092.456 5.22 1.368 1.128.888 1.692 2.268 1.692 4.14v1.728c0 1.008-.18 1.836-.54 2.484-.336.624-.864 1.092-1.584 1.404 1.536.144 2.676.672 3.42 1.584.744.912 1.116 2.244 1.116 3.996v3.312c0 2.016-.576 3.504-1.728 4.464-1.128.96-2.88 1.44-5.256 1.44Zm-7.02-19.8v3.888h3.06c.456 0 .792-.12 1.008-.36.24-.24.36-.6.36-1.08V15.64c0-.48-.12-.84-.36-1.08-.216-.24-.552-.36-1.008-.36h-3.06Zm0 9.432v4.248h4.68c.456 0 .792-.12 1.008-.36.24-.24.36-.6.36-1.08v-1.404c0-.48-.12-.828-.36-1.044-.216-.24-.552-.36-1.008-.36h-4.68Z"
        class="b2" />
      <path fill="#334747"
        d="m236.88 15.64-1.692 5.472h5.652l-1.692-5.472c-.096-.216-.204-.372-.324-.468a.488.488 0 0 0-.36-.144h-.9a.62.62 0 0 0-.396.144c-.096.096-.192.252-.288.468Zm-2.052 17.064c0 .456-.108.792-.324 1.008-.192.192-.516.288-.972.288h-5.292c-.456 0-.792-.096-1.008-.288-.192-.216-.288-.552-.288-1.008V23.2c0-.72.108-1.548.324-2.484.24-.936.6-2.028 1.08-3.276l3.132-8.172c.144-.408.36-.708.648-.9.312-.192.708-.288 1.188-.288H243c.456 0 .828.096 1.116.288.312.192.54.492.684.9l3.132 8.172c.48 1.248.828 2.34 1.044 3.276.24.936.36 1.764.36 2.484v9.504c0 .456-.108.792-.324 1.008-.192.192-.516.288-.972.288h-5.436c-.48 0-.84-.096-1.08-.288-.216-.216-.324-.552-.324-1.008v-5.04h-6.372v5.04Z"
        class="a" />
      <path fill="#334747"
        d="M221.104 34H202.78c-.456 0-.792-.096-1.008-.288-.192-.216-.288-.552-.288-1.008V9.376c0-.456.096-.78.288-.972.216-.216.552-.324 1.008-.324h5.58c.456 0 .78.108.972.324.216.192.324.516.324.972v17.82h4.932v-5.832c0-.456.096-.78.288-.972.216-.216.552-.324 1.008-.324h5.22c.456 0 .78.108.972.324.216.192.324.516.324.972v11.34c0 .456-.108.792-.324 1.008-.192.192-.516.288-.972.288Z"
        class="l" />
      <path fill="#334747"
        d="M113.604 34H99.78c-.456 0-.792-.096-1.008-.288-.192-.216-.288-.552-.288-1.008V9.376c0-.456.096-.78.288-.972.216-.216.552-.324 1.008-.324h11.484c2.352 0 4.092.456 5.22 1.368 1.128.888 1.692 2.268 1.692 4.14v1.728c0 1.008-.18 1.836-.54 2.484-.336.624-.864 1.092-1.584 1.404 1.536.144 2.676.672 3.42 1.584.744.912 1.116 2.244 1.116 3.996v3.312c0 2.016-.576 3.504-1.728 4.464-1.128.96-2.88 1.44-5.256 1.44Zm-7.02-19.8v3.888h3.06c.456 0 .792-.12 1.008-.36.24-.24.36-.6.36-1.08V15.64c0-.48-.12-.84-.36-1.08-.216-.24-.552-.36-1.008-.36h-3.06Zm0 9.432v4.248h4.68c.456 0 .792-.12 1.008-.36.24-.24.36-.6.36-1.08v-1.404c0-.48-.12-.828-.36-1.044-.216-.24-.552-.36-1.008-.36h-4.68Z"
        class="b" />
    </g>
    <g class="campus">
      <path fill="#D41E45"
        d="M242.508 70h-11.376c-.456 0-.792-.096-1.008-.288-.192-.216-.288-.552-.288-1.008v-4.212c0-.456.096-.78.288-.972.216-.216.552-.324 1.008-.324h9.684c.312 0 .54-.096.684-.288.168-.216.252-.468.252-.756 0-.408-.084-.708-.252-.9-.144-.192-.372-.3-.684-.324l-5.4-.756c-1.68-.24-3.036-.792-4.068-1.656-1.008-.864-1.512-2.304-1.512-4.32v-3.78c0-2.04.66-3.6 1.98-4.68 1.32-1.104 3.144-1.656 5.472-1.656h10.08c.456 0 .78.108.972.324.216.192.324.516.324.972v4.284c0 .456-.108.792-.324 1.008-.192.192-.516.288-.972.288h-8.388c-.312 0-.552.108-.72.324-.168.192-.252.444-.252.756s.084.576.252.792c.168.216.408.336.72.36l5.364.72c1.68.24 3.036.792 4.068 1.656 1.032.864 1.548 2.304 1.548 4.32v3.78c0 2.04-.672 3.612-2.016 4.716-1.32 1.08-3.132 1.62-5.436 1.62Z"
        class="s" />
      <path fill="#D41E45"
        d="M225.552 63.196c0 1.104-.168 2.112-.504 3.024-.312.888-.888 1.656-1.728 2.304-.816.624-1.944 1.116-3.384 1.476-1.44.36-3.276.54-5.508.54s-4.068-.18-5.508-.54c-1.44-.36-2.58-.852-3.42-1.476-.816-.648-1.392-1.416-1.728-2.304-.312-.912-.468-1.92-.468-3.024v-17.82c0-.456.096-.78.288-.972.216-.216.552-.324 1.008-.324h5.652c.456 0 .78.108.972.324.216.192.324.516.324.972v16.416c0 .48.18.888.54 1.224.36.312 1.164.468 2.412.468 1.272 0 2.088-.156 2.448-.468.36-.336.54-.744.54-1.224V45.376c0-.456.096-.78.288-.972.216-.216.552-.324 1.008-.324h5.472c.456 0 .78.108.972.324.216.192.324.516.324.972v17.82Z"
        class="u" />
      <path fill="#D41E45"
        d="M185.36 70h-5.58c-.456 0-.792-.096-1.008-.288-.192-.216-.288-.552-.288-1.008V45.376c0-.456.096-.78.288-.972.216-.216.552-.324 1.008-.324h11.016c3.264 0 5.496.648 6.696 1.944 1.2 1.296 1.8 2.988 1.8 5.076v4.608c0 2.088-.6 3.78-1.8 5.076-1.2 1.296-3.432 1.944-6.696 1.944h-4.14v5.976c0 .456-.108.792-.324 1.008-.192.192-.516.288-.972.288Zm1.224-19.188v5.436h3.24c.696 0 1.152-.18 1.368-.54.216-.36.324-.768.324-1.224v-1.908c0-.456-.108-.864-.324-1.224-.216-.36-.672-.54-1.368-.54h-3.24Z"
        class="p" />
      <path fill="#D41E45"
        d="M154.144 70h-5.364c-.456 0-.792-.096-1.008-.288-.192-.216-.288-.552-.288-1.008V45.376c0-.456.096-.78.288-.972.216-.216.552-.324 1.008-.324h5.796c.384 0 .696.084.936.252.264.168.504.444.72.828l3.24 5.868c.12.216.216.372.288.468a.488.488 0 0 0 .36.144h.324c.144 0 .252-.048.324-.144.096-.096.204-.252.324-.468l3.204-5.868c.216-.384.444-.66.684-.828.264-.168.588-.252.972-.252h5.832c.456 0 .78.108.972.324.216.192.324.516.324.972v23.328c0 .456-.108.792-.324 1.008-.192.192-.516.288-.972.288h-5.544c-.456 0-.792-.096-1.008-.288-.192-.216-.288-.552-.288-1.008V56.032l-2.124 3.924c-.216.408-.48.708-.792.9-.288.168-.66.252-1.116.252h-1.44c-.456 0-.84-.084-1.152-.252-.288-.192-.54-.492-.756-.9l-2.124-3.924v12.672c0 .456-.108.792-.324 1.008-.192.192-.516.288-.972.288Z"
        class="m" />
      <path fill="#D41E45"
        d="m130.88 51.64-1.692 5.472h5.652l-1.692-5.472c-.096-.216-.204-.372-.324-.468a.488.488 0 0 0-.36-.144h-.9a.62.62 0 0 0-.396.144c-.096.096-.192.252-.288.468Zm-2.052 17.064c0 .456-.108.792-.324 1.008-.192.192-.516.288-.972.288h-5.292c-.456 0-.792-.096-1.008-.288-.192-.216-.288-.552-.288-1.008V59.2c0-.72.108-1.548.324-2.484.24-.936.6-2.028 1.08-3.276l3.132-8.172c.144-.408.36-.708.648-.9.312-.192.708-.288 1.188-.288H137c.456 0 .828.096 1.116.288.312.192.54.492.684.9l3.132 8.172c.48 1.248.828 2.34 1.044 3.276.24.936.36 1.764.36 2.484v9.504c0 .456-.108.792-.324 1.008-.192.192-.516.288-.972.288h-5.436c-.48 0-.84-.096-1.08-.288-.216-.216-.324-.552-.324-1.008v-5.04h-6.372v5.04Z"
        class="a" />
      <path fill="#D41E45"
        d="M115.728 70h-8.784c-3 0-5.232-.6-6.696-1.8-1.44-1.2-2.16-3.048-2.16-5.544V51.46c0-2.496.72-4.344 2.16-5.544 1.464-1.224 3.696-1.836 6.696-1.836h8.784c.456 0 .78.108.972.324.216.192.324.516.324.972v4.356c0 .456-.108.792-.324 1.008-.192.192-.516.288-.972.288h-7.236c-.744 0-1.296.156-1.656.468-.36.288-.54.732-.54 1.332v8.568c0 .6.18 1.044.54 1.332.36.264.912.396 1.656.396h7.236c.456 0 .78.108.972.324.216.192.324.516.324.972v4.284c0 .456-.108.792-.324 1.008-.192.192-.516.288-.972.288Z"
        class="c" />
    </g>
  </g>

  <def>
    <clipPath id="clip0_107_264">
      <rect width="57.8441" height="62.0437" fill="white" transform="translate(26.1487)" />
    </clipPath>
  </def>

  <style>
    /* .human {
    animation: translateAndMinimize 2s ease-in-out 1 forwards;
    height: auto;
    width: min-content;
    } */

    .downBulle {
      transform: scale(0.78) translate(0.20em, 0.40em);
    }

    #logo {
      overflow: visible;
    }

    .Home>.voiture {
      display: none;
    }

    .voiture {}

    .campus {}


    .loadingDown>.Ellipse1 {
      animation: upAndDown 0.5s ease-in-out 0.30s forwards alternate infinite;

    }

    .loadingDown>.Ellipse2 {
      animation: upAndDown 0.5s ease-in-out 0.20s forwards alternate infinite;

    }

    .loadingDown>.Ellipse3 {
      animation: upAndDown 0.5s ease-in-out 0.10s forwards alternate infinite;

    }

    .loadingDown>.Ellipse4 {
      animation: upAndDown 0.5s ease-in-out forwards alternate infinite;

    }

    .loadingUp>.Ellipse1 {
      animation: upAndDown 0.5s ease-in-out 0.30s forwards alternate infinite;

    }

    .loadingUp>.Ellipse2 {
      animation: upAndDown 0.5s ease-in-out 0.20s forwards alternate infinite;

    }

    .loadingUp>.Ellipse3 {
      animation: upAndDown 0.5s ease-in-out 0.10s forwards alternate infinite;

    }

    .loadingUp>.Ellipse4 {
      animation: upAndDown 0.5s ease-in-out forwards alternate infinite;

    }

    @keyframes upAndDown {
      0% {
        transform: translateY(0px);
      }

      100% {
        transform: translateY(-10px);
      }
    }

    .loadingDown {
      animation: opacity 2s ease-in-out forwards;
    }

    /* .loadingUp {
    animation: opacityReverse 2s ease-in forwards 2s;
    opacity: 0;
    } */

    @keyframes opacity {
      0% {
        opacity: 1;
      }

      100% {
        opacity: 0;
        display: none;
      }
    }




    /* voiture */
    /* etat initial*/
    .voiture {
      display: block;
      transform: translateX(-14rem);
      animation: go 2s ease-in-out alternate infinite 1.2s;
      /* transform-origin: 50% 50%; */
      width: 5px;
    }

    @keyframes go {
      0% {
        transform: translateX(-14rem);
      }

      15% {
        transform: translateX(-14rem);
      }

      75% {
        transform: translateX(0rem);
      }

      100% {
        transform: translateX(0rem);
      }

    }

    /* blabla */

    .blabla>.b {
      animation: up1 2s ease-in-out alternate infinite 1.124s;
    }

    .blabla>.l2 {
      animation: up2 2s ease-in-out alternate-reverse infinite 1.224s;
    }

    .blabla>.a2 {
      animation: up3 2s ease-in-out alternate infinite 1.324s;
    }

    .blabla>.b2 {
      animation: up4 2s ease-in-out alternate-reverse infinite 1.424s;
    }

    .blabla>.l {
      animation: up5 2s ease-in-out alternate infinite 1.524s;
    }

    .blabla>.a {
      animation: up6 2s ease-in-out alternate infinite 1.58s;
    }

    @keyframes up1 {
      0% {
        transform: translateY(0px);
      }

      50% {
        transform: translateY(-20px);
      }

      100% {
        transform: translateY(0px);
      }
    }

    @keyframes up2 {
      0% {
        transform: translateY(0px);
      }

      50% {
        transform: translateY(-22px);
      }

      100% {
        transform: translateY(0px);
      }
    }

    @keyframes up3 {
      0% {
        transform: translateY(0px);
      }

      50% {
        transform: translateY(-23px);
      }

      100% {
        transform: translateY(0px);
      }
    }

    @keyframes up4 {
      0% {
        transform: translateY(0px);
      }

      50% {
        transform: translateY(-24px);
      }

      100% {
        transform: translateY(0px);
      }
    }

    @keyframes up5 {
      0% {
        transform: translateY(0px);
      }

      50% {
        transform: translateY(-25px);
      }

      100% {
        transform: translateY(0px);
      }
    }

    @keyframes up6 {
      0% {
        transform: translateY(0px);
      }

      50% {
        transform: translateY(-26px);
      }

      100% {
        transform: translateY(0px);
      }
    }

    .campus>.c {
      animation: down1 2s ease-in-out alternate infinite 1.24s;
    }

    .campus>.a {
      animation: down2 2s ease-in-out alternate infinite 1.34s;
    }

    .campus>.m {
      animation: down3 2s ease-in-out alternate infinite 1.44s;
    }

    .campus>.p {
      animation: down4 2s ease-in-out alternate infinite 1.54s;
    }

    .campus>.u {
      animation: down5 2s ease-in-out alternate infinite 1.64s;
    }

    .campus>.s {
      animation: down6 2s ease-in-out alternate infinite 1.74s;
    }

    @keyframes down1 {
      0% {
        transform: translateY(0px);
      }

      50% {
        transform: translateY(10px);
      }

      100% {
        transform: translateY(0px);
      }
    }

    @keyframes down2 {
      0% {
        transform: translateY(0px);
      }

      50% {
        transform: translateY(10px);
      }

      100% {
        transform: translateY(0px);
      }

    }

    @keyframes down3 {
      0% {
        transform: translateY(0px);
      }

      50% {
        transform: translateY(10px);
      }

      100% {
        transform: translateY(0px);
      }

    }

    @keyframes down4 {
      0% {
        transform: translateY(0px);
      }

      50% {
        transform: translateY(10px);
      }

      100% {
        transform: translateY(0px);
      }

    }

    @keyframes down5 {
      0% {
        transform: translateY(0px);
      }

      50% {
        transform: translateY(10px);
      }

      100% {
        transform: translateY(0px);
      }

    }

    @keyframes down6 {
      0% {
        transform: translateY(0px);
      }

      50% {
        transform: translateY(10px);
      }

      100% {
        transform: translateY(0px);
      }

    }
  </style>
  <!-- 
  <animate>
    repeatCount="indefinite"
  </animate> -->
</svg>